<?xml version="1.0" standalone="no"?>
<!DOCTYPE svg PUBLIC "-//W3C//DTD SVG 20010904//EN"
 "http://www.w3.org/TR/2001/REC-SVG-20010904/DTD/svg10.dtd">
<svg version="1.0" xmlns="http://www.w3.org/2000/svg"
 width="1280" height="720" viewBox="0 0 1280.000000 720.000000"
 preserveAspectRatio="xMidYMid meet">
<g transform="translate(0.000000,720.000000) scale(0.100000,-0.100000)"
fill="#5f9234" stroke="none">
<path d="M7935 5334 c-126 -30 -176 -52 -272 -120 -70 -50 -160 -151 -205
-230 -16 -30 -32 -54 -34 -54 -2 0 -18 8 -36 18 -54 30 -158 68 -249 91 -94
23 -278 44 -315 35 -18 -5 -33 6 -81 56 -110 117 -200 160 -339 160 -223 0
-430 -146 -587 -414 -88 -151 -138 -317 -159 -523 l-12 -123 -25 24 c-15 14
-55 39 -91 56 -36 17 -71 34 -79 38 -7 4 -23 48 -36 97 -144 568 -641 863
-1072 637 -171 -89 -291 -254 -337 -464 -6 -24 -11 -28 -42 -28 -51 0 -88 -23
-117 -72 -28 -49 -62 -151 -72 -221 -6 -41 -15 -54 -59 -93 -62 -55 -117 -84
-216 -116 -64 -20 -95 -23 -210 -22 -149 1 -285 26 -454 84 -109 37 -136 37
-174 5 -52 -44 -51 -124 2 -158 42 -27 273 -96 391 -117 262 -46 493 -19 664
76 54 30 61 30 61 2 0 -13 15 -57 33 -99 l33 -75 -75 -81 c-92 -99 -172 -224
-221 -346 -49 -123 -60 -173 -66 -292 -11 -215 48 -377 191 -522 69 -70 95
-89 176 -127 176 -83 369 -88 586 -15 l61 20 49 -34 c134 -96 282 -141 458
-139 265 2 478 116 615 331 43 67 60 84 60 60 0 -21 71 -152 124 -229 61 -90
199 -230 289 -294 205 -147 495 -227 769 -212 479 25 910 286 1175 711 83 132
162 329 198 488 4 21 10 27 22 23 119 -46 378 -55 515 -18 179 48 282 105 393
218 91 91 135 159 173 266 22 62 26 90 26 183 0 93 -4 121 -26 183 -64 178
-223 300 -438 338 -92 16 -176 15 -303 -2 l-48 -7 51 104 c67 139 84 210 84
339 0 80 -5 122 -22 175 -59 190 -202 336 -398 406 -45 16 -89 22 -184 25 -69
1 -134 1 -145 -2z m309 -247 c94 -45 158 -107 199 -195 28 -60 31 -76 31 -162
0 -121 -32 -214 -117 -340 -32 -47 -195 -220 -208 -220 -4 0 -31 45 -61 101
-84 159 -245 362 -365 460 -36 30 -77 63 -90 74 l-24 20 41 64 c23 36 66 89
96 118 96 94 180 124 326 119 86 -3 104 -7 172 -39z m-1749 -21 c19 -8 35 -17
35 -20 0 -2 -30 -14 -67 -27 -136 -44 -239 -111 -331 -214 -96 -108 -139 -233
-128 -377 5 -76 13 -107 59 -229 4 -11 -168 -218 -175 -211 -15 15 -30 201
-24 301 18 278 99 481 256 642 106 109 181 149 278 149 34 0 78 -7 97 -14z
m-1745 -132 c156 -35 301 -168 403 -369 25 -51 72 -193 66 -200 -2 -2 -45 -10
-94 -19 -152 -26 -325 -102 -454 -199 -71 -53 -75 -55 -184 -72 l-111 -17 -28
34 c-76 91 -136 242 -145 363 -13 190 88 372 252 449 100 48 181 56 295 30z
m2233 -79 c109 -16 218 -50 308 -96 53 -26 60 -33 55 -52 -4 -12 -13 -55 -22
-96 -8 -41 -16 -76 -18 -79 -3 -2 -13 1 -24 7 -54 29 -190 51 -311 51 l-123 0
6 31 c3 17 6 80 6 140 0 81 3 109 13 109 6 0 56 -7 110 -15z m-335 -100 c2
-58 -3 -113 -13 -156 l-16 -66 -52 -18 c-67 -23 -204 -95 -278 -145 l-58 -39
-11 35 c-19 56 -8 160 22 226 47 102 162 188 318 239 84 28 85 27 88 -76z
m994 -242 c109 -106 199 -224 260 -341 71 -136 75 -122 -46 -175 -156 -69
-153 -69 -160 -10 -17 143 -74 284 -149 369 l-40 46 13 99 c7 54 16 99 21 99
6 0 51 -39 101 -87z m-462 -162 c106 -37 127 -55 134 -120 9 -74 51 -229 82
-298 13 -30 22 -59 19 -63 -3 -4 -65 -11 -137 -15 -152 -8 -355 11 -475 45
-65 18 -247 91 -260 104 -3 3 24 41 59 85 54 67 159 230 170 262 6 18 94 28
218 25 98 -2 139 -8 190 -25z m-3150 -100 c0 -10 27 -71 60 -137 33 -65 60
-121 60 -124 0 -3 -17 -14 -37 -25 -21 -10 -51 -28 -67 -38 -34 -24 -38 -19
-62 61 -20 67 -15 200 10 255 17 38 36 42 36 8z m1230 -209 c0 -60 -2 -111 -5
-114 -3 -3 -44 14 -91 38 -47 24 -116 53 -155 66 -38 12 -69 25 -69 29 0 20
210 87 278 88 l42 1 0 -108z m3671 28 c103 -35 156 -77 197 -155 22 -42 26
-63 27 -136 0 -81 -2 -90 -42 -170 -60 -121 -130 -186 -266 -249 -111 -52
-175 -63 -332 -57 -121 5 -211 19 -229 38 -3 3 -8 77 -11 165 -4 138 -31 345
-51 398 -10 27 187 118 350 161 122 32 270 34 357 5z m-4144 -200 c40 -5 108
-21 150 -35 79 -27 223 -102 223 -117 0 -15 -116 -8 -212 11 -93 20 -193 53
-259 86 -45 23 -45 22 -24 45 21 23 23 23 122 10z m1693 -69 c239 -122 479
-171 783 -157 101 4 147 3 147 -4 0 -14 -24 -51 -76 -121 -87 -114 -255 -222
-415 -266 -90 -25 -280 -25 -374 1 -140 38 -288 126 -394 235 -61 63 -131 153
-130 167 0 5 39 28 87 52 48 23 125 69 172 101 77 53 87 57 105 45 11 -8 54
-31 95 -53z m-2140 13 c11 -13 8 -26 -21 -79 -19 -36 -38 -65 -44 -65 -17 0
-115 64 -112 74 3 9 144 86 158 86 4 0 12 -7 19 -16z m3704 -57 c10 -40 26
-200 26 -260 l0 -59 -31 20 c-54 34 -170 132 -176 149 -5 12 17 38 78 95 46
43 87 78 90 78 4 0 9 -10 13 -23z m-4008 -182 c30 -25 82 -59 116 -76 55 -28
60 -32 54 -57 -37 -169 -44 -310 -21 -447 21 -131 40 -188 101 -302 29 -56 50
-104 46 -106 -24 -16 -144 -29 -219 -25 -152 9 -261 68 -340 186 -53 78 -73
143 -80 253 -12 189 68 384 232 567 26 28 49 52 51 52 2 0 29 -20 60 -45z
m3590 -85 c19 -16 47 -33 62 -37 15 -3 58 -33 97 -66 38 -33 103 -82 145 -108
127 -82 116 -64 95 -150 -112 -459 -420 -804 -852 -953 -109 -38 -271 -66
-374 -66 -267 0 -534 111 -715 296 -138 140 -219 291 -259 486 -20 92 -20 315
0 410 21 100 44 178 53 178 4 0 22 -21 41 -46 41 -54 149 -160 211 -206 109
-81 237 -143 372 -180 118 -32 344 -32 468 0 165 42 356 156 476 283 53 56
114 137 125 166 11 29 15 29 55 -7z m-2196 -37 c46 -73 91 -198 108 -303 12
-79 13 -110 3 -184 -46 -347 -316 -561 -636 -503 -87 16 -204 63 -189 75 5 5
41 31 80 60 83 61 227 207 305 312 97 129 194 323 254 508 15 45 31 82 36 82
5 0 23 -21 39 -47z m-280 1 c0 -3 -16 -44 -36 -92 -101 -246 -265 -464 -454
-604 -118 -87 -114 -86 -151 -36 -44 61 -73 122 -101 208 -20 65 -23 95 -23
225 0 94 5 170 14 203 l13 54 37 -6 c20 -3 97 -9 171 -12 146 -7 289 8 425 46
72 19 105 24 105 14z"/>
</g>
</svg>
