<?xml version="1.0" standalone="no"?>
<!DOCTYPE svg PUBLIC "-//W3C//DTD SVG 20010904//EN"
 "http://www.w3.org/TR/2001/REC-SVG-20010904/DTD/svg10.dtd">
<svg version="1.0" xmlns="http://www.w3.org/2000/svg"
 width="1280" height="720" viewBox="0 0 1280.000000 720.000000"
 preserveAspectRatio="xMidYMid meet">
<g transform="translate(0.000000,720.000000) scale(0.100000,-0.100000)"
fill="#5f9234" stroke="none">
<path d="M7935 5334 c-126 -30 -176 -52 -272 -120 -70 -50 -160 -151 -205
-230 -16 -30 -32 -54 -34 -54 -2 0 -18 8 -36 18 -50 28 -164 69 -251 92 -92
23 -275 43 -311 34 -21 -5 -34 4 -83 56 -110 117 -200 160 -339 160 -101 0
-177 -22 -279 -83 -180 -106 -349 -346 -420 -593 -26 -91 -54 -273 -55 -348
l0 -40 -27 26 c-16 15 -57 41 -93 58 -36 17 -71 34 -79 38 -7 4 -23 48 -36 97
-51 200 -142 364 -275 495 -98 96 -166 140 -283 183 -73 27 -95 30 -202 31
-89 0 -136 -4 -179 -18 -249 -75 -410 -253 -470 -518 -6 -25 -11 -28 -47 -28
-55 0 -89 -26 -123 -95 -26 -54 -66 -190 -66 -226 0 -22 -91 -103 -150 -134
-101 -52 -186 -70 -325 -70 -71 1 -157 6 -190 13 -117 25 -182 42 -270 72
-111 38 -136 38 -177 1 -26 -23 -33 -37 -33 -68 0 -68 21 -86 142 -126 59 -19
133 -42 163 -50 177 -49 419 -62 565 -32 77 16 240 78 251 96 13 21 32 6 38
-28 3 -21 19 -65 34 -98 l29 -60 -76 -82 c-180 -193 -292 -456 -291 -682 1
-190 63 -342 195 -477 69 -72 94 -89 175 -128 178 -83 369 -88 587 -15 l63 21
38 -30 c70 -55 196 -110 307 -133 33 -7 105 -12 160 -11 265 2 478 117 616
333 42 65 59 82 59 58 0 -21 71 -152 124 -229 61 -90 199 -230 289 -294 89
-64 253 -140 365 -170 374 -100 796 -25 1132 200 l81 54 67 -36 c37 -20 108
-50 157 -67 89 -32 92 -32 275 -31 172 0 191 2 274 28 162 49 331 141 370 201
31 47 -7 134 -67 154 -33 11 -39 9 -91 -24 -149 -95 -290 -143 -451 -152 -107
-6 -229 14 -311 51 l-54 25 67 83 c88 109 156 214 205 317 40 84 118 307 118
339 0 38 12 41 90 20 109 -29 344 -29 452 0 175 47 280 104 388 212 81 81 136
162 169 250 84 229 24 475 -149 607 -58 44 -170 97 -240 114 -64 14 -214 17
-318 6 l-73 -8 44 88 c83 164 109 296 87 439 -15 99 -40 165 -90 243 -76 117
-186 202 -326 252 -45 16 -89 22 -184 25 -69 1 -134 1 -145 -2z m312 -249
c138 -68 216 -177 229 -320 11 -123 -48 -289 -146 -410 -47 -58 -172 -185
-182 -185 -3 0 -30 45 -60 101 -84 159 -246 362 -367 462 -35 28 -75 61 -88
72 l-24 20 41 63 c75 117 174 198 278 228 30 8 83 12 144 10 90 -3 104 -6 175
-41z m-1752 -19 c19 -8 35 -17 35 -20 0 -2 -30 -14 -67 -27 -136 -44 -239
-111 -331 -214 -135 -152 -170 -374 -88 -559 l23 -52 -86 -106 c-47 -59 -89
-104 -93 -100 -15 15 -30 201 -24 301 18 278 99 481 256 642 106 109 181 149
278 149 34 0 78 -7 97 -14z m-1745 -132 c156 -35 301 -168 403 -369 25 -51 72
-193 66 -200 -2 -2 -45 -10 -94 -19 -152 -26 -325 -102 -454 -199 -71 -53 -75
-55 -184 -72 l-111 -17 -28 34 c-76 91 -136 242 -145 363 -13 190 88 372 252
449 100 48 181 56 295 30z m2337 -100 c51 -12 131 -41 179 -63 83 -39 86 -42
79 -68 -4 -16 -13 -59 -22 -98 -8 -38 -16 -71 -18 -73 -2 -2 -12 1 -23 7 -54
29 -190 51 -311 51 l-123 0 6 31 c3 17 6 81 6 141 l0 109 68 -7 c37 -4 108
-17 159 -30z m-439 -79 c2 -58 -3 -113 -13 -156 l-16 -66 -52 -18 c-76 -27
-161 -70 -254 -131 l-82 -53 -11 36 c-35 103 16 263 108 340 54 46 151 98 232
124 84 28 85 27 88 -76z m994 -242 c109 -106 199 -224 260 -341 67 -128 67
-124 6 -152 -85 -37 -200 -81 -204 -77 -2 2 -8 37 -14 78 -15 123 -60 230
-135 324 -17 22 -35 46 -39 53 -10 16 14 202 26 202 5 0 50 -39 100 -87z
m-462 -162 c36 -12 79 -32 97 -44 28 -19 32 -28 38 -87 8 -74 44 -204 79 -288
13 -31 22 -60 20 -63 -2 -4 -59 -10 -126 -14 -149 -8 -336 8 -463 40 -76 19
-266 92 -282 109 -3 3 24 41 59 85 54 67 159 230 170 262 6 18 94 28 218 25
98 -2 139 -8 190 -25z m-3150 -98 c0 -20 82 -194 109 -232 l21 -29 -36 -21
c-19 -12 -38 -21 -41 -21 -2 0 -18 -10 -35 -21 -36 -26 -40 -22 -64 59 -20 67
-15 200 10 255 16 37 36 42 36 10z m1230 -211 c0 -60 -2 -111 -5 -114 -3 -3
-44 14 -91 38 -47 24 -116 53 -155 66 -38 12 -69 25 -69 29 0 20 212 87 278
88 l42 1 0 -108z m3677 26 c101 -37 152 -77 188 -149 59 -114 34 -270 -61
-395 -46 -59 -74 -84 -154 -132 -110 -65 -177 -84 -326 -89 -137 -5 -290 15
-306 40 -4 7 -5 35 -2 62 8 69 -13 321 -35 428 l-19 88 87 43 c178 88 312 125
463 125 86 1 119 -3 165 -21z m-4062 -215 c107 -27 285 -111 285 -135 0 -15
-117 -8 -212 11 -93 20 -193 53 -259 86 -45 23 -45 22 -24 46 17 18 26 19 85
14 36 -4 92 -14 125 -22z m1610 -55 c242 -121 477 -167 778 -154 97 4 147 2
147 -4 0 -6 -12 -29 -26 -53 -97 -154 -265 -278 -454 -333 -91 -26 -298 -26
-390 0 -140 41 -286 129 -389 235 -61 63 -131 153 -130 167 0 5 39 28 87 52
48 23 125 69 172 101 84 57 85 58 110 41 14 -10 57 -33 95 -52z m-2145 16 c11
-13 8 -26 -21 -79 -19 -36 -38 -65 -44 -65 -17 0 -115 64 -112 74 3 9 144 86
158 86 4 0 12 -7 19 -16z m3704 -51 c10 -31 26 -196 26 -261 l0 -64 -31 20
c-58 36 -179 142 -179 157 0 13 158 165 172 165 4 0 9 -8 12 -17z m-4016 -182
c26 -22 78 -56 115 -77 63 -34 68 -39 63 -63 -37 -167 -44 -309 -21 -446 21
-131 40 -188 101 -302 29 -56 50 -104 46 -106 -24 -16 -144 -29 -219 -25 -152
9 -261 68 -340 186 -52 77 -73 143 -80 243 -13 191 67 393 227 572 28 31 54
57 57 57 2 0 25 -18 51 -39z m1409 -140 c82 -137 123 -327 103 -478 -46 -344
-316 -557 -635 -500 -44 8 -107 27 -139 41 l-59 26 84 64 c97 73 229 208 310
316 97 129 194 323 254 508 16 48 32 81 39 79 6 -2 25 -27 43 -56z m477 -1
c38 -51 158 -169 216 -212 109 -81 236 -143 372 -180 116 -32 354 -32 471 0
97 27 221 84 312 145 38 26 71 45 73 42 2 -2 -3 -25 -12 -52 -36 -111 -49
-214 -43 -333 10 -187 63 -334 169 -471 26 -34 27 -37 10 -52 -9 -8 -60 -38
-113 -66 -311 -166 -664 -195 -949 -78 -313 128 -527 383 -596 710 -19 91 -18
315 1 409 21 100 44 178 53 178 4 0 20 -18 36 -40z m-764 14 c0 -3 -16 -44
-36 -92 -101 -246 -265 -465 -454 -604 -118 -87 -114 -86 -151 -36 -44 61 -73
122 -101 208 -20 65 -23 95 -23 225 0 94 5 170 14 203 l13 54 37 -6 c20 -3 93
-9 162 -12 143 -8 263 4 409 41 98 24 130 29 130 19z m2638 -71 c37 -31 101
-78 142 -104 127 -82 116 -64 95 -150 -18 -75 -68 -216 -106 -299 -31 -67
-140 -227 -202 -295 l-54 -59 -32 44 c-147 204 -153 496 -14 765 37 73 90 155
99 155 3 0 36 -26 72 -57z"/>
</g>
</svg>
