<?xml version="1.0" standalone="no"?>
<!DOCTYPE svg PUBLIC "-//W3C//DTD SVG 20010904//EN"
 "http://www.w3.org/TR/2001/REC-SVG-20010904/DTD/svg10.dtd">
<svg version="1.0" xmlns="http://www.w3.org/2000/svg"
 width="1280" height="720" viewBox="0 0 1280.000000 720.000000"
 preserveAspectRatio="xMidYMid meet">
<g transform="translate(0.000000,720.000000) scale(0.100000,-0.100000)"
fill="#5f9234" stroke="none">
<path d="M3883 4562 c-43 -43 -80 -128 -98 -222 -16 -82 -18 -87 -68 -133
-152 -142 -401 -181 -697 -111 -36 9 -114 31 -175 50 -73 24 -120 33 -141 29
-32 -5 -66 -36 -78 -69 -10 -28 12 -92 37 -108 29 -20 261 -93 362 -115 59
-13 128 -17 265 -18 210 0 256 9 397 76 93 44 93 44 93 24 0 -8 16 -58 36
-109 93 -244 341 -412 674 -457 105 -14 328 -6 427 16 349 77 655 267 754 470
30 62 34 79 34 150 0 95 -23 154 -82 210 -116 113 -360 146 -586 80 -129 -37
-147 -48 -147 -90 0 -47 27 -111 54 -128 19 -13 33 -12 131 14 188 48 335 38
408 -29 36 -34 35 -75 -2 -133 -62 -95 -176 -182 -333 -252 -167 -74 -267 -98
-446 -104 -184 -7 -273 5 -397 54 -153 61 -221 119 -287 248 -39 75 -42 86
-46 181 -4 99 -4 101 32 173 49 97 71 194 57 249 -22 81 -121 111 -178 54z"/>
</g>
</svg>
