<?xml version="1.0" standalone="no"?>
<!DOCTYPE svg PUBLIC "-//W3C//DTD SVG 20010904//EN"
 "http://www.w3.org/TR/2001/REC-SVG-20010904/DTD/svg10.dtd">
<svg version="1.0" xmlns="http://www.w3.org/2000/svg"
 width="1280" height="720" viewBox="0 0 1280.000000 720.000000"
 preserveAspectRatio="xMidYMid meet">
<g transform="translate(0.000000,720.000000) scale(0.100000,-0.100000)"
fill="#5f9234" stroke="none">
<path d="M4550 5154 c-287 -56 -478 -244 -544 -536 -5 -24 -11 -28 -41 -28
-19 0 -45 -5 -59 -11 -49 -23 -105 -138 -127 -263 -10 -61 -15 -70 -63 -112
-56 -51 -161 -104 -246 -125 -79 -20 -285 -17 -390 5 -47 10 -143 36 -215 57
-141 43 -178 44 -212 6 -41 -44 -36 -120 10 -150 22 -14 163 -62 269 -91 97
-28 247 -46 369 -46 147 -1 268 24 383 79 47 23 87 41 90 41 3 0 6 -8 6 -18 0
-18 38 -123 58 -158 8 -15 -1 -30 -59 -92 -254 -273 -355 -621 -263 -912 69
-218 265 -394 492 -439 115 -23 294 -7 428 39 l58 20 58 -39 c132 -88 290
-134 458 -133 432 4 741 337 740 799 -1 208 -80 447 -196 590 -19 23 -34 45
-34 48 0 4 28 37 61 73 36 38 75 93 93 131 27 57 31 77 31 146 -1 59 -6 92
-22 127 -33 73 -122 146 -215 177 -31 10 -34 15 -46 78 -18 95 -83 254 -144
353 -62 101 -197 240 -281 289 -103 60 -209 92 -322 96 -55 2 -111 1 -125 -1z
m211 -222 c157 -41 290 -166 392 -367 25 -51 72 -193 66 -200 -2 -2 -47 -10
-99 -19 -52 -9 -135 -33 -184 -53 -49 -19 -132 -49 -184 -65 -52 -16 -162 -56
-245 -89 l-151 -59 -22 27 c-39 50 -93 167 -114 247 -24 94 -25 171 -5 249 66
254 297 394 546 329z m-731 -678 c0 -21 60 -153 97 -211 l33 -53 -43 -21 c-23
-12 -54 -30 -69 -40 -14 -11 -28 -19 -31 -19 -16 0 -40 97 -44 180 -4 82 -2
102 17 143 20 44 40 55 40 21z m1230 -213 c0 -61 -4 -112 -9 -115 -5 -3 -36 9
-69 28 -62 35 -166 79 -214 91 -16 4 -28 10 -28 14 0 24 197 89 273 90 l47 1
0 -109z m-381 -188 c76 -18 272 -109 279 -130 15 -50 -311 13 -463 89 -52 27
-51 25 -29 49 17 19 26 20 79 15 33 -4 93 -14 134 -23z m-529 -57 c0 -18 -63
-125 -74 -126 -19 0 -117 63 -113 73 2 6 36 28 77 49 56 29 77 35 91 27 11 -5
19 -16 19 -23z m-284 -242 c33 -23 79 -51 102 -63 37 -19 43 -26 38 -44 -3
-12 -13 -74 -22 -137 -31 -219 -1 -411 95 -603 32 -64 56 -119 52 -121 -23
-15 -144 -28 -218 -24 -150 8 -261 68 -338 184 -61 90 -80 158 -80 289 0 87 5
126 24 185 40 128 108 242 213 356 36 39 43 43 58 32 10 -7 44 -31 76 -54z
m1371 -110 c51 -92 82 -180 100 -284 26 -154 -3 -322 -81 -454 -40 -68 -138
-159 -210 -195 -71 -35 -175 -61 -246 -61 -93 0 -280 56 -280 84 0 6 19 23 43
38 106 68 244 209 364 373 63 85 182 330 223 458 19 59 39 106 44 104 5 -2 25
-30 43 -63z m-287 15 c0 -5 -16 -49 -36 -97 -102 -249 -264 -464 -458 -606
-114 -84 -110 -84 -147 -34 -38 52 -80 142 -105 223 -23 76 -27 331 -5 413 13
51 15 54 40 48 14 -3 85 -9 156 -12 153 -8 263 4 425 45 138 35 130 33 130 20z"/>
</g>
</svg>
