<?xml version="1.0" standalone="no"?>
<!DOCTYPE svg PUBLIC "-//W3C//DTD SVG 20010904//EN"
 "http://www.w3.org/TR/2001/REC-SVG-20010904/DTD/svg10.dtd">
<svg version="1.0" xmlns="http://www.w3.org/2000/svg"
 width="1280" height="720" viewBox="0 0 1280.000000 720.000000"
 preserveAspectRatio="xMidYMid meet">
<g transform="translate(0.000000,720.000000) scale(0.100000,-0.100000)"
fill="#5f9234" stroke="none">
<path d="M3886 4565 c-38 -36 -84 -140 -102 -231 -14 -75 -18 -82 -67 -127
-183 -170 -469 -190 -871 -60 -76 24 -118 33 -141 29 -33 -6 -67 -37 -79 -70
-10 -28 12 -92 37 -108 29 -20 261 -93 362 -115 59 -13 128 -17 265 -18 210 0
256 9 397 76 45 21 84 39 87 39 3 0 6 -8 6 -17 0 -10 15 -55 34 -100 l33 -82
-59 -58 c-63 -62 -150 -181 -173 -236 -28 -67 13 -137 80 -137 58 0 75 12 129
89 75 106 134 171 156 171 10 0 20 -4 22 -8 6 -15 130 -94 193 -123 34 -15
109 -40 166 -55 95 -26 120 -28 284 -29 198 0 267 10 436 66 280 92 507 255
590 424 30 62 34 79 34 150 0 60 -6 91 -22 127 -72 157 -302 232 -561 183
-177 -34 -742 -244 -972 -362 -68 -35 -130 -61 -137 -59 -20 8 -43 105 -43
184 0 66 5 86 39 161 71 156 75 256 12 300 -41 30 -101 28 -135 -4z m1526
-431 c99 -39 121 -94 69 -175 -85 -132 -292 -258 -531 -324 -118 -33 -358 -46
-474 -25 -139 24 -311 98 -311 133 0 41 649 307 930 382 112 30 253 34 317 9z"/>
</g>
</svg>
