<?xml version="1.0" standalone="no"?>
<!DOCTYPE svg PUBLIC "-//W3C//DTD SVG 20010904//EN"
 "http://www.w3.org/TR/2001/REC-SVG-20010904/DTD/svg10.dtd">
<svg version="1.0" xmlns="http://www.w3.org/2000/svg"
 width="1280" height="720" viewBox="0 0 1280.000000 720.000000"
 preserveAspectRatio="xMidYMid meet">
<g transform="translate(0.000000,720.000000) scale(0.100000,-0.100000)"
fill="#5f9234" stroke="none">
<path d="M6248 5265 c-296 -103 -529 -443 -583 -851 -8 -60 -15 -126 -15 -146
l0 -38 -45 35 c-47 35 -127 75 -151 75 -8 0 -16 12 -20 28 -89 402 -316 685
-620 771 -73 21 -213 24 -294 7 -265 -56 -450 -247 -514 -528 -5 -24 -11 -28
-41 -28 -49 0 -81 -18 -110 -61 -29 -45 -70 -163 -80 -232 -6 -41 -15 -54 -59
-93 -62 -55 -117 -84 -216 -115 -63 -20 -96 -24 -205 -24 -146 0 -263 22 -445
81 -58 19 -118 34 -132 34 -33 0 -84 -42 -92 -76 -10 -38 11 -92 42 -108 31
-16 181 -67 264 -90 165 -46 421 -60 564 -30 76 15 239 77 250 95 11 18 34 9
34 -13 0 -13 15 -57 33 -99 l33 -75 -75 -81 c-168 -179 -272 -407 -287 -627
-15 -218 45 -384 196 -536 187 -189 463 -240 756 -140 l58 20 51 -34 c107 -73
205 -110 344 -131 161 -25 312 0 461 75 94 47 154 97 224 185 113 141 164 286
173 490 7 173 -17 297 -91 458 -14 32 -26 61 -26 65 0 8 189 57 194 51 1 -2
13 -22 26 -44 134 -226 386 -414 652 -487 70 -19 108 -23 238 -23 134 0 166 3
235 24 96 29 245 97 312 142 141 96 323 322 323 400 0 12 -16 37 -36 55 -29
28 -43 34 -78 34 -48 0 -57 -8 -121 -105 -98 -146 -255 -261 -435 -317 -96
-29 -299 -32 -397 -5 -139 39 -272 117 -383 227 -55 54 -140 162 -140 177 0 4
20 16 45 26 65 27 196 109 302 188 321 240 509 592 490 914 -13 205 -81 345
-213 435 -104 72 -266 91 -396 45z m257 -204 c48 -21 83 -61 116 -128 22 -43
24 -61 24 -183 0 -153 -15 -214 -87 -350 -109 -207 -320 -399 -570 -520 l-59
-29 -14 33 c-29 70 -49 210 -49 346 1 215 33 351 123 525 62 119 186 249 281
294 79 37 170 42 235 12z m-1744 -129 c156 -41 291 -167 392 -367 25 -51 72
-193 66 -200 -2 -2 -45 -10 -96 -19 -152 -26 -322 -101 -453 -199 -67 -51 -78
-56 -154 -66 -44 -7 -95 -14 -111 -17 -26 -5 -35 0 -62 34 -77 96 -143 276
-143 391 0 126 58 260 149 343 115 105 258 140 412 100z m-731 -679 c0 -20 82
-194 110 -232 l20 -29 -67 -39 c-38 -21 -71 -39 -74 -41 -4 -2 -15 19 -25 45
-26 66 -26 232 -1 286 17 37 37 42 37 10z m1230 -211 c0 -60 -2 -111 -5 -114
-3 -3 -44 14 -91 38 -47 24 -116 53 -155 66 -38 12 -69 25 -69 29 0 20 210 87
278 88 l42 1 0 -108z m-385 -189 c77 -18 151 -48 234 -95 47 -27 52 -33 37
-43 -43 -32 -390 51 -486 115 -13 9 -11 13 9 31 28 23 80 21 206 -8z m-535
-39 c11 -13 8 -26 -21 -79 -19 -36 -38 -65 -43 -65 -19 0 -117 63 -113 74 3
10 142 85 158 86 4 0 12 -7 19 -16z m-320 -227 c22 -18 66 -49 100 -67 99 -57
92 -44 73 -135 -11 -53 -16 -129 -16 -225 -1 -193 22 -292 102 -453 32 -64 56
-119 52 -121 -23 -15 -144 -28 -218 -24 -150 8 -261 68 -338 184 -61 90 -80
158 -80 289 1 163 45 291 150 433 46 64 123 152 132 152 3 0 22 -15 43 -33z
m1437 -182 c207 -399 38 -859 -345 -940 -37 -8 -86 -15 -109 -15 -95 0 -283
57 -283 86 0 8 3 14 8 14 4 0 34 20 67 45 117 88 258 240 355 384 56 83 160
303 195 411 15 47 32 93 37 104 9 17 11 16 30 -10 10 -16 31 -51 45 -79z
m-307 49 c0 -3 -16 -44 -36 -92 -102 -248 -264 -463 -455 -604 -118 -87 -113
-86 -154 -31 -44 61 -92 175 -112 267 -17 81 -13 300 8 374 12 43 12 44 48 38
20 -3 93 -9 162 -12 142 -8 262 4 409 40 100 25 130 30 130 20z"/>
</g>
</svg>
