<?xml version="1.0" standalone="no"?>
<!DOCTYPE svg PUBLIC "-//W3C//DTD SVG 20010904//EN"
 "http://www.w3.org/TR/2001/REC-SVG-20010904/DTD/svg10.dtd">
<svg version="1.0" xmlns="http://www.w3.org/2000/svg"
 width="1280" height="720" viewBox="0 0 1280.000000 720.000000"
 preserveAspectRatio="xMidYMid meet">
<g transform="translate(0.000000,720.000000) scale(0.100000,-0.100000)"
fill="#5f9234" stroke="none">
<path d="M7930 5334 c-181 -35 -365 -168 -464 -338 l-38 -64 -76 34 c-143 66
-299 100 -480 107 l-82 3 -51 57 c-98 111 -197 157 -333 157 -351 0 -676 -384
-741 -876 -8 -60 -15 -127 -15 -148 l0 -40 -27 26 c-29 28 -118 76 -161 87
-22 6 -27 16 -40 77 -19 96 -83 255 -138 344 -222 361 -598 493 -929 328 -162
-82 -295 -248 -335 -418 -7 -30 -14 -61 -16 -67 -2 -8 -19 -13 -41 -13 -56 0
-94 -28 -126 -94 -27 -55 -67 -190 -67 -227 0 -22 -91 -103 -150 -134 -103
-53 -185 -70 -330 -69 -149 1 -285 26 -454 84 -109 37 -136 37 -175 4 -37 -31
-49 -80 -28 -121 17 -32 35 -43 122 -73 390 -134 727 -136 964 -4 24 13 47 24
51 24 4 0 11 -17 15 -37 4 -20 19 -64 34 -98 l28 -61 -76 -81 c-92 -99 -172
-224 -221 -346 -49 -123 -60 -173 -66 -292 -11 -214 47 -374 191 -522 70 -71
94 -88 175 -126 52 -25 122 -50 154 -56 123 -23 289 -8 433 40 l61 20 49 -34
c134 -96 281 -140 458 -139 264 1 477 116 615 331 25 39 47 70 50 70 4 1 12
-16 19 -36 22 -59 106 -196 170 -275 239 -296 609 -456 1006 -435 475 25 909
289 1172 712 175 281 263 654 234 993 -10 120 -38 287 -55 332 -4 10 16 32 64
68 177 135 320 334 381 532 33 104 34 264 2 365 -59 187 -199 332 -391 403
-56 20 -88 25 -192 28 -69 1 -136 0 -150 -2z m261 -224 c314 -106 380 -446
146 -747 -67 -85 -185 -199 -196 -188 -5 6 -31 52 -57 103 -84 161 -239 352
-376 465 -49 39 -88 79 -88 88 0 9 23 48 50 87 49 70 122 137 184 169 89 46
237 56 337 23z m-1696 -44 c19 -8 35 -17 35 -20 0 -2 -30 -14 -67 -27 -137
-44 -238 -111 -333 -216 -131 -147 -165 -359 -88 -549 l24 -61 -85 -106 c-47
-58 -89 -103 -93 -99 -15 15 -30 201 -24 301 18 278 99 483 256 643 106 108
181 148 278 148 34 0 78 -7 97 -14z m-1734 -134 c157 -44 292 -170 392 -367
25 -51 72 -193 66 -200 -2 -2 -45 -10 -94 -19 -153 -26 -346 -111 -461 -204
-58 -47 -63 -49 -174 -66 l-114 -18 -32 39 c-75 89 -144 276 -144 392 0 125
58 260 147 341 117 107 264 143 414 102z m2222 -77 c53 -8 132 -26 175 -40
102 -35 270 -124 358 -190 154 -118 320 -316 402 -480 51 -103 53 -97 -35
-137 -108 -48 -172 -72 -179 -65 -3 3 -10 39 -14 80 -23 205 -144 380 -329
475 -129 68 -196 84 -364 90 l-149 5 6 30 c3 16 6 78 6 138 0 81 3 109 13 109
6 0 56 -7 110 -15z m-333 -100 c0 -54 -7 -123 -16 -159 l-16 -63 -51 -18 c-64
-22 -203 -95 -279 -146 l-57 -39 -12 42 c-29 110 18 261 104 330 77 62 165
110 247 133 83 24 80 27 80 -80z m530 -404 c90 -31 197 -105 237 -165 43 -63
73 -163 73 -241 0 -74 9 -70 -160 -86 -196 -19 -418 4 -581 59 -97 33 -209 82
-209 91 1 3 29 42 65 85 53 66 156 225 167 257 6 18 94 28 218 25 97 -2 140
-8 190 -25z m-3150 -97 c0 -21 60 -153 96 -211 l33 -52 -35 -20 c-19 -12 -38
-21 -41 -21 -2 0 -18 -10 -35 -21 -36 -26 -40 -22 -64 59 -20 67 -15 200 10
255 16 36 36 42 36 11z m1230 -212 c0 -60 -3 -111 -6 -114 -3 -4 -43 13 -88
37 -46 24 -115 53 -155 66 -39 13 -71 26 -71 30 0 20 210 87 278 88 l42 1 0
-108z m-385 -189 c107 -27 285 -111 285 -135 0 -4 -28 -8 -62 -8 -103 1 -297
50 -403 103 -52 26 -51 24 -30 48 17 18 26 19 85 14 36 -4 92 -14 125 -22z
m1610 -55 c241 -120 474 -167 773 -154 119 5 152 4 152 -6 0 -7 -25 -47 -55
-90 -96 -135 -262 -248 -436 -295 -90 -25 -290 -24 -379 1 -139 40 -285 129
-389 235 -60 63 -131 153 -131 167 0 6 15 15 33 22 39 14 231 128 278 165 32
25 33 25 58 8 15 -10 58 -34 96 -53z m-2145 16 c11 -13 8 -26 -21 -79 -19 -36
-38 -65 -44 -65 -17 0 -115 64 -112 74 3 9 144 86 158 86 4 0 12 -7 19 -16z
m3698 -36 c36 -161 38 -363 8 -550 -24 -140 -32 -167 -99 -328 -113 -273 -331
-512 -584 -643 -431 -222 -887 -187 -1222 93 -145 122 -246 283 -304 485 -28
99 -35 349 -13 460 20 98 46 185 56 185 4 0 19 -17 33 -37 85 -120 283 -275
434 -341 139 -61 221 -76 393 -76 182 1 255 17 409 89 114 55 218 132 307 229
77 83 125 159 174 274 l36 84 140 47 c76 26 153 54 169 64 45 25 51 21 63 -35z
m-4010 -197 c26 -22 78 -56 115 -77 63 -34 68 -39 63 -63 -40 -181 -44 -351
-11 -505 22 -103 45 -164 100 -260 24 -43 42 -82 40 -86 -10 -16 -144 -33
-226 -28 -148 9 -258 70 -336 186 -54 81 -74 145 -80 257 -8 151 42 310 144
453 48 67 130 162 141 162 2 0 24 -18 50 -39z m1410 -141 c96 -161 133 -391
88 -560 -52 -197 -180 -341 -356 -400 -115 -38 -254 -34 -373 10 -97 37 -98
38 -13 99 88 62 237 214 317 321 97 129 194 323 254 508 16 48 32 81 39 79 6
-2 26 -28 44 -57z m-288 14 c0 -14 -76 -187 -108 -244 -101 -184 -249 -357
-397 -463 -88 -64 -106 -72 -117 -56 -69 110 -93 156 -115 224 -25 73 -27 94
-27 235 -1 100 4 174 13 208 l13 54 37 -6 c20 -3 93 -9 162 -12 142 -8 262 4
409 40 100 25 130 30 130 20z"/>
</g>
</svg>
