<?xml version="1.0" standalone="no"?>
<!DOCTYPE svg PUBLIC "-//W3C//DTD SVG 20010904//EN"
 "http://www.w3.org/TR/2001/REC-SVG-20010904/DTD/svg10.dtd">
<svg version="1.0" xmlns="http://www.w3.org/2000/svg"
 width="1280" height="720" viewBox="0 0 1280.000000 720.000000"
 preserveAspectRatio="xMidYMid meet">
<g transform="translate(0.000000,720.000000) scale(0.100000,-0.100000)"
fill="#5f9234" stroke="none">
<path d="M6240 5262 c-293 -107 -521 -443 -575 -848 -8 -60 -15 -127 -15 -148
l0 -40 -27 26 c-31 29 -143 88 -167 88 -9 0 -18 12 -22 28 -64 289 -191 508
-377 648 -128 96 -254 139 -412 138 -202 0 -371 -80 -498 -234 -50 -60 -112
-182 -127 -250 -7 -30 -14 -61 -16 -67 -2 -8 -19 -13 -39 -13 -52 0 -89 -23
-118 -72 -28 -49 -62 -151 -72 -221 -6 -41 -15 -54 -59 -93 -62 -55 -117 -84
-216 -115 -63 -20 -96 -24 -205 -24 -71 1 -157 6 -190 13 -117 25 -182 42
-270 72 -108 37 -135 37 -173 5 -37 -31 -48 -75 -32 -116 15 -35 36 -47 154
-88 275 -95 552 -119 759 -65 34 9 99 33 144 55 45 21 84 39 86 39 3 0 8 -17
12 -37 4 -20 19 -64 34 -98 l28 -61 -76 -81 c-92 -99 -172 -224 -221 -346 -49
-123 -60 -173 -66 -292 -11 -214 48 -376 192 -522 69 -71 94 -89 175 -127 52
-24 121 -49 153 -55 123 -23 289 -8 433 40 l61 20 49 -34 c134 -96 282 -141
458 -139 265 2 489 123 620 336 22 36 42 65 45 66 4 0 12 -17 19 -37 41 -111
181 -306 296 -408 101 -90 149 -122 270 -181 310 -150 674 -163 1026 -34 344
125 652 402 818 735 136 271 198 592 172 887 -10 117 -38 285 -55 328 -4 10
15 32 63 68 198 151 345 369 397 588 31 134 -2 339 -61 378 -47 31 -113 12
-141 -39 -16 -31 -17 -40 -5 -114 31 -190 -36 -363 -212 -547 -55 -58 -104
-103 -109 -102 -5 2 -33 47 -61 101 -92 171 -238 352 -383 473 -246 206 -537
321 -822 325 l-90 2 -51 58 c-100 113 -198 159 -339 158 -69 0 -103 -6 -162
-27z m249 -193 c18 -6 30 -16 28 -22 -2 -6 -32 -20 -68 -32 -236 -80 -413
-269 -442 -471 -13 -91 0 -205 35 -290 l24 -61 -85 -106 c-47 -58 -89 -103
-93 -99 -15 15 -30 201 -24 301 18 278 99 483 256 643 106 107 181 148 276
148 34 0 75 -5 93 -11z m-1727 -138 c37 -10 93 -33 124 -52 78 -47 180 -159
237 -259 45 -81 106 -245 94 -256 -3 -3 -38 -10 -79 -15 -143 -20 -336 -103
-467 -202 -71 -53 -75 -55 -184 -72 l-111 -17 -32 39 c-75 89 -144 276 -144
392 0 125 58 260 147 341 117 107 264 143 415 101z m2221 -76 c53 -8 132 -26
175 -40 102 -35 270 -124 358 -190 101 -77 250 -236 316 -335 53 -81 128 -220
128 -238 0 -16 -245 -120 -256 -109 -3 3 -10 39 -14 79 -25 214 -148 387 -345
484 -129 63 -221 84 -373 84 l-124 0 6 31 c3 17 6 80 6 140 0 81 3 109 13 109
6 0 56 -7 110 -15z m-333 -100 c0 -54 -7 -123 -16 -159 l-16 -63 -51 -18 c-64
-22 -203 -95 -279 -146 l-57 -39 -12 42 c-29 110 18 261 105 332 57 46 184
115 244 131 85 24 82 27 82 -80z m530 -404 c90 -31 197 -105 237 -165 43 -63
73 -163 73 -241 0 -74 9 -70 -160 -86 -196 -19 -418 4 -581 59 -89 30 -209 82
-209 89 0 3 28 40 63 84 53 66 158 228 169 260 6 18 94 28 218 25 97 -2 140
-8 190 -25z m-3150 -97 c0 -21 60 -153 96 -211 l33 -52 -35 -20 c-19 -12 -38
-21 -41 -21 -2 0 -18 -10 -35 -21 -36 -26 -40 -22 -64 59 -20 67 -15 200 10
255 16 36 36 42 36 11z m1230 -212 c0 -60 -3 -111 -6 -114 -3 -4 -43 13 -88
37 -46 24 -115 53 -155 66 -39 13 -71 26 -71 30 0 21 206 87 278 88 l42 1 0
-108z m-385 -189 c107 -27 285 -111 285 -135 0 -16 -128 -7 -231 16 -94 22
-226 68 -269 95 -12 8 -11 13 5 31 17 19 26 20 85 15 36 -4 92 -14 125 -22z
m1610 -55 c241 -120 474 -167 773 -154 83 3 152 3 152 -2 0 -11 -56 -98 -93
-145 -75 -96 -251 -204 -398 -244 -90 -25 -290 -24 -379 1 -139 40 -285 129
-389 235 -60 63 -131 153 -131 167 0 6 15 15 33 22 39 14 231 128 278 165 32
25 33 25 58 8 15 -10 58 -34 96 -53z m-2145 16 c11 -13 8 -26 -21 -79 -19 -36
-38 -65 -44 -65 -17 0 -115 64 -112 74 3 9 144 86 158 86 4 0 12 -7 19 -16z
m3699 -36 c50 -219 31 -546 -44 -758 -96 -272 -235 -473 -443 -641 -273 -219
-687 -319 -994 -240 -386 100 -654 374 -733 752 -20 93 -20 315 0 411 21 100
44 178 53 178 4 -1 20 -17 35 -38 95 -126 284 -275 434 -340 139 -61 221 -76
393 -76 184 1 257 17 414 92 222 107 410 310 488 528 14 40 28 64 38 64 23 0
244 77 287 99 21 11 43 20 49 21 6 0 16 -23 23 -52z m-4011 -197 c26 -22 78
-56 115 -77 63 -34 68 -39 63 -63 -40 -181 -44 -348 -11 -505 21 -103 45 -163
100 -260 24 -43 42 -82 40 -86 -10 -16 -144 -33 -226 -28 -148 9 -258 70 -336
186 -54 80 -74 144 -80 254 -11 190 68 384 232 566 26 28 49 52 52 52 2 0 25
-18 51 -39z m1410 -141 c97 -162 133 -390 88 -560 -39 -149 -136 -287 -249
-353 -102 -60 -245 -87 -357 -67 -107 19 -222 64 -204 79 5 4 41 30 80 59 83
61 227 207 305 312 97 129 194 323 254 508 16 48 32 81 39 79 6 -2 26 -28 44
-57z m-288 14 c0 -13 -67 -165 -103 -233 -97 -185 -250 -364 -402 -474 -103
-74 -100 -74 -136 -25 -44 61 -73 122 -101 208 -20 65 -23 95 -23 225 0 93 5
170 14 203 l13 54 37 -6 c20 -3 93 -9 162 -12 142 -8 262 4 409 40 100 25 130
30 130 20z"/>
</g>
</svg>
