<?xml version="1.0" standalone="no"?>
<!DOCTYPE svg PUBLIC "-//W3C//DTD SVG 20010904//EN"
 "http://www.w3.org/TR/2001/REC-SVG-20010904/DTD/svg10.dtd">
<svg version="1.0" xmlns="http://www.w3.org/2000/svg"
 width="1280" height="720" viewBox="0 0 1280.000000 720.000000"
 preserveAspectRatio="xMidYMid meet">
<g transform="translate(0.000000,720.000000) scale(0.100000,-0.100000)"
fill="#5f9234" stroke="none">
<path d="M7935 5334 c-126 -30 -176 -52 -272 -120 -70 -50 -160 -151 -205
-230 -16 -30 -32 -54 -34 -54 -2 0 -18 8 -36 18 -54 30 -158 68 -249 91 -94
23 -278 44 -315 35 -18 -5 -33 6 -81 56 -110 117 -200 160 -339 160 -223 0
-430 -146 -587 -414 -88 -151 -138 -317 -159 -523 l-12 -123 -25 24 c-15 14
-55 39 -91 56 -36 17 -71 34 -79 38 -7 4 -23 48 -36 97 -112 442 -444 735
-806 711 -303 -20 -532 -224 -603 -538 -6 -25 -11 -28 -47 -28 -54 0 -89 -26
-122 -92 -26 -51 -67 -192 -67 -229 0 -22 -91 -103 -150 -134 -101 -52 -186
-70 -325 -70 -71 1 -157 6 -190 13 -117 25 -182 42 -270 72 -108 37 -135 37
-173 5 -38 -32 -48 -72 -29 -116 16 -38 31 -48 137 -84 377 -130 715 -129 949
1 54 30 61 30 61 2 0 -13 15 -57 33 -99 l33 -75 -75 -81 c-92 -99 -172 -224
-221 -346 -49 -123 -60 -173 -66 -292 -11 -215 48 -377 191 -522 69 -70 95
-89 176 -127 176 -83 369 -88 586 -15 l61 20 49 -34 c134 -96 282 -141 458
-139 265 2 478 116 615 331 43 67 60 84 60 60 0 -21 71 -152 124 -229 61 -90
199 -230 289 -294 263 -187 643 -259 984 -185 286 62 519 188 726 393 187 184
305 375 387 624 22 68 40 130 40 140 0 38 12 41 90 20 109 -30 344 -29 452 0
180 49 282 105 393 218 91 91 135 159 173 266 22 62 26 90 26 183 0 93 -4 121
-26 183 -58 161 -202 285 -384 328 -77 18 -222 23 -332 11 l-73 -8 45 88 c70
141 90 219 90 348 0 85 -4 126 -21 180 -60 190 -204 336 -399 406 -45 16 -89
22 -184 25 -69 1 -134 1 -145 -2z m309 -247 c94 -45 158 -107 199 -195 28 -60
31 -76 31 -162 0 -121 -32 -214 -117 -340 -32 -47 -195 -220 -208 -220 -4 0
-31 44 -59 98 -29 53 -73 126 -98 161 -73 103 -206 252 -273 306 -34 28 -73
59 -86 70 l-24 20 41 64 c23 36 66 89 96 118 96 94 180 124 326 119 86 -3 104
-7 172 -39z m-1749 -21 c19 -8 35 -17 35 -20 0 -2 -30 -14 -67 -27 -136 -44
-239 -111 -331 -214 -96 -108 -139 -233 -128 -377 5 -76 13 -107 59 -229 4
-11 -168 -218 -175 -211 -15 15 -30 201 -24 301 18 278 99 481 256 642 106
109 181 149 278 149 34 0 78 -7 97 -14z m-1745 -132 c156 -35 301 -168 403
-369 25 -51 72 -193 66 -200 -2 -2 -45 -10 -94 -19 -152 -26 -325 -102 -454
-199 -71 -53 -75 -55 -184 -72 l-111 -17 -28 34 c-75 89 -137 244 -145 363
-13 190 88 372 252 449 100 48 181 56 295 30z m2233 -79 c109 -16 218 -50 308
-96 53 -26 60 -33 55 -52 -4 -12 -13 -55 -22 -96 -8 -41 -16 -76 -18 -79 -3
-2 -13 1 -24 7 -54 29 -190 51 -311 51 l-123 0 6 31 c3 17 6 80 6 140 0 81 3
109 13 109 6 0 56 -7 110 -15z m-335 -100 c2 -58 -3 -113 -13 -156 l-16 -66
-52 -18 c-67 -23 -204 -95 -278 -145 l-58 -39 -11 35 c-19 56 -8 160 22 226
47 102 162 188 318 239 84 28 85 27 88 -76z m994 -242 c108 -105 196 -220 259
-340 72 -136 76 -123 -43 -175 -57 -25 -115 -48 -130 -51 -26 -7 -27 -6 -33
50 -15 132 -77 281 -152 364 l-35 39 12 100 c7 55 16 100 21 100 6 0 51 -39
101 -87z m-462 -162 c36 -12 79 -32 97 -44 28 -19 32 -28 38 -87 8 -77 44
-204 80 -286 17 -37 22 -61 16 -67 -6 -6 -90 -10 -198 -11 -207 0 -330 16
-460 59 -67 23 -201 79 -211 90 -2 2 25 40 60 84 54 67 159 230 170 262 6 18
94 28 218 25 98 -2 139 -8 190 -25z m-3150 -100 c0 -10 27 -71 60 -137 33 -65
60 -121 60 -124 0 -3 -17 -14 -37 -25 -21 -10 -51 -28 -67 -38 -34 -24 -38
-19 -62 61 -20 67 -15 200 10 255 17 38 36 42 36 8z m1230 -209 c0 -60 -2
-111 -5 -114 -3 -3 -44 14 -91 38 -47 24 -116 53 -155 66 -38 12 -69 25 -69
29 0 20 210 87 278 88 l42 1 0 -108z m3671 28 c103 -35 156 -77 197 -155 22
-42 26 -63 27 -136 0 -81 -2 -90 -42 -170 -60 -121 -130 -186 -266 -249 -111
-52 -175 -63 -332 -57 -121 5 -211 19 -229 38 -3 3 -8 77 -11 165 -4 138 -31
345 -51 398 -10 27 187 118 350 161 122 32 270 34 357 5z m-4144 -200 c40 -5
108 -21 150 -35 79 -27 223 -102 223 -117 0 -15 -116 -8 -212 11 -93 20 -193
53 -259 86 -45 23 -45 22 -24 45 21 23 23 23 122 10z m1737 -91 c111 -52 264
-100 386 -121 46 -8 158 -13 288 -13 116 0 212 -3 212 -8 0 -31 -116 -173
-188 -230 -86 -68 -130 -93 -222 -127 -111 -40 -198 -54 -309 -47 -201 12
-390 102 -540 256 -61 63 -131 153 -130 167 0 5 39 28 87 52 48 23 125 69 172
101 l85 58 28 -19 c15 -11 74 -42 131 -69z m-2184 35 c11 -13 8 -26 -21 -79
-19 -36 -38 -65 -44 -65 -17 0 -115 64 -112 74 3 9 144 86 158 86 4 0 12 -7
19 -16z m3704 -57 c10 -40 26 -200 26 -260 l0 -59 -31 20 c-54 34 -170 132
-176 149 -5 12 17 38 78 95 46 43 87 78 90 78 4 0 9 -10 13 -23z m-4016 -176
c26 -22 78 -56 115 -77 63 -34 68 -39 63 -63 -37 -167 -44 -309 -21 -446 21
-131 40 -188 101 -302 29 -56 50 -104 46 -106 -24 -16 -144 -29 -219 -25 -152
9 -261 68 -340 186 -53 78 -73 143 -80 253 -12 189 68 384 232 567 26 28 49
52 52 52 2 0 25 -18 51 -39z m1409 -140 c83 -138 125 -335 103 -483 -50 -343
-318 -552 -635 -495 -87 16 -204 63 -189 75 5 5 41 31 80 60 83 61 227 207
305 312 97 129 194 323 254 508 16 48 32 81 39 79 6 -2 25 -27 43 -56z m482
-7 c41 -54 149 -160 211 -206 109 -81 237 -143 372 -180 118 -32 344 -32 468
0 101 26 248 95 325 152 31 23 58 40 60 38 2 -1 -6 -37 -16 -78 -36 -139 -40
-190 -18 -237 17 -36 26 -42 59 -48 49 -8 93 1 113 23 9 10 21 49 27 87 14 91
46 197 77 260 36 70 104 184 114 191 5 3 39 -21 77 -52 37 -32 101 -79 142
-105 127 -82 116 -64 95 -150 -31 -126 -93 -283 -153 -384 -158 -267 -405
-467 -699 -569 -608 -210 -1222 116 -1348 715 -20 93 -20 315 0 411 21 100 44
178 53 178 4 0 22 -21 41 -46z m-769 20 c0 -3 -16 -44 -36 -92 -101 -246 -265
-464 -454 -604 -118 -87 -114 -86 -151 -36 -44 61 -73 122 -101 208 -20 65
-23 95 -23 225 0 94 5 170 14 203 l13 54 37 -6 c20 -3 97 -9 171 -12 146 -7
289 8 425 46 72 19 105 24 105 14z"/>
</g>
</svg>
