<?xml version="1.0" standalone="no"?>
<!DOCTYPE svg PUBLIC "-//W3C//DTD SVG 20010904//EN"
 "http://www.w3.org/TR/2001/REC-SVG-20010904/DTD/svg10.dtd">
<svg version="1.0" xmlns="http://www.w3.org/2000/svg"
 width="1280" height="720" viewBox="0 0 1280.000000 720.000000"
 preserveAspectRatio="xMidYMid meet">
<g transform="translate(0.000000,720.000000) scale(0.100000,-0.100000)"
fill="#5f9234" stroke="none">
<path d="M6247 5265 c-294 -101 -528 -444 -582 -851 -8 -60 -15 -127 -15 -148
l0 -40 -27 26 c-31 29 -143 88 -167 88 -9 0 -18 12 -22 28 -79 359 -260 614
-519 732 -265 121 -582 47 -768 -180 -50 -60 -112 -182 -127 -250 -7 -30 -14
-61 -16 -67 -2 -8 -19 -13 -39 -13 -52 0 -89 -23 -118 -72 -28 -49 -61 -150
-71 -220 -6 -41 -14 -54 -59 -93 -63 -56 -118 -85 -217 -116 -63 -20 -96 -24
-205 -23 -157 0 -278 22 -460 84 -108 36 -135 37 -173 5 -58 -49 -50 -131 16
-164 38 -19 154 -58 252 -85 203 -55 446 -63 612 -20 35 9 100 33 145 55 45
21 84 39 87 39 2 0 7 -17 11 -37 4 -21 19 -65 34 -98 l28 -60 -69 -73 c-123
-131 -232 -322 -273 -482 -9 -35 -19 -108 -21 -164 -11 -216 48 -377 191 -523
69 -70 95 -89 176 -127 178 -83 364 -88 587 -15 l62 21 38 -30 c70 -55 196
-110 307 -133 82 -17 245 -14 330 6 192 45 340 149 445 314 25 39 47 70 50 70
4 1 12 -16 19 -36 41 -111 181 -306 296 -408 101 -90 149 -122 270 -181 310
-150 674 -163 1026 -34 373 135 697 443 855 812 94 220 137 425 138 663 1 180
-9 270 -51 445 -91 385 -360 759 -688 959 -215 132 -411 193 -654 206 l-94 4
-49 56 c-99 110 -197 155 -336 154 -64 0 -105 -6 -155 -24z m248 -199 c19 -8
35 -17 35 -20 0 -2 -30 -14 -67 -27 -234 -76 -412 -253 -454 -450 -15 -68 -6
-207 17 -254 12 -26 26 -38 55 -47 21 -6 39 -15 39 -20 0 -5 -15 -22 -33 -37
-18 -16 -68 -74 -112 -130 -44 -55 -83 -97 -87 -93 -15 15 -30 200 -24 301 12
190 45 311 125 465 73 141 207 272 319 312 50 18 145 17 187 0z m-1734 -134
c36 -10 92 -33 123 -52 128 -77 259 -256 313 -428 14 -45 24 -84 22 -86 -2 -2
-45 -11 -94 -20 -152 -26 -325 -102 -454 -199 -71 -53 -75 -55 -184 -72 l-111
-17 -32 39 c-77 90 -144 276 -144 398 0 121 59 255 148 336 118 108 256 142
413 101z m2241 -82 c130 -22 193 -42 298 -95 241 -121 443 -309 579 -541 70
-120 138 -310 168 -472 26 -146 24 -392 -6 -541 -83 -418 -333 -766 -677 -943
-196 -101 -359 -142 -569 -142 -157 -1 -246 15 -374 67 -318 128 -532 386
-600 725 -16 79 -14 304 4 392 19 93 45 180 55 180 4 0 19 -17 33 -37 85 -120
281 -274 434 -341 137 -60 221 -77 388 -76 178 0 264 19 412 89 124 58 203
116 293 212 154 164 238 351 256 566 20 247 -115 492 -331 604 -143 74 -224
93 -397 93 l-121 0 7 38 c3 20 6 83 6 140 0 81 3 102 14 102 8 0 65 -9 128
-20z m-354 -95 c2 -58 -3 -113 -13 -156 l-16 -66 -52 -18 c-77 -27 -183 -82
-264 -136 l-72 -49 -12 42 c-28 107 12 241 99 324 69 67 257 157 312 151 12
-2 16 -21 18 -92z m534 -403 c67 -24 149 -75 200 -125 195 -189 114 -602 -161
-821 -127 -102 -281 -163 -436 -173 -232 -15 -446 70 -622 245 -67 67 -143
162 -143 178 0 6 15 15 33 22 55 20 241 136 334 208 49 37 119 100 156 139 67
69 179 225 213 297 14 31 24 39 53 44 20 3 43 7 51 9 8 2 71 2 140 1 93 -3
139 -9 182 -24z m-3152 -98 c0 -21 60 -153 96 -211 l33 -52 -35 -20 c-19 -12
-38 -21 -41 -21 -2 0 -18 -10 -35 -21 -36 -26 -40 -22 -64 59 -20 67 -15 200
10 255 16 36 36 42 36 11z m1230 -212 c0 -60 -3 -111 -6 -114 -3 -4 -43 13
-88 37 -46 24 -115 53 -155 66 -39 13 -71 26 -71 30 0 20 210 87 278 88 l42 1
0 -108z m-367 -194 c87 -23 258 -105 265 -127 7 -22 -163 -7 -275 23 -78 22
-216 76 -232 91 -2 3 4 14 14 26 17 18 27 19 85 14 36 -4 100 -16 143 -27z
m-553 -34 c11 -13 8 -26 -21 -79 -19 -36 -38 -65 -44 -65 -17 0 -115 64 -112
74 3 8 145 85 158 86 4 0 12 -7 19 -16z m-312 -233 c26 -22 78 -56 115 -76 58
-32 68 -41 63 -59 -21 -77 -38 -251 -33 -336 10 -176 44 -298 122 -434 24 -43
42 -82 40 -86 -10 -16 -144 -33 -226 -28 -148 9 -258 70 -336 187 -61 89 -78
153 -78 286 0 162 45 291 150 433 46 63 123 152 132 152 2 0 25 -18 51 -39z
m1410 -141 c72 -121 106 -249 106 -400 -1 -98 -5 -127 -28 -195 -66 -192 -174
-306 -351 -367 -91 -32 -235 -30 -340 5 -128 42 -129 43 -41 106 88 62 237
214 317 321 97 129 194 323 254 508 16 48 32 81 39 79 6 -2 26 -28 44 -57z
m-288 15 c0 -14 -77 -189 -108 -245 -101 -184 -248 -355 -397 -463 -102 -74
-100 -74 -136 -25 -44 61 -73 122 -101 208 -20 65 -23 95 -23 225 0 94 5 170
14 203 l13 54 37 -6 c20 -3 96 -9 169 -12 146 -8 248 3 402 41 98 24 130 29
130 20z"/>
</g>
</svg>
