<?xml version="1.0" standalone="no"?>
<!DOCTYPE svg PUBLIC "-//W3C//DTD SVG 20010904//EN"
 "http://www.w3.org/TR/2001/REC-SVG-20010904/DTD/svg10.dtd">
<svg version="1.0" xmlns="http://www.w3.org/2000/svg"
 width="1280" height="720" viewBox="0 0 1280.000000 720.000000"
 preserveAspectRatio="xMidYMid meet">
<g transform="translate(0.000000,720.000000) scale(0.100000,-0.100000)"
fill="#5f9234" stroke="none">
<path d="M6247 5265 c-294 -101 -528 -444 -582 -851 -8 -60 -15 -127 -15 -148
l0 -40 -27 26 c-31 29 -143 88 -167 88 -9 0 -18 12 -22 28 -79 359 -260 614
-519 732 -265 121 -582 47 -768 -180 -50 -60 -112 -182 -127 -250 -7 -30 -14
-61 -16 -67 -2 -8 -19 -13 -39 -13 -52 0 -89 -23 -118 -72 -28 -49 -61 -150
-71 -220 -6 -41 -14 -54 -59 -93 -63 -56 -118 -85 -217 -116 -63 -20 -96 -24
-205 -23 -157 0 -278 22 -460 84 -108 36 -135 37 -173 5 -58 -49 -50 -131 16
-164 38 -19 154 -58 252 -85 203 -55 446 -63 612 -20 35 9 100 33 145 55 45
21 84 39 87 39 2 0 7 -17 11 -37 4 -21 19 -65 34 -98 l28 -60 -69 -73 c-123
-131 -232 -322 -273 -482 -9 -35 -19 -108 -21 -164 -11 -216 48 -377 191 -523
70 -71 95 -89 176 -127 52 -24 121 -49 153 -55 124 -23 289 -8 433 40 l63 21
38 -30 c70 -55 196 -110 307 -133 82 -17 245 -14 329 5 191 45 341 150 446
315 25 39 47 70 50 70 4 1 12 -16 19 -36 41 -111 181 -306 296 -408 101 -90
149 -122 270 -181 624 -303 1425 -26 1803 623 85 145 161 359 197 553 23 119
26 398 7 520 -68 426 -257 775 -558 1026 -243 204 -500 306 -824 330 l-95 7
-48 53 c-98 109 -197 154 -335 153 -64 0 -105 -6 -155 -24z m248 -199 c19 -8
35 -17 35 -20 0 -2 -30 -14 -67 -27 -234 -76 -412 -253 -454 -450 -22 -102 -6
-210 54 -370 4 -11 -168 -218 -175 -211 -15 15 -30 201 -24 297 11 188 45 315
125 469 73 141 207 272 319 312 50 18 145 17 187 0z m-1734 -134 c36 -10 92
-33 123 -52 128 -77 259 -256 313 -428 14 -45 24 -84 22 -86 -2 -2 -45 -11
-94 -20 -152 -26 -325 -102 -454 -199 -71 -53 -75 -55 -184 -72 l-111 -17 -32
39 c-77 90 -144 276 -144 398 0 121 59 255 148 336 118 108 256 142 413 101z
m2284 -88 c209 -43 423 -162 598 -333 185 -180 277 -333 362 -599 65 -201 80
-494 36 -711 -83 -418 -333 -766 -677 -943 -195 -101 -362 -142 -569 -143
-157 0 -246 16 -374 68 -318 128 -532 386 -600 725 -16 79 -14 304 4 392 19
93 45 180 55 180 4 0 19 -17 33 -37 85 -120 281 -274 434 -341 137 -60 221
-77 388 -76 178 0 264 19 412 89 315 149 521 442 549 778 20 247 -115 492
-331 604 -143 74 -224 93 -397 93 l-121 0 7 38 c3 20 6 83 6 140 l0 103 58 -6
c31 -4 89 -14 127 -21z m-397 -89 c2 -58 -3 -113 -13 -156 l-16 -66 -52 -18
c-76 -27 -161 -70 -254 -131 l-82 -53 -12 42 c-28 106 12 240 99 323 69 67
257 157 312 151 12 -2 16 -21 18 -92z m534 -403 c67 -24 149 -75 200 -125 195
-189 114 -602 -161 -821 -127 -102 -281 -163 -436 -173 -232 -15 -446 70 -622
245 -67 67 -143 162 -143 178 0 6 15 15 33 22 36 13 189 102 267 156 l52 36
28 -24 c16 -13 49 -33 74 -46 55 -26 92 -21 136 20 25 23 30 36 30 74 0 38 -5
52 -27 72 -14 13 -37 27 -50 30 -13 4 -23 10 -23 15 0 4 21 32 47 61 50 56
140 190 169 250 14 31 24 39 53 44 20 3 41 7 46 10 6 2 69 2 140 0 98 -3 144
-9 187 -24z m-3152 -98 c0 -21 60 -153 97 -211 l33 -53 -43 -21 c-23 -12 -55
-31 -71 -42 -33 -24 -38 -19 -62 61 -20 67 -15 200 10 255 16 36 36 42 36 11z
m1230 -212 c0 -60 -3 -111 -6 -114 -3 -4 -43 13 -88 37 -46 24 -115 53 -155
66 -39 13 -71 26 -71 30 0 20 212 87 278 88 l42 1 0 -108z m-367 -194 c87 -23
258 -105 265 -127 7 -22 -163 -7 -275 23 -78 22 -216 76 -232 91 -2 3 4 14 14
26 17 18 27 19 85 14 36 -4 100 -16 143 -27z m-553 -34 c11 -13 8 -26 -21 -79
-19 -36 -38 -65 -44 -65 -17 0 -115 64 -112 74 3 9 144 86 158 86 4 0 12 -7
19 -16z m-312 -233 c26 -22 78 -56 115 -76 58 -32 68 -41 63 -59 -21 -77 -38
-251 -33 -336 10 -176 44 -298 122 -434 24 -43 42 -82 40 -86 -10 -16 -144
-33 -226 -28 -148 9 -258 70 -336 186 -150 224 -92 548 147 815 28 31 54 57
57 57 2 0 25 -18 51 -39z m1410 -141 c72 -121 106 -249 106 -400 -1 -98 -5
-127 -28 -195 -66 -192 -174 -306 -351 -367 -91 -32 -235 -30 -340 5 -128 42
-129 43 -41 106 88 62 237 214 317 321 97 129 194 323 254 508 16 48 32 81 39
79 6 -2 26 -28 44 -57z m-288 15 c0 -14 -77 -189 -108 -245 -102 -185 -237
-344 -387 -455 -112 -83 -109 -83 -146 -33 -44 61 -73 122 -101 208 -20 65
-23 95 -23 225 0 94 5 170 14 203 l13 54 37 -6 c20 -3 96 -9 169 -12 146 -8
248 3 402 41 98 24 130 29 130 20z"/>
</g>
</svg>
