<?xml version="1.0" standalone="no"?>
<!DOCTYPE svg PUBLIC "-//W3C//DTD SVG 20010904//EN"
 "http://www.w3.org/TR/2001/REC-SVG-20010904/DTD/svg10.dtd">
<svg version="1.0" xmlns="http://www.w3.org/2000/svg"
 width="1280" height="720" viewBox="0 0 1280.000000 720.000000"
 preserveAspectRatio="xMidYMid meet">
<g transform="translate(0.000000,720.000000) scale(0.100000,-0.100000)"
fill="#5f9234" stroke="none">
<path d="M2673 4168 c-12 -6 -29 -26 -38 -44 -20 -42 -6 -104 28 -126 23 -15
128 -51 252 -86 222 -64 466 -72 627 -22 56 17 71 26 84 52 19 36 13 77 -16
118 -26 37 -62 44 -130 25 -152 -42 -344 -26 -582 47 -147 46 -192 53 -225 36z"/>
</g>
</svg>
