<?xml version="1.0" standalone="no"?>
<!DOCTYPE svg PUBLIC "-//W3C//DTD SVG 20010904//EN"
 "http://www.w3.org/TR/2001/REC-SVG-20010904/DTD/svg10.dtd">
<svg version="1.0" xmlns="http://www.w3.org/2000/svg"
 width="1280" height="720" viewBox="0 0 1280.000000 720.000000"
 preserveAspectRatio="xMidYMid meet">
<g transform="translate(0.000000,720.000000) scale(0.100000,-0.100000)"
fill="#5f9234" stroke="none">
<path d="M7920 5330 c-119 -22 -274 -111 -356 -204 -39 -44 -92 -118 -129
-180 -9 -15 -16 -14 -71 13 -135 67 -309 108 -477 115 l-98 4 -51 56 c-98 110
-196 156 -334 156 -101 0 -177 -22 -279 -83 -179 -106 -349 -346 -419 -592
-25 -88 -56 -283 -56 -354 l0 -35 -27 26 c-16 15 -57 41 -93 58 -36 17 -71 34
-79 38 -7 4 -23 48 -36 97 -76 299 -260 543 -491 650 -106 50 -148 59 -274 59
-130 1 -211 -19 -313 -76 -157 -89 -280 -247 -317 -408 -7 -30 -14 -61 -16
-67 -2 -8 -20 -13 -45 -13 -54 0 -89 -26 -122 -92 -26 -51 -67 -192 -67 -229
0 -22 -91 -103 -150 -134 -99 -51 -186 -69 -325 -69 -71 0 -157 5 -190 12
-118 25 -182 42 -270 72 -111 38 -136 38 -177 1 -26 -23 -33 -37 -33 -68 0
-68 21 -86 142 -126 198 -65 277 -82 439 -96 179 -15 337 11 481 80 45 21 84
39 86 39 3 0 8 -17 12 -37 4 -20 19 -65 35 -99 l28 -62 -50 -48 c-150 -147
-281 -393 -308 -582 -35 -246 25 -444 185 -608 70 -72 94 -89 175 -127 52 -25
122 -50 154 -56 123 -23 289 -8 433 40 l61 20 49 -34 c150 -107 341 -156 529
-137 107 11 176 31 269 77 116 57 199 133 276 253 43 67 59 83 59 58 0 -22 68
-147 123 -227 62 -91 200 -231 290 -295 89 -64 253 -140 365 -170 373 -100
796 -25 1132 199 l79 54 98 -48 c158 -77 199 -86 408 -85 167 0 186 2 269 27
442 136 692 469 611 813 -17 75 -57 166 -90 210 -31 41 -31 48 2 63 62 28 169
109 222 168 72 80 113 148 147 243 23 64 27 91 27 185 1 93 -3 121 -25 182
-29 82 -81 158 -141 207 -62 50 -164 102 -237 121 -72 19 -226 24 -337 12
l-73 -8 44 88 c71 141 90 218 89 353 -1 135 -19 203 -83 310 -75 127 -189 219
-336 271 -66 24 -263 35 -344 19z m246 -214 c228 -60 354 -269 299 -491 -19
-75 -59 -164 -107 -232 -34 -50 -196 -223 -209 -223 -4 0 -29 40 -54 89 -83
160 -254 376 -377 476 -33 28 -72 59 -85 70 l-24 20 41 63 c75 118 175 199
278 227 63 18 175 18 238 1z m-1671 -50 c19 -8 35 -17 35 -20 0 -2 -30 -14
-67 -27 -92 -30 -157 -63 -225 -115 -222 -171 -293 -410 -195 -653 l23 -58
-82 -102 c-46 -56 -87 -102 -91 -102 -17 0 -34 167 -29 282 9 198 42 323 125
484 61 119 186 249 281 294 74 35 165 42 225 17z m-1734 -134 c36 -10 92 -33
123 -52 128 -77 259 -256 313 -428 14 -45 24 -84 22 -86 -2 -2 -45 -11 -94
-20 -152 -26 -325 -102 -454 -199 -71 -53 -75 -55 -182 -71 -60 -9 -113 -14
-118 -11 -25 15 -106 154 -132 227 -74 203 -33 409 108 538 117 107 259 142
414 102z m2326 -98 c51 -12 131 -41 179 -63 78 -37 86 -43 80 -63 -4 -13 -13
-56 -22 -97 -8 -41 -16 -76 -18 -79 -3 -2 -13 1 -24 7 -54 29 -190 51 -311 51
l-123 0 6 31 c3 17 6 81 6 141 l0 110 68 -7 c37 -4 108 -18 159 -31z m-437
-79 c0 -54 -7 -123 -16 -159 l-16 -63 -51 -18 c-64 -22 -203 -95 -279 -146
l-57 -39 -11 36 c-7 22 -11 67 -8 108 11 162 132 287 348 357 93 30 90 33 90
-76z m992 -242 c110 -107 200 -225 260 -341 67 -128 67 -124 6 -152 -85 -37
-200 -81 -204 -77 -2 2 -8 37 -14 78 -16 128 -62 235 -142 332 l-40 48 12 100
c7 54 17 99 22 99 6 0 51 -39 100 -87z m-462 -162 c36 -13 79 -32 96 -43 28
-19 31 -28 43 -106 11 -81 50 -214 85 -294 19 -45 21 -44 -120 -53 -135 -9
-335 9 -459 40 -76 19 -266 92 -282 109 -3 3 24 41 59 85 54 67 159 230 170
262 12 35 304 35 408 0z m-3150 -98 c0 -20 82 -194 110 -232 l20 -29 -72 -42
c-80 -46 -79 -47 -104 38 -20 67 -15 200 10 255 16 37 36 42 36 10z m1230
-211 c0 -60 -2 -111 -5 -114 -3 -3 -44 14 -91 38 -47 24 -116 53 -155 66 -38
12 -69 25 -69 29 0 20 210 87 278 88 l42 1 0 -108z m3671 28 c156 -53 221
-136 223 -285 2 -167 -98 -317 -271 -407 -103 -54 -107 -54 -155 -15 -93 75
-281 170 -394 199 -58 15 -64 21 -64 70 0 29 -29 220 -42 279 -6 24 196 114
343 153 125 33 272 35 360 6z m-4056 -217 c105 -25 285 -111 285 -137 0 -14
-176 1 -262 23 -72 19 -203 69 -238 90 -12 8 -11 13 5 31 17 19 26 21 80 15
33 -3 92 -13 130 -22z m1610 -55 c242 -121 477 -167 778 -154 81 3 147 3 147
-2 0 -4 -10 -25 -23 -47 -24 -42 -31 -47 -152 -97 -140 -57 -221 -111 -314
-207 l-55 -56 -125 0 c-147 0 -224 17 -344 76 -80 40 -115 63 -201 134 -51 42
-177 192 -175 210 0 5 39 29 87 53 48 23 125 69 172 101 84 57 85 58 110 41
14 -10 57 -33 95 -52z m-2140 15 c7 -19 -53 -143 -70 -143 -18 0 -115 64 -112
75 4 11 145 85 163 85 7 0 15 -8 19 -17z m3699 -48 c3 -8 8 -45 12 -81 l7 -66
-92 4 c-51 1 -95 6 -97 10 -4 6 146 148 157 148 4 0 9 -7 13 -15z m-4043 -161
c17 -21 112 -85 167 -113 37 -19 43 -26 38 -44 -20 -71 -38 -251 -33 -337 10
-176 44 -298 122 -434 25 -44 42 -83 38 -87 -15 -14 -115 -29 -191 -29 -215 0
-377 123 -434 329 -46 167 2 388 121 558 53 75 138 173 151 173 4 0 14 -7 21
-16z m1436 -163 c47 -79 91 -209 104 -310 33 -260 -88 -514 -297 -619 -83 -43
-136 -55 -234 -56 -93 0 -167 14 -249 50 l-54 24 69 51 c128 96 274 251 371
394 63 92 148 269 194 404 24 70 46 120 53 118 6 -2 25 -27 43 -56z m481 -5
c88 -117 241 -241 388 -314 116 -58 284 -102 389 -102 l51 0 0 -82 c-1 -156
67 -268 229 -379 95 -65 276 -119 399 -119 54 0 55 -1 91 -51 44 -59 50 -51
-98 -129 -314 -165 -662 -194 -947 -77 -313 128 -527 383 -596 710 -19 91 -18
315 1 409 21 100 44 178 53 178 4 0 22 -20 40 -44z m-768 18 c0 -3 -16 -44
-36 -92 -101 -247 -263 -461 -454 -603 -101 -75 -120 -85 -132 -68 -69 110
-93 156 -115 224 -24 72 -27 95 -27 235 -1 101 4 174 13 208 l13 54 37 -6 c20
-3 97 -9 171 -12 146 -7 289 8 425 46 72 19 105 24 105 14z m2678 -103 c40
-32 102 -75 138 -96 37 -22 68 -44 71 -51 13 -33 -80 -308 -143 -423 -62 -113
-202 -291 -230 -291 -7 0 -26 19 -42 43 -84 125 -121 279 -103 433 17 142 97
358 158 427 30 33 72 21 151 -42z m-468 -114 c0 -2 -6 -26 -14 -53 -25 -85
-46 -214 -46 -283 0 -64 15 -187 26 -223 8 -25 -23 -23 -120 7 -148 46 -256
147 -256 241 0 24 7 61 16 83 14 35 23 42 67 57 73 24 192 85 257 132 50 37
70 48 70 39z m989 -134 c52 -11 123 -16 224 -16 l149 0 40 -51 c72 -90 92
-147 93 -256 0 -87 -3 -101 -32 -161 -67 -137 -250 -269 -443 -320 -162 -42
-361 -32 -485 25 l-55 25 64 79 c91 113 143 193 198 302 42 83 115 288 133
373 4 21 10 27 22 23 8 -4 50 -14 92 -23z"/>
</g>
</svg>
