<?xml version="1.0" standalone="no"?>
<!DOCTYPE svg PUBLIC "-//W3C//DTD SVG 20010904//EN"
 "http://www.w3.org/TR/2001/REC-SVG-20010904/DTD/svg10.dtd">
<svg version="1.0" xmlns="http://www.w3.org/2000/svg"
 width="1280" height="720" viewBox="0 0 1280.000000 720.000000"
 preserveAspectRatio="xMidYMid meet">
<g transform="translate(0.000000,720.000000) scale(0.100000,-0.100000)"
fill="#5f9234" stroke="none">
<path d="M7920 5330 c-175 -32 -365 -175 -461 -346 -17 -30 -34 -54 -38 -52
-205 98 -346 135 -542 142 l-91 4 -50 56 c-98 110 -196 156 -334 156 -101 0
-177 -22 -279 -83 -180 -106 -349 -346 -420 -593 -26 -91 -54 -273 -55 -348
l0 -40 -27 26 c-16 15 -57 41 -93 58 -36 17 -71 34 -79 38 -7 4 -23 48 -36 97
-51 200 -142 364 -275 495 -97 96 -165 140 -283 184 -74 27 -94 30 -202 30
-135 0 -195 -13 -304 -69 -177 -90 -296 -252 -345 -467 -6 -25 -11 -28 -47
-28 -54 0 -89 -26 -122 -92 -26 -51 -67 -192 -67 -229 0 -22 -91 -103 -150
-134 -101 -52 -186 -70 -325 -70 -71 1 -157 6 -190 13 -117 25 -182 42 -270
72 -111 38 -136 38 -177 1 -26 -23 -33 -37 -33 -68 0 -68 21 -86 142 -126 192
-63 282 -83 439 -96 179 -15 336 11 481 80 45 21 84 39 86 39 3 0 8 -17 12
-37 4 -20 19 -65 35 -99 l28 -62 -50 -48 c-205 -201 -330 -501 -314 -754 11
-185 65 -307 191 -437 70 -71 94 -88 175 -126 52 -25 122 -50 154 -56 123 -23
301 -7 438 40 l57 20 48 -34 c134 -96 282 -141 458 -139 265 2 478 116 615
331 25 39 47 70 50 70 4 1 12 -16 19 -36 41 -111 181 -306 296 -408 101 -90
149 -122 270 -181 409 -198 927 -151 1335 121 l79 54 98 -48 c158 -77 199 -86
408 -85 167 0 186 2 269 27 189 58 312 131 437 256 93 94 145 182 174 296 37
148 4 330 -85 462 -17 24 -30 48 -30 52 0 4 12 13 27 20 58 27 167 107 214
159 174 190 228 409 154 624 -40 118 -115 201 -245 271 -118 64 -263 84 -462
64 l-78 -8 44 88 c71 141 90 218 89 353 -1 135 -19 203 -83 310 -75 127 -189
219 -336 271 -66 24 -263 35 -344 19z m246 -214 c228 -60 354 -268 299 -491
-21 -84 -80 -201 -135 -270 -48 -58 -172 -185 -182 -185 -4 0 -30 44 -58 98
-82 157 -248 366 -369 465 -35 28 -75 61 -88 72 l-24 20 41 63 c75 118 175
199 278 227 63 18 175 18 238 1z m-1671 -50 c19 -8 35 -17 35 -20 0 -2 -30
-14 -67 -27 -136 -44 -239 -111 -331 -214 -135 -152 -170 -374 -88 -559 l23
-52 -86 -106 c-47 -59 -89 -104 -93 -100 -15 15 -30 201 -24 301 18 278 99
481 256 642 106 109 181 149 278 149 34 0 78 -7 97 -14z m-1745 -132 c156 -35
301 -168 403 -369 25 -51 72 -193 66 -200 -2 -2 -45 -10 -94 -19 -152 -26
-325 -102 -454 -199 -71 -53 -75 -55 -184 -72 l-111 -17 -28 34 c-76 91 -136
242 -145 363 -13 190 88 372 252 449 100 48 181 56 295 30z m2337 -100 c51
-12 131 -41 179 -63 78 -37 86 -43 80 -63 -4 -13 -13 -56 -22 -97 -8 -41 -16
-76 -18 -79 -3 -2 -14 1 -25 8 -50 26 -198 50 -315 50 l-118 0 6 31 c3 17 6
81 6 141 l0 109 68 -7 c37 -4 108 -17 159 -30z m-437 -79 c0 -54 -7 -123 -16
-159 l-16 -63 -51 -18 c-64 -22 -203 -95 -279 -146 l-57 -39 -11 36 c-19 56
-8 160 22 226 47 101 164 189 318 239 93 30 90 33 90 -76z m992 -242 c109
-106 199 -224 260 -341 67 -128 67 -124 6 -152 -85 -37 -200 -81 -204 -77 -2
2 -8 37 -14 78 -16 128 -62 235 -142 332 l-40 48 12 100 c7 54 16 99 21 99 6
0 51 -39 101 -87z m-462 -162 c36 -13 79 -32 96 -43 28 -19 31 -28 43 -106 11
-81 50 -214 85 -294 9 -20 12 -39 8 -41 -4 -3 -61 -8 -127 -12 -130 -7 -314 6
-430 32 -96 21 -284 93 -314 119 -2 1 26 39 61 83 54 67 159 230 170 262 12
35 304 35 408 0z m-3150 -98 c0 -20 82 -194 109 -232 l21 -29 -36 -21 c-19
-12 -38 -21 -41 -21 -2 0 -18 -10 -35 -21 -36 -26 -40 -22 -64 59 -20 67 -15
200 10 255 16 37 36 42 36 10z m1230 -211 c0 -60 -2 -111 -5 -114 -3 -3 -44
14 -91 38 -47 24 -116 53 -155 66 -38 12 -69 25 -69 29 0 20 212 87 278 88
l42 1 0 -108z m3671 28 c102 -35 157 -77 195 -152 93 -182 -23 -431 -255 -546
-92 -46 -103 -49 -121 -27 -44 54 -286 180 -407 213 l-68 19 -8 82 c-4 46 -15
123 -26 172 l-18 89 31 18 c67 39 196 92 281 116 125 35 118 34 233 35 79 1
116 -4 163 -19z m-4056 -217 c107 -27 285 -111 285 -135 0 -16 -128 -7 -231
16 -94 22 -226 68 -269 95 -12 8 -11 13 5 31 17 19 26 20 85 15 36 -4 92 -14
125 -22z m1576 -37 c252 -134 498 -186 812 -172 97 4 147 2 147 -4 0 -6 -12
-29 -26 -53 -97 -154 -265 -278 -454 -333 -91 -26 -298 -26 -390 0 -138 40
-284 128 -388 233 -58 60 -132 155 -131 169 0 5 35 26 77 46 42 20 118 64 167
97 50 33 93 60 96 61 4 0 44 -20 90 -44z m-2106 -3 c7 -19 -53 -143 -70 -143
-17 0 -115 64 -112 74 4 11 146 86 163 86 7 0 15 -8 19 -17z m3699 -49 c3 -9
9 -47 12 -85 7 -65 6 -69 -14 -69 -15 0 -22 -8 -26 -30 -3 -16 -9 -43 -12 -60
l-6 -30 -36 27 c-56 41 -102 86 -102 99 0 12 159 164 171 164 4 0 10 -7 13
-16z m-4024 -177 c22 -18 66 -49 100 -67 101 -58 94 -44 74 -140 -25 -116 -25
-326 -1 -438 23 -109 46 -169 102 -266 24 -43 42 -82 40 -86 -10 -16 -144 -33
-226 -28 -148 9 -258 70 -336 186 -54 80 -74 144 -80 254 -11 190 68 384 232
566 26 28 49 52 52 52 3 0 22 -15 43 -33z m1417 -146 c81 -135 123 -324 104
-474 -42 -344 -317 -562 -636 -504 -44 8 -107 27 -139 41 l-59 26 84 64 c97
73 229 208 310 316 97 129 194 323 254 508 16 48 32 81 39 79 6 -2 25 -27 43
-56z m477 -1 c38 -51 158 -169 216 -212 109 -81 236 -143 372 -180 116 -32
354 -32 471 0 97 27 221 84 312 145 38 26 70 45 71 44 1 -1 -9 -45 -23 -97
-22 -82 -26 -116 -26 -245 -1 -114 3 -165 17 -215 31 -113 81 -215 148 -302
l28 -36 -25 -20 c-14 -12 -70 -43 -123 -70 -429 -219 -880 -180 -1218 104
-151 127 -270 336 -313 552 -16 79 -14 308 4 394 21 100 44 178 53 178 4 0 20
-18 36 -40z m-764 14 c0 -3 -16 -44 -36 -92 -101 -246 -265 -465 -454 -604
-101 -74 -121 -84 -132 -67 -69 110 -93 156 -115 224 -24 72 -27 95 -27 235
-1 101 4 174 13 208 l13 54 37 -6 c20 -3 97 -9 171 -12 146 -7 289 8 425 46
72 19 105 24 105 14z m2638 -71 c37 -31 101 -78 142 -104 127 -82 116 -64 95
-150 -53 -221 -165 -437 -308 -594 l-54 -59 -32 44 c-124 171 -148 393 -70
633 16 48 45 117 64 152 33 63 82 135 92 135 2 0 35 -26 71 -57z m556 -278
c99 -21 219 -28 299 -17 l68 9 40 -46 c22 -25 54 -75 72 -111 29 -59 32 -73
32 -160 0 -87 -3 -101 -32 -161 -66 -135 -244 -264 -438 -319 -154 -44 -366
-33 -491 24 l-57 26 25 28 c45 48 157 201 198 272 67 115 144 314 175 453 4
21 10 27 21 23 9 -3 48 -13 88 -21z"/>
</g>
</svg>
