<?xml version="1.0" standalone="no"?>
<!DOCTYPE svg PUBLIC "-//W3C//DTD SVG 20010904//EN"
 "http://www.w3.org/TR/2001/REC-SVG-20010904/DTD/svg10.dtd">
<svg version="1.0" xmlns="http://www.w3.org/2000/svg"
 width="1280" height="720" viewBox="0 0 1280.000000 720.000000"
 preserveAspectRatio="xMidYMid meet">
<g transform="translate(0.000000,720.000000) scale(0.100000,-0.100000)"
fill="#5f9234" stroke="none">
<path d="M7935 5334 c-126 -30 -176 -52 -272 -120 -70 -50 -160 -151 -205
-230 -16 -30 -33 -52 -36 -50 -10 6 -92 42 -137 60 -109 46 -403 95 -466 79
-12 -3 -37 15 -76 57 -109 117 -200 160 -338 160 -193 0 -397 -125 -533 -328
-129 -190 -189 -364 -214 -609 l-12 -123 -25 24 c-29 28 -141 86 -165 86 -9 0
-18 12 -22 28 -79 355 -258 611 -513 729 -182 84 -386 81 -566 -9 -164 -82
-294 -245 -335 -419 -7 -29 -14 -60 -16 -66 -2 -8 -19 -13 -41 -13 -56 0 -94
-28 -126 -94 -27 -55 -67 -190 -67 -227 0 -22 -91 -103 -150 -134 -103 -53
-185 -70 -330 -69 -149 1 -285 26 -454 84 -109 37 -136 37 -175 4 -37 -31 -49
-80 -28 -121 17 -32 35 -43 122 -73 390 -134 727 -136 964 -4 54 30 61 30 61
2 0 -13 15 -57 33 -99 l33 -75 -75 -81 c-123 -132 -230 -324 -270 -488 -21
-83 -24 -241 -7 -333 36 -199 173 -378 356 -466 173 -83 369 -88 587 -15 l63
21 38 -30 c67 -53 204 -112 307 -133 84 -17 247 -14 329 5 192 45 341 151 446
315 43 67 60 84 60 60 0 -21 71 -153 124 -228 62 -91 200 -231 288 -295 209
-148 500 -228 778 -212 472 26 904 289 1167 711 83 132 162 329 198 488 4 21
10 27 22 23 73 -28 168 -41 303 -40 125 2 157 6 235 28 172 51 299 126 394
233 51 57 116 159 140 219 28 72 -35 153 -109 139 -55 -11 -64 -19 -109 -103
-46 -86 -90 -137 -159 -184 -66 -45 -179 -95 -250 -108 -108 -22 -384 -1 -416
31 -3 3 -7 74 -10 159 -4 153 -22 292 -50 400 -8 30 -12 58 -8 61 4 3 37 29
74 58 173 135 309 326 369 521 32 104 33 265 2 365 -60 190 -204 336 -399 406
-45 16 -89 22 -184 25 -69 1 -134 1 -145 -2z m308 -247 c92 -43 154 -103 198
-189 31 -58 33 -70 33 -163 1 -177 -60 -300 -238 -482 -44 -46 -84 -83 -88
-83 -4 0 -24 33 -44 73 -92 184 -270 403 -426 526 -67 52 -68 53 -54 80 26 50
105 148 148 183 93 76 162 98 294 94 93 -2 108 -6 177 -39z m-1748 -21 c19 -8
35 -17 35 -20 0 -2 -30 -14 -67 -27 -136 -44 -239 -111 -331 -214 -96 -108
-139 -233 -128 -377 5 -76 13 -107 59 -229 4 -11 -168 -218 -175 -211 -15 15
-30 201 -24 301 18 278 99 483 256 643 106 108 181 148 278 148 34 0 78 -7 97
-14z m-1745 -132 c156 -35 301 -168 403 -369 25 -51 72 -193 66 -200 -2 -2
-45 -10 -94 -19 -152 -26 -325 -102 -454 -199 -71 -53 -75 -55 -184 -72 l-111
-17 -28 34 c-76 90 -135 240 -145 366 -19 258 180 486 430 491 26 1 79 -6 117
-15z m2233 -79 c109 -16 218 -50 308 -96 53 -26 60 -33 55 -52 -4 -12 -13 -55
-22 -96 -8 -41 -16 -76 -18 -79 -3 -2 -13 1 -24 7 -54 29 -190 51 -311 51
l-123 0 6 31 c3 17 6 80 6 140 0 81 3 109 13 109 6 0 56 -7 110 -15z m-333
-100 c0 -54 -7 -123 -16 -159 l-16 -63 -51 -18 c-64 -22 -203 -95 -279 -146
l-57 -39 -11 36 c-7 20 -10 66 -8 103 9 167 129 291 348 362 93 30 90 33 90
-76z m961 -212 c83 -77 123 -120 191 -210 52 -70 158 -258 158 -280 0 -16
-244 -122 -255 -111 -3 2 -10 40 -16 83 -17 128 -62 232 -142 328 l-39 48 12
100 c7 54 16 99 21 99 4 0 36 -26 70 -57z m-431 -192 c106 -37 127 -55 134
-120 9 -74 51 -229 82 -298 13 -30 22 -59 19 -63 -3 -4 -62 -11 -132 -15 -235
-13 -455 22 -641 103 -52 22 -96 43 -99 46 -3 3 24 41 59 85 54 67 159 230
170 262 6 18 94 28 218 25 98 -2 139 -8 190 -25z m-3150 -96 c0 -22 61 -157
96 -212 l33 -52 -35 -20 c-19 -12 -38 -21 -41 -21 -2 0 -18 -10 -35 -21 -36
-26 -40 -22 -64 59 -20 67 -15 200 10 255 16 35 36 42 36 12z m1230 -213 c0
-60 -3 -111 -6 -114 -3 -4 -44 14 -91 38 -47 24 -116 54 -154 66 -38 12 -69
25 -69 29 0 20 210 87 278 88 l42 1 0 -108z m-385 -189 c107 -27 285 -111 285
-135 0 -16 -128 -7 -231 16 -94 22 -226 68 -269 95 -12 8 -11 13 5 31 17 19
26 20 85 15 36 -4 92 -14 125 -22z m1605 -53 c240 -121 478 -169 778 -156 103
4 152 3 152 -4 0 -14 -24 -51 -76 -121 -87 -114 -256 -223 -415 -266 -90 -25
-290 -24 -379 1 -139 40 -285 129 -389 235 -60 63 -131 153 -131 167 0 6 15
15 33 22 39 14 231 128 278 165 32 25 33 25 58 8 15 -10 55 -33 91 -51z
m-2140 14 c11 -13 8 -26 -21 -79 -19 -36 -38 -65 -44 -65 -18 0 -115 64 -112
75 2 9 142 84 158 85 4 0 12 -7 19 -16z m3698 -36 c18 -80 34 -237 30 -292
l-3 -49 -80 60 c-91 68 -229 207 -223 224 2 7 38 24 79 39 40 15 94 36 119 47
25 12 50 22 56 22 6 1 16 -23 22 -51z m-4010 -197 c26 -22 78 -56 115 -76 61
-34 68 -40 62 -62 -15 -60 -35 -225 -35 -288 0 -79 21 -223 46 -305 8 -30 40
-101 70 -157 29 -56 50 -104 46 -106 -24 -16 -144 -29 -219 -25 -150 8 -261
69 -338 183 -53 79 -77 151 -82 257 -11 190 68 384 232 566 26 28 49 52 52 52
2 0 25 -18 51 -39z m3883 -289 c52 -34 103 -68 113 -75 19 -13 19 -15 1 -88
-112 -458 -421 -804 -852 -953 -109 -38 -271 -66 -374 -66 -267 0 -534 111
-715 296 -138 140 -219 291 -259 486 -20 92 -20 315 0 410 21 100 44 178 53
178 4 0 20 -18 36 -40 38 -51 158 -169 216 -212 109 -81 237 -143 372 -180
118 -32 344 -32 468 0 234 60 464 229 595 437 l44 70 104 -101 c58 -56 146
-128 198 -162z m-2493 181 c94 -133 146 -353 122 -515 -38 -264 -200 -447
-438 -495 -65 -13 -91 -14 -165 -4 -80 10 -210 52 -222 71 -2 4 21 25 53 46
114 78 280 252 379 399 62 91 156 287 198 413 21 61 41 112 46 112 4 0 16 -12
27 -27z m-268 -19 c0 -3 -16 -44 -36 -92 -102 -248 -265 -465 -454 -604 -102
-74 -121 -84 -132 -67 -69 110 -93 156 -115 224 -24 72 -27 95 -27 235 -1 101
4 174 13 208 l13 54 37 -6 c20 -3 97 -9 171 -12 146 -7 289 8 425 46 72 19
105 24 105 14z"/>
</g>
</svg>
