<?xml version="1.0" standalone="no"?>
<!DOCTYPE svg PUBLIC "-//W3C//DTD SVG 20010904//EN"
 "http://www.w3.org/TR/2001/REC-SVG-20010904/DTD/svg10.dtd">
<svg version="1.0" xmlns="http://www.w3.org/2000/svg"
 width="1280" height="720" viewBox="0 0 1280.000000 720.000000"
 preserveAspectRatio="xMidYMid meet">
<g transform="translate(0.000000,720.000000) scale(0.100000,-0.100000)"
fill="#5f9234" stroke="none">
<path d="M7884 5321 c-87 -24 -150 -55 -229 -113 -64 -47 -172 -172 -205 -239
-20 -38 -33 -48 -44 -30 -10 15 -184 81 -270 101 -44 11 -142 25 -216 31
l-135 12 -48 54 c-97 107 -196 153 -333 153 -223 0 -430 -146 -587 -414 -89
-153 -138 -315 -158 -520 l-12 -127 -26 25 c-14 13 -55 38 -91 56 -36 17 -71
35 -79 38 -7 4 -23 48 -36 97 -81 318 -286 575 -534 670 -174 66 -349 58 -516
-24 -191 -95 -311 -253 -359 -473 -6 -25 -11 -28 -50 -28 -74 0 -127 -71 -166
-224 -11 -44 -20 -87 -20 -97 0 -22 -91 -103 -150 -134 -104 -53 -185 -70
-330 -69 -149 1 -287 27 -454 84 -112 38 -137 38 -178 1 -26 -23 -33 -37 -33
-68 0 -71 20 -87 161 -133 227 -74 421 -102 609 -89 108 8 183 28 292 80 45
22 84 39 87 39 3 0 6 -10 6 -22 0 -13 15 -57 33 -99 l33 -75 -72 -77 c-112
-119 -202 -269 -254 -425 -32 -97 -46 -253 -33 -355 22 -163 75 -269 196 -390
65 -66 94 -86 170 -122 51 -23 119 -48 151 -54 127 -24 283 -9 433 40 l62 20
33 -24 c135 -101 295 -151 478 -149 264 3 475 117 611 332 24 38 46 70 49 70
4 0 12 -17 19 -37 18 -52 105 -194 159 -262 60 -75 174 -184 248 -237 34 -24
108 -66 165 -94 412 -196 936 -144 1343 135 l64 43 73 -38 c41 -21 115 -51
164 -67 85 -27 99 -28 270 -27 167 0 187 2 270 27 188 57 332 144 450 269 196
208 230 479 89 721 -25 44 -44 80 -42 81 2 2 28 17 58 34 87 49 150 102 213
177 254 302 189 710 -137 866 -136 65 -287 82 -485 52 l-45 -6 31 54 c16 30
42 85 57 122 143 360 -15 721 -370 848 -87 31 -283 36 -380 10z m298 -209
c122 -40 211 -114 258 -214 65 -137 44 -300 -61 -474 -34 -55 -213 -254 -229
-254 -5 0 -32 45 -62 100 -96 183 -264 385 -409 495 -35 27 -66 50 -68 51 -10
8 71 124 126 179 96 97 179 133 314 134 49 1 96 -6 131 -17z m-1693 -43 c18
-6 30 -16 28 -22 -2 -6 -32 -20 -68 -32 -86 -30 -143 -59 -211 -111 -223 -172
-293 -409 -194 -655 l24 -59 -29 -32 c-16 -18 -55 -65 -86 -105 -31 -39 -60
-70 -64 -68 -4 3 -12 51 -19 106 -20 161 0 361 50 509 74 216 236 412 388 466
46 16 138 18 181 3z m-1757 -130 c100 -21 177 -66 263 -153 106 -107 190 -259
219 -393 7 -31 7 -32 -41 -38 -168 -23 -390 -116 -508 -212 -60 -49 -63 -50
-174 -67 l-113 -17 -33 38 c-75 86 -145 274 -145 392 0 289 258 507 532 450z
m2298 -90 c72 -13 190 -54 263 -91 51 -25 58 -32 53 -51 -4 -12 -13 -55 -22
-96 -8 -41 -16 -76 -18 -78 -1 -2 -20 4 -41 13 -65 27 -182 44 -302 44 l-115
0 6 31 c3 17 6 81 6 141 l0 110 58 -6 c31 -4 82 -11 112 -17z m-380 -94 c0
-54 -7 -123 -16 -159 -16 -63 -16 -63 -67 -81 -63 -22 -198 -92 -273 -142 -71
-47 -79 -40 -79 75 0 78 3 94 33 154 49 100 138 166 302 224 103 37 100 39
100 -71z m1035 -286 c50 -52 116 -132 147 -179 63 -94 130 -228 122 -242 -3
-4 -22 -15 -42 -24 -62 -27 -203 -84 -207 -84 -2 0 -6 26 -10 58 -14 129 -65
251 -147 356 -21 27 -38 55 -38 63 0 20 20 155 26 171 6 20 44 -11 149 -119z
m-505 -118 c36 -13 79 -32 96 -43 28 -19 31 -28 43 -106 11 -81 50 -214 85
-294 9 -20 12 -39 8 -41 -4 -3 -61 -8 -127 -12 -147 -8 -326 7 -458 40 -92 22
-287 100 -287 114 0 3 29 41 64 84 54 66 157 225 169 260 5 17 86 26 217 23
97 -3 140 -8 190 -25z m-3150 -97 c0 -23 66 -169 95 -212 14 -20 25 -41 25
-47 0 -5 -30 -27 -67 -48 -75 -43 -74 -43 -99 41 -20 67 -15 200 10 255 16 36
36 42 36 11z m1230 -212 c0 -60 -2 -111 -5 -114 -3 -3 -43 14 -89 37 -45 23
-115 53 -154 66 -40 13 -72 26 -72 30 0 20 210 87 278 88 l42 1 0 -108z m3674
28 c208 -65 278 -256 175 -476 -38 -79 -140 -174 -242 -224 -61 -30 -92 -41
-101 -34 -7 5 -35 26 -62 47 -68 51 -275 153 -359 175 l-70 19 -7 78 c-4 43
-14 115 -23 160 -8 45 -15 88 -15 97 0 15 98 67 204 109 174 69 371 88 500 49z
m-4059 -217 c107 -27 285 -111 285 -135 0 -15 -117 -8 -212 11 -93 20 -193 53
-259 86 -45 23 -45 22 -24 46 17 18 26 19 85 14 36 -4 92 -14 125 -22z m1647
-73 c126 -59 199 -83 342 -113 95 -19 143 -22 329 -22 119 0 217 -2 217 -5 0
-3 -10 -23 -23 -45 -24 -43 -24 -43 -172 -107 -129 -56 -201 -103 -283 -186
l-67 -67 -125 0 c-148 1 -227 18 -345 78 -82 41 -114 62 -199 132 -51 42 -177
192 -175 210 0 5 39 29 87 53 48 23 125 69 172 101 l85 58 27 -19 c15 -10 74
-41 130 -68z m-2177 33 c7 -19 -53 -143 -70 -143 -18 0 -115 64 -112 75 4 13
137 84 158 85 9 0 20 -8 24 -17z m3704 -83 c6 -28 11 -64 11 -81 l0 -30 -86 2
c-47 2 -87 6 -90 10 -4 7 136 149 148 149 3 0 11 -23 17 -50z m-4014 -156 c22
-17 70 -49 108 -69 37 -20 67 -38 67 -40 0 -2 -7 -36 -15 -76 -49 -230 -19
-485 77 -673 23 -45 48 -89 56 -98 8 -9 11 -21 8 -26 -11 -18 -141 -35 -227
-30 -150 9 -264 73 -340 191 -145 225 -86 545 151 810 31 34 56 54 63 50 7 -4
30 -21 52 -39z m1383 -101 c59 -84 108 -221 123 -344 57 -476 -359 -809 -779
-623 l-54 24 63 47 c125 91 279 254 376 399 74 109 162 297 209 444 14 44 29
80 34 80 5 0 17 -12 28 -27z m490 -26 c43 -64 169 -183 254 -240 167 -112 331
-172 498 -184 l86 -6 0 -86 c0 -76 4 -94 31 -154 18 -37 55 -91 84 -122 118
-125 255 -187 479 -216 l95 -12 34 -44 c40 -52 45 -46 -99 -121 -429 -223
-859 -198 -1209 71 -71 55 -172 173 -227 267 -44 74 -93 209 -113 308 -19 91
-14 306 9 412 22 100 40 160 50 160 3 0 15 -15 28 -33z m-758 7 c0 -3 -16 -44
-36 -92 -102 -249 -263 -462 -459 -607 -112 -83 -109 -83 -146 -33 -44 61 -73
122 -101 208 -20 65 -23 95 -23 225 0 94 5 170 14 203 l13 54 62 -9 c33 -4
133 -7 221 -7 154 1 236 12 385 53 42 11 70 13 70 5z m2681 -105 c43 -33 107
-77 141 -98 61 -37 63 -40 60 -76 -8 -91 -117 -384 -170 -452 -10 -14 -39 -29
-73 -37 -69 -18 -227 -42 -233 -35 -18 17 -39 147 -39 234 -1 126 8 158 94
332 62 125 110 193 136 193 4 0 41 -27 84 -61z m-471 -112 c0 -1 -13 -49 -30
-107 -22 -78 -30 -126 -30 -185 0 -88 15 -240 25 -267 10 -25 -22 -23 -119 7
-96 30 -179 84 -221 143 -26 38 -30 53 -30 107 0 81 21 112 92 136 71 24 205
94 256 135 37 29 57 40 57 31z m992 -132 c72 -16 218 -23 308 -15 l55 4 47
-59 c110 -137 127 -306 43 -450 -28 -48 -114 -134 -175 -176 -202 -135 -495
-175 -710 -97 -87 32 -88 33 -11 122 l68 79 169 57 c313 106 547 198 572 226
33 38 31 102 -5 136 -55 52 -40 55 -432 -91 -74 -28 -136 -49 -138 -47 -2 1
17 65 42 142 24 76 47 152 50 168 5 23 10 27 28 22 12 -4 52 -13 89 -21z"/>
</g>
</svg>
