<?xml version="1.0" standalone="no"?>
<!DOCTYPE svg PUBLIC "-//W3C//DTD SVG 20010904//EN"
 "http://www.w3.org/TR/2001/REC-SVG-20010904/DTD/svg10.dtd">
<svg version="1.0" xmlns="http://www.w3.org/2000/svg"
 width="1280" height="720" viewBox="0 0 1280.000000 720.000000"
 preserveAspectRatio="xMidYMid meet">
<g transform="translate(0.000000,720.000000) scale(0.100000,-0.100000)"
fill="#5f9234" stroke="none">
<path d="M6247 5265 c-318 -110 -559 -494 -593 -944 l-7 -92 -26 25 c-29 27
-111 71 -154 81 -19 5 -29 15 -33 34 -80 361 -262 615 -529 736 -207 94 -477
59 -655 -83 -115 -93 -198 -220 -230 -357 l-17 -70 -44 -5 c-24 -3 -54 -11
-65 -18 -44 -24 -101 -157 -118 -274 -6 -41 -14 -54 -59 -93 -63 -56 -118 -86
-217 -116 -62 -19 -97 -23 -205 -23 -71 0 -157 5 -190 12 -118 25 -182 42
-270 72 -108 36 -135 37 -173 5 -36 -31 -46 -66 -32 -111 13 -40 44 -58 165
-97 217 -71 356 -92 552 -84 156 6 220 21 340 78 45 21 84 39 87 39 3 0 6 -10
6 -22 0 -13 15 -57 33 -98 l33 -75 -69 -73 c-122 -131 -228 -318 -273 -483
-22 -81 -25 -299 -6 -379 27 -110 90 -218 177 -307 70 -71 95 -89 176 -127 52
-24 121 -49 153 -55 124 -23 289 -8 433 40 l63 21 39 -31 c54 -43 172 -97 266
-122 101 -26 268 -28 369 -5 117 28 246 93 321 163 46 42 127 143 150 186 19
36 35 48 35 26 0 -21 71 -153 124 -228 62 -91 200 -231 288 -295 268 -190 654
-261 998 -182 286 66 514 192 724 400 224 221 369 501 437 847 19 94 23 145
22 294 -1 191 -12 285 -57 460 -32 125 -53 182 -123 320 -66 131 -152 264
-204 316 -40 40 -52 41 -115 13 -37 -16 -69 -72 -61 -105 4 -14 22 -42 40 -64
19 -22 64 -92 101 -155 192 -331 257 -700 187 -1061 -47 -240 -134 -429 -285
-618 -181 -227 -449 -389 -738 -448 -117 -24 -338 -24 -442 1 -207 48 -411
168 -539 319 -102 119 -183 289 -216 455 -16 80 -14 304 5 392 20 99 44 180
52 180 4 0 22 -20 40 -44 59 -78 163 -174 261 -239 193 -128 376 -183 586
-174 154 6 259 33 400 102 250 123 438 351 506 615 32 123 32 278 1 380 -54
169 -160 300 -307 377 -141 73 -226 93 -401 93 l-112 0 6 108 c13 286 -99 492
-311 571 -82 30 -207 28 -300 -4z m260 -205 c48 -21 99 -85 125 -158 23 -62
24 -220 2 -306 -16 -63 -16 -63 -67 -81 -126 -44 -252 -119 -392 -234 -90 -73
-140 -124 -223 -228 -31 -40 -60 -69 -64 -65 -15 15 -30 210 -23 307 12 186
44 306 124 460 72 141 220 282 331 316 49 14 143 9 187 -11z m-1757 -126 c157
-35 302 -168 402 -369 28 -56 74 -192 67 -199 -2 -2 -45 -11 -94 -20 -152 -26
-325 -102 -454 -199 -71 -53 -75 -55 -184 -72 l-111 -17 -28 34 c-76 91 -136
242 -145 363 -10 144 44 284 145 376 116 106 244 139 402 103z m2434 -583
c108 -38 216 -123 254 -197 58 -115 67 -240 26 -380 -71 -249 -258 -432 -524
-515 -99 -31 -299 -33 -400 -5 -139 40 -285 128 -389 235 -60 63 -131 153
-131 167 0 6 15 16 34 22 53 19 232 130 326 202 95 72 183 159 248 242 38 50
136 205 144 229 6 18 94 28 223 25 101 -3 143 -9 189 -25z m-3154 -97 c0 -19
58 -149 92 -205 15 -25 28 -50 28 -55 0 -5 -17 -18 -37 -29 -21 -10 -51 -28
-67 -38 -34 -24 -38 -19 -62 61 -20 67 -15 200 10 255 16 36 36 42 36 11z
m1230 -212 c0 -60 -3 -111 -6 -115 -3 -3 -43 14 -88 37 -44 24 -114 54 -153
67 -40 12 -73 26 -73 29 0 23 202 88 278 89 l42 1 0 -108z m-367 -194 c86 -23
258 -105 265 -127 7 -22 -163 -7 -274 23 -97 26 -234 83 -234 97 0 4 10 15 23
24 27 19 104 13 220 -17z m-553 -34 c11 -13 8 -26 -21 -79 -19 -36 -38 -65
-44 -65 -17 0 -115 64 -112 74 3 8 145 85 158 86 4 0 12 -7 19 -16z m-312
-233 c26 -22 78 -56 115 -76 58 -32 68 -41 63 -59 -21 -77 -38 -251 -33 -336
10 -176 44 -298 122 -434 24 -43 42 -82 40 -86 -10 -16 -144 -33 -226 -28
-148 9 -258 70 -336 186 -54 80 -73 143 -80 257 -11 189 68 380 232 563 26 28
49 52 52 52 2 0 25 -18 51 -39z m1410 -141 c72 -121 106 -249 106 -400 -1 -99
-5 -127 -29 -199 -102 -303 -374 -449 -676 -362 -78 22 -135 50 -123 60 5 4
41 30 80 59 87 63 229 209 313 322 74 100 195 341 241 483 19 56 37 96 44 94
6 -2 26 -28 44 -57z m-288 14 c0 -15 -77 -188 -111 -249 -100 -181 -236 -340
-384 -450 -112 -83 -109 -83 -146 -33 -44 61 -73 122 -101 208 -20 65 -23 95
-23 225 0 94 5 170 14 203 l13 54 37 -6 c20 -3 96 -9 169 -12 147 -8 250 3
402 41 98 24 130 29 130 19z"/>
</g>
</svg>
