<?xml version="1.0" standalone="no"?>
<!DOCTYPE svg PUBLIC "-//W3C//DTD SVG 20010904//EN"
 "http://www.w3.org/TR/2001/REC-SVG-20010904/DTD/svg10.dtd">
<svg version="1.0" xmlns="http://www.w3.org/2000/svg"
 width="1280" height="720" viewBox="0 0 1280.000000 720.000000"
 preserveAspectRatio="xMidYMid meet">
<g transform="translate(0.000000,720.000000) scale(0.100000,-0.100000)"
fill="#5f9234" stroke="none">
<path d="M6247 5265 c-318 -110 -559 -493 -593 -943 l-7 -90 -49 38 c-28 20
-74 46 -104 56 -43 14 -56 24 -60 44 -79 351 -249 596 -499 720 -245 121 -545
75 -741 -115 -76 -74 -151 -205 -174 -305 -7 -30 -14 -61 -16 -67 -2 -8 -19
-13 -41 -13 -55 0 -97 -30 -127 -92 -25 -52 -66 -193 -66 -229 0 -22 -91 -103
-150 -134 -197 -101 -458 -96 -784 15 -109 36 -136 37 -174 5 -36 -31 -46 -66
-32 -111 14 -42 35 -53 191 -105 180 -60 331 -82 514 -76 169 6 228 19 352 78
45 21 84 39 87 39 3 0 6 -10 6 -22 0 -13 15 -58 34 -100 l33 -76 -49 -49
c-112 -109 -226 -293 -275 -444 -46 -139 -53 -328 -18 -459 27 -104 84 -199
171 -287 69 -71 94 -89 175 -127 178 -83 364 -88 586 -15 l61 20 50 -35 c208
-150 521 -182 756 -79 134 59 229 140 314 267 157 237 175 575 46 869 -19 43
-34 82 -34 87 0 4 42 18 92 30 86 20 94 21 103 5 19 -32 117 -160 153 -200
139 -154 362 -282 568 -326 133 -28 306 -22 442 15 329 91 599 362 684 686 32
122 32 278 0 380 -54 171 -160 300 -310 379 -129 66 -194 82 -363 88 l-146 5
5 107 c13 285 -100 491 -311 570 -82 30 -207 28 -300 -4z m260 -205 c48 -21
99 -85 125 -158 23 -62 24 -220 2 -306 -16 -63 -16 -63 -67 -81 -220 -77 -491
-285 -637 -488 -18 -26 -37 -44 -42 -39 -15 15 -30 208 -23 307 13 188 44 306
124 460 72 141 220 282 331 316 49 14 143 9 187 -11z m-1757 -126 c157 -35
302 -168 402 -369 28 -56 74 -192 67 -199 -2 -2 -45 -11 -94 -20 -152 -26
-325 -102 -455 -200 -59 -44 -83 -56 -124 -61 -28 -3 -78 -11 -110 -17 l-59
-11 -28 34 c-113 134 -173 361 -135 509 23 89 76 179 138 235 115 103 241 135
398 99z m2435 -584 c118 -45 223 -128 260 -206 131 -276 -36 -664 -355 -824
-135 -68 -207 -85 -355 -85 -97 1 -147 6 -195 20 -150 43 -269 115 -386 233
-65 66 -134 154 -134 172 0 3 15 12 34 18 53 19 231 130 326 202 47 35 118 98
158 140 72 73 182 226 218 302 14 31 24 39 53 44 20 3 41 7 46 10 6 2 69 2
140 0 105 -3 141 -8 190 -26z m-3155 -96 c0 -20 68 -170 97 -214 13 -19 23
-39 23 -45 0 -5 -30 -27 -67 -48 -75 -43 -74 -43 -99 41 -20 67 -15 200 10
255 16 36 36 42 36 11z m1230 -212 c0 -60 -3 -111 -6 -114 -3 -4 -44 14 -91
38 -47 24 -116 54 -154 66 -38 12 -69 25 -69 29 0 20 212 87 278 88 l42 1 0
-108z m-367 -194 c87 -23 265 -108 257 -123 -10 -19 -162 -9 -261 18 -100 27
-239 84 -239 98 0 4 10 15 23 24 27 19 104 13 220 -17z m-553 -34 c11 -13 8
-26 -21 -79 -19 -36 -38 -65 -44 -65 -17 0 -115 64 -112 74 3 8 145 85 158 86
4 0 12 -7 19 -16z m-312 -233 c26 -22 78 -56 115 -76 58 -32 68 -41 63 -59 -3
-11 -13 -70 -22 -131 -35 -236 8 -471 121 -658 19 -32 33 -62 30 -67 -10 -16
-143 -33 -226 -28 -148 9 -258 70 -336 187 -61 89 -78 153 -78 286 0 160 40
279 143 425 43 61 129 160 139 160 2 0 25 -18 51 -39z m1392 -111 c32 -46 86
-168 106 -240 27 -101 25 -275 -4 -370 -67 -216 -214 -355 -420 -397 -91 -19
-210 -9 -303 26 -100 38 -100 39 -16 99 78 56 206 181 280 272 123 154 220
338 292 558 15 45 31 82 35 82 5 0 18 -13 30 -30z m-270 -16 c0 -14 -76 -187
-108 -244 -79 -143 -143 -228 -254 -336 -62 -60 -142 -128 -177 -152 -62 -41
-66 -42 -82 -25 -35 35 -90 139 -116 218 -24 72 -27 95 -27 235 -1 101 4 174
13 208 l13 54 37 -6 c20 -3 93 -9 162 -12 143 -8 263 4 409 41 98 24 130 29
130 19z"/>
</g>
</svg>
