<?xml version="1.0" standalone="no"?>
<!DOCTYPE svg PUBLIC "-//W3C//DTD SVG 20010904//EN"
 "http://www.w3.org/TR/2001/REC-SVG-20010904/DTD/svg10.dtd">
<svg version="1.0" xmlns="http://www.w3.org/2000/svg"
 width="1280" height="720" viewBox="0 0 1280.000000 720.000000"
 preserveAspectRatio="xMidYMid meet">
<g transform="translate(0.000000,720.000000) scale(0.100000,-0.100000)"
fill="#5f9234" stroke="none">
<path d="M6249 5266 c-241 -85 -456 -343 -544 -652 -26 -91 -54 -273 -55 -348
l0 -40 -27 26 c-31 29 -143 88 -167 88 -9 0 -18 12 -22 28 -79 359 -260 614
-519 732 -281 129 -616 38 -794 -215 -44 -62 -87 -154 -101 -215 -7 -30 -14
-61 -16 -67 -2 -8 -19 -13 -39 -13 -52 0 -89 -23 -118 -72 -28 -49 -61 -150
-71 -220 -6 -41 -14 -54 -59 -93 -63 -56 -118 -85 -217 -116 -63 -20 -96 -24
-205 -23 -157 0 -278 22 -460 84 -111 38 -136 38 -177 1 -26 -23 -33 -37 -33
-68 0 -68 21 -87 142 -126 229 -75 357 -98 538 -99 147 0 259 24 381 83 47 22
87 39 88 37 1 -2 10 -30 20 -63 10 -33 26 -76 36 -95 l18 -35 -70 -73 c-123
-130 -231 -321 -273 -482 -9 -35 -19 -108 -21 -164 -11 -216 48 -377 191 -523
70 -71 95 -89 176 -127 52 -24 121 -49 153 -55 123 -23 289 -8 433 40 l61 20
49 -34 c134 -96 282 -141 458 -139 265 2 489 123 620 336 22 36 42 65 45 66 4
0 12 -17 19 -37 41 -111 181 -306 296 -408 101 -90 149 -122 270 -181 501
-243 1131 -118 1559 310 229 229 375 513 438 854 37 203 30 449 -19 681 -13
60 -13 81 -4 107 10 29 9 40 -7 78 -11 24 -29 49 -41 55 -12 7 -47 65 -82 134
-125 251 -337 487 -562 626 -216 133 -423 196 -670 205 l-78 3 -50 57 c-100
111 -197 156 -337 156 -65 0 -104 -6 -153 -24z m246 -200 c19 -8 35 -17 35
-20 0 -2 -30 -14 -67 -27 -233 -76 -412 -254 -454 -449 -22 -103 -7 -211 54
-371 4 -11 -168 -218 -175 -211 -15 15 -30 201 -24 297 11 188 44 314 125 470
72 141 220 282 331 316 42 13 139 10 175 -5z m-1734 -134 c36 -10 92 -33 123
-52 128 -77 259 -256 313 -428 14 -45 24 -84 22 -86 -2 -2 -45 -11 -94 -20
-152 -26 -325 -102 -454 -199 -71 -53 -75 -55 -184 -72 l-111 -17 -32 39 c-76
89 -144 276 -144 392 0 125 58 260 148 342 118 108 256 142 413 101z m2303
-93 c315 -67 637 -316 819 -634 26 -44 53 -96 61 -116 14 -33 14 -38 -2 -52
-20 -17 -229 -103 -236 -96 -3 2 -7 27 -10 54 -11 92 -28 149 -69 235 -60 121
-151 211 -278 274 -133 65 -223 86 -377 86 l-124 0 6 31 c3 17 6 81 6 141 l0
109 58 -6 c31 -4 97 -15 146 -26z m-414 -84 c0 -54 -7 -123 -16 -159 l-16 -63
-51 -18 c-64 -22 -203 -95 -279 -146 l-57 -39 -12 42 c-29 110 18 261 105 332
57 46 184 115 244 131 85 24 82 27 82 -80z m494 -395 c124 -31 250 -120 294
-206 32 -63 52 -143 52 -210 0 -74 10 -69 -178 -86 -206 -18 -430 9 -602 73
-90 33 -170 71 -170 80 0 5 21 32 47 61 50 56 140 190 169 250 14 31 24 39 53
44 20 3 41 7 46 9 36 12 220 3 289 -15z m-3114 -106 c0 -21 60 -153 96 -211
l33 -52 -35 -20 c-19 -12 -38 -21 -41 -21 -2 0 -18 -10 -35 -21 -36 -26 -40
-22 -64 59 -20 67 -15 200 10 255 16 36 36 42 36 11z m1230 -212 c0 -60 -3
-111 -6 -114 -3 -4 -43 13 -88 37 -46 24 -115 53 -155 66 -39 13 -71 26 -71
30 0 21 206 87 278 88 l42 1 0 -108z m-367 -194 c84 -22 258 -104 265 -125 12
-39 -268 7 -409 66 -106 45 -107 45 -84 71 17 19 26 20 85 15 36 -4 100 -16
143 -27z m1612 -60 c208 -107 462 -156 748 -144 106 4 157 3 157 -4 0 -6 -8
-23 -17 -38 -106 -168 -256 -282 -453 -343 -98 -31 -301 -34 -395 -6 -147 43
-276 120 -382 225 -67 67 -143 162 -143 178 0 6 15 15 33 22 39 14 231 128
278 165 l33 26 41 -25 c22 -14 67 -39 100 -56z m1533 -8 c38 -157 38 -389 2
-580 -80 -422 -339 -775 -695 -950 -155 -75 -245 -105 -386 -126 -191 -28
-363 -9 -534 58 -319 125 -535 385 -604 726 -16 79 -14 304 4 392 19 93 45
180 55 180 4 0 19 -17 33 -37 85 -120 281 -274 434 -341 138 -60 220 -76 393
-76 184 1 257 17 414 92 221 106 410 310 487 527 22 61 23 61 78 77 79 22 252
86 276 103 25 16 30 11 43 -45z m-3698 34 c11 -13 8 -26 -21 -79 -19 -36 -38
-65 -44 -65 -17 0 -115 64 -112 74 3 9 144 86 158 86 4 0 12 -7 19 -16z m-312
-233 c26 -22 78 -56 115 -77 63 -34 68 -39 63 -63 -40 -181 -44 -351 -11 -505
22 -103 45 -164 100 -260 24 -43 42 -82 40 -86 -10 -16 -144 -33 -226 -28
-148 9 -258 70 -336 186 -53 78 -73 143 -80 253 -12 189 68 384 232 567 26 28
49 52 52 52 2 0 25 -18 51 -39z m1410 -141 c97 -162 133 -392 89 -560 -70
-261 -264 -421 -512 -424 -49 0 -115 6 -145 13 -74 19 -166 60 -154 69 5 5 41
31 80 60 83 61 227 207 305 312 97 129 194 323 254 508 16 48 32 81 39 79 6
-2 26 -28 44 -57z m-288 15 c0 -13 -68 -167 -103 -234 -97 -184 -248 -363
-402 -474 -102 -74 -100 -74 -136 -25 -44 61 -73 122 -101 208 -20 65 -23 95
-23 225 0 94 5 170 14 203 13 53 14 54 45 48 17 -3 93 -9 168 -12 151 -8 253
3 408 41 99 24 130 29 130 20z"/>
</g>
</svg>
