<?xml version="1.0" standalone="no"?>
<!DOCTYPE svg PUBLIC "-//W3C//DTD SVG 20010904//EN"
 "http://www.w3.org/TR/2001/REC-SVG-20010904/DTD/svg10.dtd">
<svg version="1.0" xmlns="http://www.w3.org/2000/svg"
 width="1280" height="720" viewBox="0 0 1280.000000 720.000000"
 preserveAspectRatio="xMidYMid meet">
<g transform="translate(0.000000,720.000000) scale(0.100000,-0.100000)"
fill="#5f9234" stroke="none">
<path d="M7935 5334 c-126 -30 -176 -52 -272 -120 -70 -50 -160 -151 -205
-230 -16 -30 -33 -52 -36 -50 -4 2 -34 16 -66 30 -146 67 -308 104 -468 108
l-93 2 -55 59 c-105 114 -198 157 -335 157 -350 0 -675 -384 -740 -876 -8 -60
-15 -127 -15 -148 l0 -40 -27 26 c-31 29 -143 88 -167 88 -9 0 -18 12 -22 28
-64 283 -176 482 -352 628 -308 254 -740 203 -964 -115 -44 -62 -83 -146 -98
-211 -7 -30 -14 -61 -16 -67 -2 -8 -19 -13 -41 -13 -56 0 -94 -28 -126 -94
-27 -55 -67 -190 -67 -227 0 -22 -91 -103 -150 -134 -103 -53 -185 -70 -330
-69 -149 1 -285 26 -454 84 -109 37 -136 37 -175 4 -37 -31 -49 -80 -28 -121
18 -33 35 -43 136 -78 291 -99 564 -124 773 -69 35 9 100 33 145 55 45 21 84
39 86 39 3 0 8 -17 12 -37 4 -20 19 -64 34 -98 l28 -61 -76 -81 c-123 -132
-229 -323 -270 -488 -22 -85 -25 -231 -8 -328 35 -201 173 -383 357 -471 173
-83 368 -88 587 -15 l61 20 49 -34 c150 -107 341 -156 529 -137 107 11 176 31
269 77 116 57 199 133 276 253 42 66 59 83 59 59 0 -21 71 -153 124 -228 62
-91 200 -231 288 -295 90 -64 254 -140 366 -170 592 -158 1233 113 1579 669
175 281 263 654 234 993 -10 120 -38 287 -55 332 -4 10 16 32 64 68 178 136
319 333 382 532 32 103 32 264 0 365 -59 189 -203 337 -398 406 -45 16 -89 22
-184 25 -69 1 -134 1 -145 -2z m307 -246 c185 -88 271 -267 223 -463 -20 -80
-70 -187 -116 -248 -38 -49 -190 -207 -200 -207 -4 0 -30 42 -58 94 -102 191
-261 385 -413 505 -67 52 -68 53 -54 80 26 50 105 148 148 183 91 75 166 98
298 95 86 -2 102 -6 172 -39z m-1747 -22 c19 -8 35 -17 35 -20 0 -2 -30 -14
-67 -27 -246 -80 -427 -269 -456 -475 -13 -91 0 -205 35 -290 l24 -61 -85
-106 c-47 -58 -89 -103 -93 -99 -15 15 -30 201 -24 301 18 278 99 483 256 643
106 108 181 148 278 148 34 0 78 -7 97 -14z m-1733 -135 c37 -10 93 -33 124
-52 126 -76 257 -256 311 -427 14 -45 24 -84 22 -86 -2 -2 -45 -11 -94 -20
-152 -26 -325 -102 -454 -199 -71 -53 -75 -55 -184 -72 l-111 -17 -28 34 c-74
88 -135 243 -145 366 -10 139 44 281 144 372 117 107 264 143 415 101z m2221
-76 c109 -16 218 -50 308 -96 57 -28 60 -32 54 -57 -4 -15 -13 -58 -22 -97 -8
-38 -16 -71 -18 -73 -2 -2 -12 1 -23 7 -54 29 -190 51 -311 51 l-123 0 6 31
c3 17 6 80 6 140 0 81 3 109 13 109 6 0 56 -7 110 -15z m-333 -100 c0 -54 -7
-123 -16 -159 l-16 -63 -51 -18 c-64 -22 -203 -95 -279 -146 l-57 -39 -11 36
c-34 102 17 266 104 338 57 46 184 115 244 131 85 24 82 27 82 -80z m961 -212
c83 -77 123 -120 191 -210 51 -69 158 -257 158 -280 0 -13 -221 -113 -250
-113 -5 0 -11 26 -15 58 -15 132 -67 259 -147 355 l-40 48 12 100 c7 54 16 99
21 99 4 0 36 -26 70 -57z m-431 -192 c36 -12 79 -32 96 -44 28 -18 33 -28 39
-81 8 -73 49 -220 81 -295 13 -29 22 -57 19 -61 -3 -4 -62 -11 -132 -15 -235
-13 -455 22 -641 103 -52 22 -96 43 -99 46 -3 3 24 41 59 85 54 67 159 230
170 262 6 18 94 28 218 25 98 -2 139 -8 190 -25z m-3150 -96 c0 -22 61 -157
96 -212 l33 -52 -35 -20 c-19 -12 -38 -21 -41 -21 -2 0 -18 -10 -35 -21 -36
-26 -40 -22 -64 59 -20 67 -15 200 10 255 16 35 36 42 36 12z m1230 -213 c0
-60 -3 -111 -6 -114 -3 -4 -44 14 -91 38 -47 24 -116 54 -154 66 -38 12 -69
25 -69 29 0 8 76 41 145 62 69 22 84 25 133 26 l42 1 0 -108z m-385 -189 c107
-27 285 -111 285 -135 0 -4 -28 -8 -62 -8 -103 1 -297 50 -403 103 -52 26 -51
24 -30 48 17 18 26 19 85 14 36 -4 92 -14 125 -22z m1613 -57 c233 -117 474
-165 770 -152 119 5 152 4 152 -6 0 -7 -25 -47 -55 -90 -96 -135 -262 -248
-436 -295 -90 -25 -290 -24 -379 1 -139 40 -285 129 -389 235 -61 63 -131 153
-130 167 0 5 39 28 87 52 48 23 125 69 172 101 84 57 85 58 110 41 14 -10 58
-34 98 -54z m-2148 18 c11 -13 8 -26 -21 -79 -19 -36 -38 -65 -44 -65 -17 0
-115 64 -112 74 3 9 144 86 158 86 4 0 12 -7 19 -16z m3698 -36 c44 -199 37
-461 -19 -683 -21 -86 -114 -299 -163 -375 -175 -271 -391 -442 -683 -544
-109 -37 -270 -66 -374 -66 -92 0 -242 25 -327 54 -343 118 -579 388 -651 744
-16 79 -14 308 4 394 19 89 46 178 54 178 3 0 21 -20 39 -44 93 -125 278 -269
429 -334 141 -61 221 -77 393 -76 188 1 262 18 425 99 198 97 333 234 448 452
l69 129 112 38 c62 20 135 48 162 61 27 13 54 24 60 24 6 1 16 -23 22 -51z
m-4010 -197 c26 -22 78 -56 115 -76 58 -32 68 -41 63 -59 -16 -64 -36 -220
-36 -281 0 -82 22 -237 45 -315 9 -30 41 -101 71 -157 29 -56 50 -104 46 -106
-24 -16 -144 -29 -219 -25 -152 9 -261 68 -340 186 -53 79 -74 144 -80 253
-12 193 72 393 239 575 22 24 43 44 45 44 2 0 25 -18 51 -39z m1410 -141 c70
-116 105 -248 106 -390 0 -304 -171 -532 -442 -587 -65 -13 -91 -14 -165 -4
-79 10 -210 52 -222 70 -2 4 29 31 70 61 87 62 236 213 316 320 97 129 194
323 254 508 16 48 32 81 39 79 6 -2 26 -28 44 -57z m-288 14 c0 -3 -16 -44
-36 -92 -101 -246 -265 -464 -454 -604 -101 -74 -121 -84 -132 -67 -69 110
-93 156 -115 224 -24 72 -27 95 -27 235 -1 101 4 174 13 208 l13 54 37 -6 c20
-3 93 -9 162 -12 143 -8 263 4 409 41 98 24 130 29 130 19z"/>
</g>
</svg>
