<?xml version="1.0" standalone="no"?>
<!DOCTYPE svg PUBLIC "-//W3C//DTD SVG 20010904//EN"
 "http://www.w3.org/TR/2001/REC-SVG-20010904/DTD/svg10.dtd">
<svg version="1.0" xmlns="http://www.w3.org/2000/svg"
 width="1280" height="720" viewBox="0 0 1280.000000 720.000000"
 preserveAspectRatio="xMidYMid meet">
<g transform="translate(0.000000,720.000000) scale(0.100000,-0.100000)"
fill="#5f9234" stroke="none">
<path d="M7920 5330 c-119 -22 -274 -111 -356 -204 -39 -44 -92 -118 -129
-180 -9 -15 -16 -14 -71 13 -135 67 -309 108 -482 115 l-93 4 -51 56 c-98 110
-196 156 -334 156 -101 0 -177 -22 -279 -83 -180 -106 -349 -346 -420 -593
-26 -91 -54 -273 -55 -348 l0 -40 -27 26 c-16 15 -57 41 -93 58 -36 17 -71 34
-79 38 -7 4 -23 48 -36 97 -51 198 -142 363 -275 495 -96 95 -164 140 -283
184 -74 27 -94 30 -202 30 -135 0 -195 -13 -304 -69 -76 -39 -150 -99 -209
-171 -43 -53 -104 -168 -116 -219 -25 -108 -23 -105 -67 -105 -54 0 -89 -26
-122 -92 -26 -51 -67 -192 -67 -229 0 -22 -91 -103 -150 -134 -101 -52 -186
-70 -325 -70 -71 1 -157 6 -190 13 -117 25 -182 42 -270 72 -111 38 -136 38
-177 1 -26 -23 -33 -37 -33 -68 0 -68 21 -86 142 -126 198 -65 277 -82 439
-96 179 -15 337 11 481 80 45 21 84 39 87 39 3 0 6 -10 6 -22 0 -13 15 -57 33
-99 l33 -75 -75 -81 c-92 -99 -172 -224 -221 -346 -49 -123 -60 -173 -66 -292
-11 -214 47 -374 191 -521 70 -72 94 -89 175 -127 52 -25 122 -50 154 -56 126
-24 283 -9 433 40 l61 20 49 -34 c188 -134 446 -177 672 -111 65 19 183 75
228 110 57 43 129 123 174 194 24 38 46 69 49 69 4 1 12 -16 19 -36 41 -111
181 -306 296 -408 101 -90 149 -122 270 -181 410 -199 927 -151 1335 122 l80
53 66 -35 c37 -19 108 -50 158 -67 90 -31 93 -32 276 -31 173 0 191 2 274 27
443 137 692 469 611 813 -17 75 -57 166 -90 210 -31 41 -31 48 2 63 62 28 169
109 222 168 72 80 113 148 147 243 23 64 27 91 27 185 1 93 -3 121 -25 182
-44 124 -117 205 -248 276 -118 64 -263 84 -462 64 l-78 -8 44 88 c71 141 90
218 89 353 -1 135 -19 203 -83 310 -75 127 -189 219 -336 271 -66 24 -263 35
-344 19z m246 -214 c228 -60 354 -269 299 -491 -19 -75 -59 -164 -107 -232
-34 -50 -196 -223 -209 -223 -4 0 -29 41 -55 91 -83 160 -252 374 -376 474
-33 28 -72 59 -85 70 l-24 20 41 63 c75 118 175 199 278 227 63 18 175 18 238
1z m-1671 -50 c19 -8 35 -17 35 -20 0 -2 -30 -14 -67 -27 -136 -44 -239 -111
-331 -214 -135 -152 -170 -374 -88 -560 l23 -51 -83 -102 c-46 -57 -87 -103
-91 -103 -17 0 -34 167 -29 282 9 197 41 322 125 484 61 119 185 249 281 294
74 35 165 42 225 17z m-1734 -134 c36 -10 92 -33 123 -52 128 -77 259 -256
313 -428 14 -45 24 -84 22 -86 -2 -2 -45 -11 -94 -20 -152 -26 -325 -102 -454
-199 -71 -53 -75 -55 -182 -71 -60 -9 -113 -14 -118 -11 -6 3 -31 37 -56 75
-97 146 -138 335 -100 465 26 91 73 171 132 225 117 107 259 142 414 102z
m2222 -77 c109 -16 218 -50 308 -96 53 -26 60 -33 55 -52 -4 -12 -13 -55 -22
-96 -8 -41 -16 -76 -18 -79 -3 -2 -14 1 -25 8 -50 26 -198 50 -315 50 l-118 0
6 31 c3 17 6 80 6 140 0 81 3 109 13 109 6 0 56 -7 110 -15z m-333 -100 c0
-54 -7 -123 -16 -159 l-16 -63 -51 -18 c-64 -22 -203 -95 -279 -146 l-57 -39
-11 36 c-7 22 -11 67 -8 108 11 162 132 287 348 357 93 30 90 33 90 -76z m992
-242 c109 -106 199 -224 260 -341 67 -128 67 -124 6 -152 -75 -33 -200 -81
-203 -78 -1 2 -9 44 -18 93 -23 141 -49 196 -163 352 -14 19 -14 33 -4 117 7
53 17 96 22 96 5 0 50 -39 100 -87z m-462 -162 c36 -13 79 -32 96 -43 28 -19
31 -28 43 -106 11 -81 50 -214 85 -294 20 -45 22 -44 -129 -53 -120 -8 -307 7
-420 32 -96 21 -284 93 -314 119 -2 1 26 39 61 83 54 67 159 230 170 262 12
35 304 35 408 0z m-3150 -98 c0 -20 82 -194 109 -232 l21 -29 -36 -21 c-19
-12 -38 -21 -41 -21 -2 0 -18 -10 -35 -21 -36 -26 -40 -22 -64 59 -20 67 -15
200 10 255 16 37 36 42 36 10z m1230 -211 c0 -60 -2 -111 -5 -114 -3 -3 -44
14 -91 38 -47 24 -116 53 -155 66 -38 12 -69 25 -69 29 0 20 212 87 278 88
l42 1 0 -108z m3671 28 c156 -53 221 -136 223 -285 2 -167 -98 -317 -271 -407
-103 -54 -107 -54 -155 -15 -100 79 -292 175 -395 198 -59 14 -58 11 -68 121
-4 36 -14 105 -24 152 -18 86 -18 86 3 99 46 30 209 97 292 121 124 34 118 34
232 35 79 1 116 -4 163 -19z m-4056 -217 c39 -9 95 -27 125 -40 68 -30 160
-84 160 -95 0 -15 -117 -8 -212 11 -93 20 -193 53 -259 86 -45 23 -45 22 -23
46 16 18 26 20 79 14 33 -3 92 -13 130 -22z m1610 -55 c242 -121 477 -167 778
-154 81 3 147 3 147 -2 0 -4 -10 -25 -23 -47 -24 -42 -31 -47 -152 -97 -140
-57 -221 -111 -314 -207 l-55 -56 -125 0 c-216 0 -356 54 -545 210 -51 42
-177 192 -175 210 0 5 39 29 87 53 48 23 125 69 172 101 84 57 85 58 110 41
14 -10 57 -33 95 -52z m-2140 15 c7 -19 -53 -143 -70 -143 -18 0 -115 64 -112
75 4 11 145 85 163 85 7 0 15 -8 19 -17z m3699 -48 c3 -8 8 -45 12 -80 l7 -66
-92 2 c-50 1 -93 5 -96 9 -5 8 143 150 156 150 4 0 9 -7 13 -15z m-4024 -178
c22 -18 66 -49 100 -67 99 -57 92 -44 74 -135 -24 -114 -24 -336 -1 -443 23
-109 46 -169 102 -266 24 -43 42 -82 40 -86 -10 -16 -144 -33 -226 -28 -148 9
-258 70 -336 186 -52 77 -73 143 -80 243 -13 191 67 393 227 572 28 31 54 57
57 57 3 0 22 -15 43 -33z m1417 -146 c47 -79 91 -209 104 -310 27 -209 -52
-431 -198 -555 -151 -130 -381 -159 -577 -72 l-59 26 84 64 c252 190 449 475
559 809 19 56 38 96 44 94 6 -2 25 -27 43 -56z m481 -5 c175 -233 516 -416
774 -416 l61 0 -7 -47 c-13 -103 27 -226 96 -295 55 -55 119 -47 167 21 27 38
26 67 -3 105 -58 77 -69 133 -40 205 14 35 23 42 67 57 74 24 182 79 256 131
35 24 65 43 66 41 2 -2 -8 -46 -22 -98 -21 -79 -26 -118 -27 -235 0 -83 5
-165 13 -200 25 -113 82 -234 153 -327 l28 -36 -25 -20 c-14 -11 -66 -41 -116
-67 -311 -161 -658 -187 -939 -72 -313 128 -527 383 -596 710 -19 91 -18 315
1 409 21 100 44 178 53 178 4 0 22 -20 40 -44z m-768 18 c0 -3 -16 -44 -36
-92 -101 -247 -263 -461 -454 -603 -101 -75 -120 -85 -132 -68 -69 110 -93
156 -115 224 -24 72 -27 95 -27 235 -1 101 4 174 13 208 l13 54 37 -6 c20 -3
97 -9 171 -12 146 -7 289 8 425 46 72 19 105 24 105 14z m2678 -103 c40 -32
102 -75 138 -96 37 -22 68 -44 71 -51 11 -28 -72 -286 -128 -396 -34 -66 -132
-206 -192 -273 l-54 -59 -32 44 c-125 172 -150 390 -71 628 29 88 88 211 118
245 29 33 71 21 150 -42z m521 -248 c54 -12 119 -17 224 -16 l148 1 41 -52
c71 -89 92 -147 92 -256 1 -87 -2 -100 -31 -161 -67 -137 -250 -269 -443 -320
-162 -42 -361 -32 -485 25 l-55 25 64 79 c91 113 143 193 198 302 42 83 115
288 133 373 4 21 10 27 22 23 8 -4 50 -14 92 -23z"/>
</g>
</svg>
