<?xml version="1.0" standalone="no"?>
<!DOCTYPE svg PUBLIC "-//W3C//DTD SVG 20010904//EN"
 "http://www.w3.org/TR/2001/REC-SVG-20010904/DTD/svg10.dtd">
<svg version="1.0" xmlns="http://www.w3.org/2000/svg"
 width="1280" height="720" viewBox="0 0 1280.000000 720.000000"
 preserveAspectRatio="xMidYMid meet">
<g transform="translate(0.000000,720.000000) scale(0.100000,-0.100000)"
fill="#5f9234" stroke="none">
<path d="M3886 4565 c-39 -36 -85 -141 -103 -235 -16 -79 -18 -84 -68 -126
-179 -155 -439 -182 -783 -84 -59 17 -126 38 -149 47 -98 36 -183 -31 -153
-121 15 -46 33 -56 185 -104 159 -51 249 -69 382 -80 195 -15 343 9 490 79 45
21 84 39 87 39 3 0 6 -8 6 -17 0 -10 15 -54 33 -99 l33 -81 -64 -69 c-127
-136 -218 -292 -268 -459 -24 -79 -27 -107 -27 -230 -1 -126 2 -148 27 -222
75 -227 273 -403 500 -443 174 -30 368 5 562 101 120 60 148 86 148 139 0 36
-5 47 -36 75 -45 41 -60 39 -218 -34 -139 -65 -224 -84 -350 -78 -157 7 -266
65 -345 183 -61 90 -80 158 -80 289 1 161 41 280 143 425 86 120 150 176 164
142 6 -15 130 -94 192 -122 411 -185 1026 -72 1356 250 118 115 155 189 154
305 0 60 -6 92 -21 127 -72 157 -302 232 -561 183 -218 -42 -940 -322 -1076
-418 -23 -16 -30 -17 -37 -6 -21 33 -39 118 -39 187 0 66 5 86 39 161 71 156
75 256 12 300 -41 30 -101 28 -135 -4z m1526 -431 c99 -39 121 -94 69 -175
-62 -95 -176 -182 -333 -252 -167 -74 -267 -98 -447 -104 -162 -6 -243 3 -355
38 -76 25 -188 87 -183 102 14 46 664 312 932 382 112 30 253 33 317 9z"/>
</g>
</svg>
