<?xml version="1.0" standalone="no"?>
<!DOCTYPE svg PUBLIC "-//W3C//DTD SVG 20010904//EN"
 "http://www.w3.org/TR/2001/REC-SVG-20010904/DTD/svg10.dtd">
<svg version="1.0" xmlns="http://www.w3.org/2000/svg"
 width="1280" height="720" viewBox="0 0 1280.000000 720.000000"
 preserveAspectRatio="xMidYMid meet">
<g transform="translate(0.000000,720.000000) scale(0.100000,-0.100000)"
fill="#5f9234" stroke="none">
<path d="M6250 5266 c-311 -109 -551 -476 -592 -906 l-12 -127 -45 35 c-47 35
-121 72 -147 72 -7 0 -16 12 -20 28 -80 359 -259 613 -516 731 -87 40 -129 50
-228 57 -202 15 -413 -75 -540 -232 -71 -88 -116 -183 -144 -306 -5 -24 -11
-28 -41 -28 -49 0 -81 -18 -110 -61 -29 -45 -70 -163 -80 -232 -6 -41 -15 -54
-59 -93 -62 -55 -117 -84 -216 -115 -63 -20 -96 -24 -205 -23 -146 0 -266 21
-445 80 -58 19 -118 34 -132 34 -33 0 -84 -42 -92 -76 -10 -38 11 -92 42 -108
31 -16 181 -67 264 -91 166 -46 420 -59 564 -30 76 16 239 78 250 96 11 18 34
9 34 -13 0 -13 15 -57 33 -99 l33 -75 -75 -81 c-168 -179 -272 -407 -287 -627
-15 -218 45 -384 196 -536 187 -189 463 -240 756 -140 l58 20 51 -34 c107 -73
205 -110 344 -131 291 -44 567 76 727 317 164 246 179 587 40 891 -14 32 -26
61 -26 66 0 7 190 55 194 49 49 -88 169 -237 246 -304 102 -90 145 -109 190
-85 83 46 89 142 13 196 -56 39 -166 151 -210 213 -25 35 -44 64 -42 65 2 1
34 16 70 34 144 69 332 205 442 319 223 232 341 513 324 774 -14 206 -83 343
-222 438 -95 64 -265 81 -385 38z m255 -205 c48 -21 83 -61 116 -128 22 -43
24 -61 24 -183 0 -115 -3 -145 -24 -205 -81 -243 -264 -451 -532 -610 -50 -30
-108 -60 -127 -66 -42 -14 -46 -10 -67 86 -49 212 -41 435 21 630 70 217 229
417 379 478 55 22 160 21 210 -2z m-1744 -129 c156 -41 291 -167 392 -367 28
-57 72 -193 64 -201 -3 -3 -38 -10 -79 -15 -145 -20 -335 -103 -470 -204 -68
-51 -73 -53 -181 -70 l-111 -17 -32 39 c-75 89 -144 276 -144 392 0 126 58
260 149 343 115 105 258 140 412 100z m-731 -678 c0 -21 60 -153 96 -211 l33
-52 -67 -38 c-37 -21 -70 -39 -73 -41 -4 -2 -15 19 -25 45 -26 66 -26 232 -1
286 17 36 37 42 37 11z m1230 -212 c0 -60 -3 -111 -6 -114 -3 -4 -49 15 -102
42 -53 26 -123 56 -154 66 -32 10 -58 21 -58 25 0 20 209 87 278 88 l42 1 0
-108z m-384 -188 c68 -15 151 -50 233 -96 47 -27 52 -33 37 -43 -42 -31 -382
49 -486 114 -12 8 -11 13 5 31 17 19 26 20 85 14 36 -3 92 -12 126 -20z m-536
-40 c11 -13 8 -26 -21 -79 -19 -36 -38 -65 -43 -65 -19 0 -117 63 -114 74 3
10 143 85 159 86 4 0 12 -7 19 -16z m-320 -227 c22 -18 66 -49 100 -67 99 -57
92 -44 73 -135 -11 -53 -16 -129 -16 -225 -1 -193 22 -292 102 -453 32 -64 56
-119 52 -121 -23 -15 -144 -28 -218 -24 -150 8 -261 68 -338 184 -61 90 -80
158 -80 289 1 163 45 291 150 433 46 64 123 152 132 152 3 0 22 -15 43 -33z
m1437 -182 c207 -400 39 -859 -345 -940 -37 -8 -86 -15 -109 -15 -92 0 -283
57 -283 84 0 6 14 20 32 31 41 24 164 131 222 193 171 184 295 397 376 647 12
39 27 78 32 89 9 17 11 16 30 -10 10 -16 31 -51 45 -79z m-307 49 c0 -3 -16
-44 -36 -92 -102 -248 -264 -463 -455 -604 -118 -87 -113 -86 -154 -31 -44 61
-92 175 -112 267 -17 81 -13 300 8 374 12 43 12 44 48 38 20 -3 93 -9 162 -12
142 -8 262 4 409 40 100 25 130 30 130 20z"/>
</g>
</svg>
