<?xml version="1.0" standalone="no"?>
<!DOCTYPE svg PUBLIC "-//W3C//DTD SVG 20010904//EN"
 "http://www.w3.org/TR/2001/REC-SVG-20010904/DTD/svg10.dtd">
<svg version="1.0" xmlns="http://www.w3.org/2000/svg"
 width="1280" height="720" viewBox="0 0 1280.000000 720.000000"
 preserveAspectRatio="xMidYMid meet">
<g transform="translate(0.000000,720.000000) scale(0.100000,-0.100000)"
fill="#5f9234" stroke="none">
<path d="M6249 5266 c-310 -108 -550 -476 -591 -907 l-12 -129 -26 25 c-28 27
-141 85 -164 85 -9 0 -18 12 -22 28 -111 500 -438 813 -825 788 -283 -18 -526
-220 -589 -491 l-17 -70 -44 -5 c-24 -3 -54 -11 -65 -18 -44 -24 -101 -157
-118 -274 -6 -41 -14 -54 -59 -93 -63 -56 -118 -85 -217 -116 -63 -20 -96 -24
-205 -24 -71 1 -157 6 -190 13 -117 25 -182 42 -270 72 -108 36 -135 37 -173
5 -58 -49 -50 -131 16 -164 38 -19 154 -58 252 -85 203 -55 446 -63 612 -20
35 9 100 33 145 55 45 21 84 39 87 39 2 0 7 -17 11 -37 4 -21 19 -65 34 -98
l28 -60 -69 -73 c-123 -130 -229 -318 -274 -483 -22 -81 -25 -299 -6 -379 27
-110 90 -218 177 -307 70 -71 95 -89 176 -127 52 -24 121 -49 153 -55 124 -23
289 -8 433 40 l63 21 39 -31 c108 -86 290 -143 456 -143 273 0 485 112 625
331 25 39 47 70 50 70 4 1 12 -16 19 -36 41 -111 181 -306 296 -408 101 -90
149 -122 270 -181 310 -150 674 -163 1026 -34 347 126 659 408 824 745 58 119
118 301 146 446 18 89 23 151 23 284 1 185 -10 276 -55 456 -105 426 -400 806
-776 1001 -187 97 -342 140 -553 154 l-105 7 -48 53 c-98 109 -197 154 -335
153 -64 0 -105 -6 -153 -23z m246 -200 c19 -8 35 -17 35 -19 0 -3 -29 -15 -64
-28 -89 -31 -116 -58 -116 -114 0 -35 6 -49 30 -73 43 -43 70 -46 139 -17 33
13 75 26 93 27 l33 3 3 -90 c2 -58 -3 -113 -13 -156 l-16 -66 -52 -18 c-216
-76 -473 -270 -624 -473 -26 -34 -50 -59 -55 -54 -4 4 -13 52 -19 107 -39 348
80 703 299 885 87 74 147 99 235 100 32 0 73 -7 92 -14z m-1745 -132 c157 -36
301 -167 403 -369 25 -51 72 -193 66 -200 -2 -2 -45 -10 -94 -19 -152 -26
-325 -102 -454 -199 -71 -53 -75 -55 -184 -72 l-111 -17 -28 34 c-76 91 -136
242 -145 363 -10 144 44 284 145 376 116 106 244 139 402 103z m2230 -79 c177
-26 319 -85 495 -203 97 -65 261 -223 323 -312 121 -172 195 -345 244 -574 18
-83 22 -134 22 -281 0 -157 -4 -196 -27 -306 -101 -477 -414 -845 -852 -999
-139 -49 -232 -64 -390 -64 -157 -1 -246 15 -374 67 -318 128 -532 386 -600
725 -16 79 -14 304 4 392 19 93 45 180 55 180 4 0 19 -17 33 -37 85 -120 281
-274 434 -341 139 -61 221 -77 393 -76 188 1 262 18 425 99 303 150 504 440
531 768 20 247 -115 492 -331 604 -143 74 -224 93 -397 93 l-120 0 6 31 c3 17
6 80 6 140 0 81 3 109 13 109 6 0 55 -7 107 -15z m204 -504 c108 -38 216 -123
254 -197 58 -115 67 -240 26 -380 -71 -249 -258 -432 -524 -515 -100 -32 -300
-33 -400 -4 -145 42 -269 116 -377 223 -67 67 -143 162 -143 178 0 6 15 16 34
22 56 20 237 133 332 207 97 75 179 156 243 239 37 48 135 203 143 227 6 18
94 28 223 25 101 -3 143 -9 189 -25z m-3154 -97 c0 -21 60 -153 96 -211 l33
-52 -71 -41 c-80 -46 -79 -47 -104 38 -20 67 -15 200 10 255 16 36 36 42 36
11z m1230 -212 c0 -60 -3 -111 -6 -114 -3 -4 -44 14 -91 38 -47 24 -116 54
-154 66 -38 12 -69 25 -69 28 0 22 207 88 278 89 l42 1 0 -108z m-367 -194
c87 -23 258 -105 265 -127 7 -22 -163 -7 -275 23 -78 22 -216 76 -232 91 -2 3
4 14 14 26 17 18 27 19 85 14 36 -4 100 -16 143 -27z m-553 -34 c11 -13 8 -26
-21 -79 -19 -36 -38 -65 -44 -65 -17 0 -115 64 -112 74 3 8 145 85 158 86 4 0
12 -7 19 -16z m-312 -233 c26 -22 78 -56 115 -76 58 -32 68 -41 63 -59 -21
-77 -38 -251 -33 -336 10 -176 44 -298 122 -434 24 -43 42 -82 40 -86 -10 -16
-144 -33 -226 -28 -148 9 -258 70 -336 186 -54 80 -73 143 -80 257 -11 189 68
380 232 563 26 28 49 52 52 52 2 0 25 -18 51 -39z m1410 -141 c72 -121 106
-249 106 -400 -1 -98 -5 -127 -28 -195 -37 -108 -79 -178 -144 -241 -106 -104
-213 -147 -367 -147 -81 0 -115 5 -180 26 -128 42 -129 43 -41 106 88 62 237
214 317 321 97 129 194 323 254 508 16 48 32 81 39 79 6 -2 26 -28 44 -57z
m-288 15 c0 -14 -77 -189 -108 -245 -102 -185 -237 -344 -387 -455 -112 -83
-109 -83 -146 -33 -44 61 -73 122 -101 208 -20 65 -23 95 -23 225 0 94 5 170
14 203 l13 54 37 -6 c20 -3 96 -9 169 -12 146 -8 248 3 402 41 98 24 130 29
130 20z"/>
</g>
</svg>
