<?xml version="1.0" standalone="no"?>
<!DOCTYPE svg PUBLIC "-//W3C//DTD SVG 20010904//EN"
 "http://www.w3.org/TR/2001/REC-SVG-20010904/DTD/svg10.dtd">
<svg version="1.0" xmlns="http://www.w3.org/2000/svg"
 width="1280" height="720" viewBox="0 0 1280.000000 720.000000"
 preserveAspectRatio="xMidYMid meet">
<g transform="translate(0.000000,720.000000) scale(0.100000,-0.100000)"
fill="#5f9234" stroke="none">
<path d="M7884 5321 c-88 -24 -150 -55 -231 -115 -64 -47 -169 -169 -204 -237
-19 -39 -33 -48 -44 -30 -11 19 -213 90 -310 110 -55 10 -147 23 -205 26
l-105 7 -48 54 c-97 108 -196 154 -333 154 -223 0 -430 -146 -587 -414 -89
-153 -138 -315 -158 -520 l-12 -127 -26 25 c-14 13 -55 38 -91 56 -36 17 -71
35 -79 38 -7 4 -23 48 -36 97 -81 318 -288 577 -533 669 -179 67 -347 60 -517
-23 -189 -91 -311 -253 -359 -473 -6 -25 -11 -28 -50 -28 -74 0 -127 -71 -166
-224 -11 -44 -20 -87 -20 -97 0 -22 -91 -103 -150 -134 -102 -52 -185 -70
-330 -69 -149 1 -287 26 -454 84 -112 38 -137 38 -178 1 -26 -23 -33 -37 -33
-68 0 -71 20 -87 161 -133 227 -74 421 -102 609 -89 108 8 183 28 292 80 45
22 84 39 87 39 3 0 6 -10 6 -22 0 -13 15 -57 33 -99 l33 -75 -72 -77 c-113
-120 -203 -271 -254 -427 -32 -99 -46 -251 -33 -353 22 -163 75 -269 196 -390
65 -66 94 -86 170 -122 51 -23 119 -48 151 -54 127 -24 283 -9 433 40 l62 20
33 -24 c135 -101 295 -151 478 -149 264 3 475 117 611 332 24 38 46 70 49 70
4 0 12 -17 19 -37 18 -52 105 -194 159 -262 60 -75 174 -184 248 -237 79 -57
248 -137 344 -164 104 -29 250 -50 345 -50 288 0 595 96 821 256 l61 43 74
-39 c41 -21 115 -51 164 -67 85 -27 99 -28 270 -27 167 0 187 2 270 27 188 58
332 144 451 270 202 215 229 493 72 749 -17 27 -29 50 -27 52 2 1 29 17 59 34
87 49 150 102 213 177 203 242 208 565 11 761 -70 70 -167 125 -267 151 -70
18 -235 22 -341 10 l-69 -9 31 54 c137 244 145 492 22 698 -75 127 -189 219
-336 271 -87 31 -283 36 -380 10z m282 -205 c124 -33 226 -115 277 -223 27
-58 31 -79 31 -153 1 -122 -35 -229 -116 -347 -33 -49 -196 -223 -208 -223 -5
0 -32 45 -62 100 -96 183 -264 385 -409 495 -35 27 -66 50 -68 51 -10 8 71
124 126 179 95 96 179 133 308 134 39 0 93 -5 121 -13z m-1677 -47 c18 -6 30
-16 28 -22 -2 -6 -32 -20 -68 -32 -128 -44 -227 -109 -319 -212 -131 -148
-165 -361 -88 -550 l26 -63 -29 -32 c-16 -18 -55 -65 -86 -105 -31 -39 -60
-70 -64 -68 -16 10 -31 211 -25 314 18 269 101 474 256 632 107 108 182 149
275 149 34 0 76 -5 94 -11z m-1740 -134 c99 -26 162 -64 246 -149 106 -107
190 -258 219 -393 7 -31 7 -32 -41 -38 -168 -23 -390 -116 -508 -212 -60 -49
-63 -50 -174 -67 l-113 -17 -33 38 c-75 86 -145 274 -145 392 0 295 275 519
549 446z m2301 -91 c84 -19 170 -49 243 -86 51 -25 58 -32 53 -51 -4 -12 -13
-55 -22 -96 -8 -41 -16 -76 -18 -78 -1 -2 -20 4 -41 13 -65 27 -182 44 -302
44 l-115 0 6 31 c3 17 6 81 6 141 l0 110 63 -7 c34 -4 91 -13 127 -21z m-400
-89 c0 -54 -7 -123 -16 -159 -16 -63 -16 -63 -67 -81 -63 -22 -198 -92 -273
-142 -72 -48 -79 -40 -79 80 0 86 2 96 34 155 52 96 162 175 311 223 93 30 90
33 90 -76z m1035 -286 c50 -52 116 -132 147 -179 63 -94 130 -228 122 -242 -3
-4 -22 -15 -42 -24 -62 -27 -203 -84 -207 -84 -2 0 -6 26 -10 58 -14 129 -65
251 -147 356 -21 27 -38 55 -38 63 0 20 20 155 26 171 6 20 44 -11 149 -119z
m-505 -119 c36 -12 79 -31 96 -43 28 -18 31 -27 43 -105 11 -81 50 -214 85
-294 9 -20 12 -39 8 -41 -4 -3 -61 -8 -127 -12 -147 -8 -326 7 -458 40 -92 22
-287 100 -287 114 0 3 29 41 64 84 54 66 157 225 169 260 5 17 86 26 217 23
98 -3 139 -8 190 -26z m-3150 -96 c0 -23 66 -169 95 -212 14 -20 25 -41 25
-47 0 -5 -30 -27 -67 -48 -75 -43 -74 -43 -99 41 -20 67 -15 200 10 255 16 36
36 42 36 11z m1230 -212 c0 -60 -2 -111 -5 -114 -3 -3 -43 14 -89 37 -45 23
-115 53 -154 66 -40 13 -72 26 -72 30 0 20 210 87 278 88 l42 1 0 -108z m3674
28 c205 -64 278 -257 178 -470 -36 -75 -139 -176 -227 -221 -108 -56 -104 -56
-180 1 -82 62 -265 153 -360 178 l-70 19 -7 78 c-4 43 -14 115 -23 160 -8 45
-15 88 -15 97 0 15 98 67 204 109 174 69 371 88 500 49z m-4059 -217 c107 -27
285 -111 285 -135 0 -15 -117 -8 -212 11 -93 20 -193 53 -259 86 -45 23 -45
22 -24 46 17 18 26 19 85 14 36 -4 92 -14 125 -22z m1619 -58 c150 -74 215
-96 370 -128 95 -19 143 -22 329 -22 119 0 217 -2 217 -5 0 -3 -10 -23 -23
-45 -25 -43 -29 -46 -170 -106 -127 -54 -203 -104 -285 -187 l-67 -67 -125 0
c-148 1 -227 18 -345 78 -82 41 -114 62 -199 132 -51 42 -176 192 -175 210 0
5 35 27 77 47 42 20 118 64 167 97 50 33 92 60 94 61 2 0 63 -29 135 -65z
m-2149 18 c7 -19 -53 -143 -70 -143 -18 0 -115 64 -112 75 3 11 143 85 162 85
7 0 16 -8 20 -17z m3704 -83 c6 -28 11 -64 11 -81 l0 -30 -86 2 c-47 2 -87 6
-89 10 -5 7 135 149 147 149 3 0 11 -23 17 -50z m-4014 -156 c22 -17 70 -49
108 -69 37 -20 67 -38 67 -38 0 -1 -7 -34 -15 -72 -49 -232 -20 -490 77 -679
23 -45 48 -89 56 -98 8 -9 11 -21 8 -26 -11 -18 -141 -35 -227 -30 -150 9
-264 73 -340 191 -145 225 -86 545 151 810 31 34 56 54 63 50 7 -4 30 -21 52
-39z m1383 -101 c93 -132 144 -353 121 -520 -55 -394 -420 -605 -777 -447
l-54 24 63 47 c125 91 279 254 376 399 74 109 162 297 209 444 14 44 29 80 34
80 5 0 17 -12 28 -27z m490 -26 c43 -64 169 -183 254 -240 165 -111 332 -172
498 -184 l86 -6 0 -87 c0 -81 3 -93 37 -163 65 -131 200 -237 364 -287 l71
-21 7 -77 c3 -42 9 -98 14 -124 4 -26 5 -51 2 -56 -14 -22 -182 -65 -326 -83
-324 -41 -664 88 -873 331 -112 131 -186 284 -221 458 -16 79 -14 308 4 394
18 88 45 178 54 178 3 0 16 -15 29 -33z m-758 7 c0 -3 -16 -44 -36 -92 -103
-250 -263 -462 -459 -607 -112 -83 -109 -83 -146 -33 -44 61 -73 122 -101 208
-20 65 -23 95 -23 225 0 94 5 170 14 203 l13 54 62 -9 c33 -4 133 -7 221 -7
154 1 236 12 385 53 42 11 70 13 70 5z m2716 -130 c48 -36 107 -75 131 -87 23
-12 43 -27 43 -33 0 -22 -38 -167 -59 -228 -35 -98 -118 -264 -137 -274 -28
-14 -149 -40 -225 -48 l-65 -6 -12 40 c-26 85 -35 201 -22 281 20 129 159 415
210 433 20 7 33 0 136 -78z m-506 -89 c0 -3 -20 -74 -45 -158 -25 -84 -55
-206 -66 -272 -11 -66 -22 -121 -24 -123 -7 -7 -80 20 -132 49 -97 55 -149
137 -140 222 6 64 31 95 93 117 72 25 207 96 257 136 40 32 57 40 57 29z m947
-120 c91 -24 240 -36 327 -27 l78 8 39 -45 c99 -115 132 -256 90 -384 -44
-130 -154 -240 -320 -318 -199 -93 -456 -103 -628 -25 l-55 26 40 47 c97 116
103 120 192 148 96 30 303 103 495 177 150 57 175 77 175 142 0 33 -6 48 -27
68 -55 52 -40 55 -432 -91 -74 -28 -136 -49 -138 -48 -1 2 18 66 42 142 24 77
47 152 50 168 3 15 7 27 10 27 2 0 30 -7 62 -15z"/>
</g>
</svg>
