<?xml version="1.0" standalone="no"?>
<!DOCTYPE svg PUBLIC "-//W3C//DTD SVG 20010904//EN"
 "http://www.w3.org/TR/2001/REC-SVG-20010904/DTD/svg10.dtd">
<svg version="1.0" xmlns="http://www.w3.org/2000/svg"
 width="1280" height="720" viewBox="0 0 1280.000000 720.000000"
 preserveAspectRatio="xMidYMid meet">
<g transform="translate(0.000000,720.000000) scale(0.100000,-0.100000)"
fill="#5f9234" stroke="none">
<path d="M4550 5154 c-286 -56 -478 -245 -544 -536 -6 -24 -11 -28 -42 -28
-60 0 -90 -23 -129 -102 -19 -41 -42 -109 -51 -153 -14 -76 -18 -82 -67 -128
-60 -57 -115 -86 -211 -116 -164 -51 -366 -35 -641 49 -38 12 -85 26 -103 31
-87 26 -160 -46 -131 -129 14 -41 35 -53 169 -95 237 -75 353 -92 553 -84 150
6 216 21 334 78 45 21 84 39 87 39 3 0 6 -8 6 -18 0 -18 38 -123 58 -158 8
-15 0 -29 -55 -89 -314 -338 -392 -771 -193 -1069 131 -194 319 -296 549 -296
89 0 211 21 297 50 l58 20 58 -39 c130 -87 290 -134 453 -133 367 2 644 230
725 600 20 88 27 202 12 202 -4 0 -16 14 -25 30 -16 27 -23 30 -67 30 -70 0
-93 -30 -108 -142 -23 -160 -79 -278 -182 -377 -84 -81 -235 -141 -360 -141
-93 0 -281 56 -280 84 1 6 32 33 69 59 263 185 485 527 590 910 17 59 33 112
36 116 3 5 29 25 57 44 80 53 164 147 201 224 28 59 32 78 32 148 -1 96 -24
155 -82 210 -38 37 -116 82 -162 95 -21 5 -27 16 -39 76 -20 99 -83 256 -144
354 -64 104 -199 241 -288 293 -98 57 -207 88 -320 92 -52 2 -106 1 -120 -1z
m182 -215 c168 -35 316 -166 421 -374 25 -51 72 -193 66 -200 -2 -2 -44 -10
-94 -19 -49 -8 -118 -27 -153 -41 -35 -14 -121 -44 -190 -67 -244 -78 -649
-249 -733 -309 -36 -26 -41 -22 -64 55 -24 78 -20 191 9 251 20 42 25 47 30
30 20 -56 47 -105 59 -105 26 0 82 23 115 48 27 21 32 31 32 68 0 23 -5 55
-11 71 -20 53 -23 183 -5 252 63 245 282 389 518 340z m528 -866 c0 -43 -7
-134 -15 -203 -8 -69 -15 -126 -15 -127 0 0 -49 -22 -108 -47 -160 -67 -257
-87 -449 -93 -194 -7 -196 -6 -136 90 102 162 244 294 402 373 95 47 211 83
274 83 l47 1 0 -77z m-860 -214 c0 -6 -15 -32 -33 -58 -19 -25 -44 -65 -57
-88 -13 -24 -28 -43 -33 -43 -20 0 -118 63 -114 74 3 10 211 124 230 125 4 1
7 -4 7 -10z m-334 -305 c33 -23 79 -51 103 -63 38 -20 42 -25 37 -49 -61 -286
-39 -510 73 -735 32 -64 56 -119 52 -121 -23 -15 -144 -28 -218 -24 -150 8
-261 68 -338 184 -61 90 -80 158 -80 289 0 119 21 208 72 310 33 65 105 167
162 228 38 41 46 46 61 35 10 -7 44 -31 76 -54z m1073 -131 c-39 -123 -166
-344 -265 -463 -81 -98 -228 -226 -304 -265 -30 -15 -33 -15 -45 2 -41 55 -81
133 -108 210 -30 84 -31 96 -32 243 0 100 5 174 14 208 13 53 14 54 45 48 17
-3 90 -9 161 -12 152 -8 298 10 447 54 51 15 94 24 96 20 2 -4 -2 -25 -9 -45z"/>
</g>
</svg>
