<?xml version="1.0" standalone="no"?>
<!DOCTYPE svg PUBLIC "-//W3C//DTD SVG 20010904//EN"
 "http://www.w3.org/TR/2001/REC-SVG-20010904/DTD/svg10.dtd">
<svg version="1.0" xmlns="http://www.w3.org/2000/svg"
 width="1280" height="720" viewBox="0 0 1280.000000 720.000000"
 preserveAspectRatio="xMidYMid meet">
<g transform="translate(0.000000,720.000000) scale(0.100000,-0.100000)"
fill="#5f9234" stroke="none">
<path d="M7935 5334 c-126 -30 -176 -52 -272 -120 -70 -50 -160 -151 -205
-230 -16 -30 -33 -52 -36 -50 -4 2 -34 16 -66 30 -146 67 -308 104 -468 108
l-93 2 -55 59 c-105 114 -198 157 -335 157 -350 0 -675 -384 -740 -876 -8 -60
-15 -127 -15 -148 l0 -40 -27 26 c-30 29 -112 72 -156 83 -18 5 -29 16 -33 34
-34 150 -82 278 -145 384 -215 363 -601 501 -934 335 -164 -82 -294 -245 -335
-419 -7 -29 -14 -60 -16 -66 -2 -8 -19 -13 -41 -13 -56 0 -94 -28 -126 -94
-27 -55 -67 -190 -67 -227 0 -22 -91 -103 -150 -134 -103 -53 -185 -70 -330
-69 -149 1 -285 26 -454 84 -109 37 -136 37 -175 4 -37 -31 -49 -80 -28 -121
17 -32 35 -43 122 -73 274 -94 543 -125 740 -85 77 16 240 78 251 96 12 21 32
6 39 -28 4 -20 19 -64 34 -98 l28 -61 -76 -81 c-123 -132 -229 -323 -270 -488
-22 -85 -25 -231 -8 -328 35 -203 172 -382 357 -471 173 -83 369 -88 587 -15
l61 20 52 -37 c67 -48 210 -109 291 -125 88 -16 250 -14 333 5 191 45 341 150
446 315 43 67 60 84 60 60 0 -21 71 -153 124 -228 62 -91 200 -231 288 -295
90 -64 254 -140 366 -170 592 -158 1233 113 1579 669 175 281 263 654 234 993
-10 120 -38 287 -55 332 -4 10 16 32 64 68 178 136 319 333 382 532 32 103 32
264 0 365 -59 190 -202 336 -398 406 -45 16 -89 22 -184 25 -69 1 -134 1 -145
-2z m307 -246 c186 -88 272 -266 223 -463 -20 -80 -70 -187 -116 -248 -38 -49
-190 -207 -200 -207 -4 0 -30 42 -58 94 -102 191 -261 385 -413 505 -67 52
-68 53 -54 80 26 50 105 148 148 183 91 75 166 98 298 95 86 -2 102 -6 172
-39z m-1747 -22 c19 -8 35 -17 35 -20 0 -2 -30 -14 -67 -27 -246 -80 -427
-269 -456 -475 -13 -91 0 -205 35 -290 l24 -61 -85 -106 c-47 -58 -89 -103
-93 -99 -15 15 -30 201 -24 301 18 278 99 483 256 643 106 108 181 148 278
148 34 0 78 -7 97 -14z m-1734 -134 c157 -44 292 -170 392 -367 25 -51 72
-193 66 -200 -2 -2 -45 -10 -94 -19 -152 -26 -325 -102 -454 -199 -71 -53 -75
-55 -184 -72 l-111 -17 -28 34 c-74 88 -135 243 -145 366 -10 139 44 281 144
372 117 107 264 143 414 102z m2222 -77 c109 -16 218 -50 308 -96 57 -28 60
-32 54 -57 -4 -15 -13 -58 -22 -97 -8 -38 -16 -71 -18 -73 -2 -2 -12 1 -23 7
-54 29 -190 51 -311 51 l-123 0 6 31 c3 17 6 80 6 140 0 81 3 109 13 109 6 0
56 -7 110 -15z m-333 -100 c0 -54 -7 -123 -16 -159 l-16 -63 -51 -18 c-64 -22
-203 -95 -279 -146 l-57 -39 -11 36 c-34 102 17 266 104 338 57 46 184 115
244 131 85 24 82 27 82 -80z m962 -212 c86 -81 124 -124 190 -210 52 -70 158
-258 158 -280 0 -16 -244 -122 -255 -111 -3 3 -9 38 -15 79 -16 128 -62 235
-142 332 l-40 48 12 100 c7 54 17 99 22 99 5 0 37 -26 70 -57z m-432 -192 c36
-12 79 -32 96 -44 28 -18 33 -29 38 -79 9 -73 60 -257 87 -309 11 -22 17 -44
14 -48 -2 -5 -62 -12 -132 -16 -235 -13 -455 22 -641 103 -52 22 -96 43 -99
46 -3 3 24 41 59 85 54 67 159 230 170 262 6 18 94 28 218 25 98 -2 139 -8
190 -25z m-3150 -96 c0 -22 61 -157 96 -212 l33 -52 -35 -20 c-19 -12 -38 -21
-41 -21 -2 0 -18 -10 -35 -21 -36 -26 -40 -22 -64 59 -20 67 -15 200 10 255
16 35 36 42 36 12z m1230 -213 c0 -60 -3 -111 -6 -114 -3 -4 -44 14 -91 38
-47 24 -116 54 -154 66 -38 12 -69 25 -69 29 0 8 76 41 145 62 69 22 84 25
133 26 l42 1 0 -108z m-385 -189 c107 -27 285 -111 285 -135 0 -16 -128 -7
-231 16 -94 22 -226 68 -269 95 -12 8 -11 13 5 31 17 19 26 20 85 15 36 -4 92
-14 125 -22z m1610 -55 c243 -121 478 -168 778 -154 101 4 147 3 147 -4 0 -14
-24 -51 -76 -121 -87 -114 -256 -223 -415 -266 -90 -25 -290 -24 -379 1 -139
40 -285 129 -389 235 -61 63 -131 153 -130 167 0 5 39 28 87 52 48 23 125 69
172 101 84 57 85 58 110 41 14 -10 57 -33 95 -52z m-2145 16 c11 -13 8 -26
-21 -79 -19 -36 -38 -65 -44 -65 -17 0 -115 64 -112 74 3 9 144 86 158 86 4 0
12 -7 19 -16z m3698 -36 c26 -118 41 -338 24 -338 -32 0 -308 258 -300 281 2
6 44 26 93 43 50 18 104 40 120 49 45 25 51 21 63 -35z m-4010 -197 c26 -22
78 -56 115 -76 61 -34 68 -40 62 -62 -14 -59 -35 -224 -35 -283 0 -78 23 -234
45 -310 9 -30 41 -101 71 -157 29 -56 50 -104 46 -106 -24 -16 -144 -29 -219
-25 -152 9 -261 68 -340 186 -54 80 -74 144 -80 254 -11 190 68 384 232 566
26 28 49 52 52 52 2 0 25 -18 51 -39z m3848 -266 c56 -40 116 -81 133 -89 17
-9 31 -22 31 -29 -1 -69 -104 -347 -168 -451 -204 -338 -538 -566 -905 -621
-130 -19 -205 -19 -327 0 -421 64 -747 378 -819 789 -16 88 -13 303 4 388 19
89 46 178 54 178 3 0 21 -20 39 -44 93 -125 278 -269 429 -334 138 -60 221
-77 388 -76 179 0 264 19 414 90 185 87 323 216 444 416 l16 26 83 -85 c46
-47 129 -118 184 -158z m-2458 158 c94 -133 146 -353 122 -515 -38 -264 -200
-447 -438 -495 -65 -13 -91 -14 -165 -4 -79 10 -210 52 -222 70 -2 4 29 31 70
61 87 62 236 213 316 320 97 129 194 323 254 508 15 45 31 82 35 82 5 0 17
-12 28 -27z m-268 -19 c0 -3 -16 -44 -36 -92 -102 -248 -265 -465 -454 -604
-102 -74 -121 -84 -132 -67 -69 110 -93 156 -115 224 -24 72 -27 95 -27 235
-1 101 4 174 13 208 l13 54 62 -9 c33 -4 133 -7 221 -7 154 1 244 14 385 52
41 12 70 14 70 6z"/>
</g>
</svg>
