<?xml version="1.0" standalone="no"?>
<!DOCTYPE svg PUBLIC "-//W3C//DTD SVG 20010904//EN"
 "http://www.w3.org/TR/2001/REC-SVG-20010904/DTD/svg10.dtd">
<svg version="1.0" xmlns="http://www.w3.org/2000/svg"
 width="1280" height="720" viewBox="0 0 1280.000000 720.000000"
 preserveAspectRatio="xMidYMid meet">
<g transform="translate(0.000000,720.000000) scale(0.100000,-0.100000)"
fill="#5f9234" stroke="none">
<path d="M3886 4565 c-39 -36 -85 -141 -103 -235 -16 -79 -18 -84 -68 -126
-179 -155 -439 -182 -783 -84 -59 17 -126 38 -149 47 -98 36 -184 -34 -152
-125 14 -42 34 -53 186 -101 151 -48 248 -68 385 -79 190 -15 339 9 486 80 46
22 85 38 86 36 1 -2 10 -30 20 -63 10 -33 26 -76 36 -95 l18 -34 -65 -71
c-211 -227 -319 -499 -299 -752 23 -302 243 -552 530 -603 383 -67 838 180
1135 616 92 136 225 455 247 592 6 37 13 47 48 69 76 48 190 172 227 248 30
62 34 78 33 150 0 60 -6 92 -21 127 -72 157 -302 232 -561 183 -218 -42 -940
-322 -1076 -418 -23 -16 -30 -17 -37 -6 -21 33 -39 118 -39 187 0 64 5 86 35
152 74 164 79 264 16 309 -41 30 -101 28 -135 -4z m1526 -431 c104 -41 122
-96 62 -185 -55 -82 -88 -107 -150 -115 -44 -5 -58 -12 -74 -34 -11 -16 -20
-32 -20 -37 -1 -25 -144 -91 -282 -129 -74 -20 -124 -27 -247 -31 -162 -6
-243 3 -355 38 -76 25 -188 87 -183 102 14 46 664 312 932 382 112 30 253 33
317 9z m-1370 -564 c69 -53 194 -113 289 -139 149 -40 355 -52 502 -30 85 13
263 56 290 70 10 6 21 9 23 6 17 -17 -115 -302 -193 -415 -147 -215 -380 -397
-608 -473 -59 -20 -90 -24 -195 -24 -106 0 -133 4 -180 23 -118 48 -214 152
-255 277 -29 89 -27 254 4 355 12 41 34 97 48 125 51 100 180 265 209 265 8 0
37 -18 66 -40z"/>
</g>
</svg>
