<?xml version="1.0" standalone="no"?>
<!DOCTYPE svg PUBLIC "-//W3C//DTD SVG 20010904//EN"
 "http://www.w3.org/TR/2001/REC-SVG-20010904/DTD/svg10.dtd">
<svg version="1.0" xmlns="http://www.w3.org/2000/svg"
 width="1280" height="720" viewBox="0 0 1280.000000 720.000000"
 preserveAspectRatio="xMidYMid meet">
<g transform="translate(0.000000,720.000000) scale(0.100000,-0.100000)"
fill="#5f9234" stroke="none">
<path d="M6249 5266 c-240 -85 -456 -343 -543 -651 -27 -95 -56 -270 -56 -344
l0 -45 -27 26 c-31 29 -143 88 -167 88 -9 0 -18 12 -22 28 -79 359 -260 614
-519 732 -281 129 -616 38 -794 -215 -44 -62 -87 -154 -101 -215 -7 -30 -14
-61 -16 -67 -2 -8 -19 -13 -39 -13 -52 0 -89 -23 -118 -72 -28 -49 -61 -150
-71 -220 -6 -41 -14 -54 -59 -93 -63 -56 -118 -85 -217 -116 -63 -20 -96 -24
-205 -23 -157 0 -278 22 -460 84 -111 38 -136 38 -177 1 -26 -23 -33 -37 -33
-68 0 -68 22 -87 142 -127 186 -62 284 -83 447 -95 180 -14 329 11 474 81 46
22 85 38 86 36 1 -2 10 -30 20 -63 10 -33 26 -76 36 -95 l18 -35 -70 -73
c-123 -130 -231 -321 -273 -482 -9 -35 -19 -108 -21 -164 -11 -216 48 -377
191 -523 70 -71 95 -89 176 -127 52 -24 121 -49 153 -55 123 -23 289 -8 433
40 l61 20 49 -34 c134 -96 282 -141 458 -139 265 2 489 123 620 336 22 36 42
65 45 66 4 0 12 -17 19 -37 41 -111 181 -306 296 -408 101 -90 149 -122 270
-181 568 -276 1291 -75 1703 474 205 274 314 609 316 972 1 175 -10 269 -51
440 -75 314 -269 627 -519 836 -248 207 -540 323 -826 326 l-86 1 -52 58 c-99
113 -197 159 -338 159 -65 0 -104 -6 -153 -24z m246 -200 c19 -8 35 -17 35
-20 0 -2 -30 -14 -67 -27 -234 -76 -412 -253 -454 -450 -22 -102 -6 -210 54
-370 4 -11 -168 -218 -175 -211 -15 15 -30 201 -24 297 11 188 44 314 125 470
72 141 220 282 331 316 42 13 139 10 175 -5z m-1734 -134 c36 -10 92 -33 123
-52 128 -77 259 -256 313 -428 14 -45 24 -84 22 -86 -2 -2 -45 -11 -94 -20
-152 -26 -325 -102 -454 -199 -71 -53 -75 -55 -184 -72 l-111 -17 -32 39 c-76
89 -144 276 -144 392 0 125 58 260 148 342 118 108 256 142 413 101z m2303
-93 c315 -67 637 -316 819 -634 164 -285 223 -663 157 -1005 -81 -423 -339
-775 -695 -950 -155 -75 -245 -105 -386 -126 -191 -28 -363 -9 -534 58 -319
125 -535 385 -604 726 -16 79 -14 304 4 392 19 93 45 180 55 180 4 0 19 -17
33 -37 85 -120 281 -274 434 -341 138 -60 220 -76 393 -76 188 1 262 18 425
99 285 141 479 404 524 712 15 97 14 140 -5 231 -37 183 -158 345 -319 429
-143 74 -224 93 -397 93 l-120 0 6 31 c3 17 6 81 6 141 l0 109 58 -6 c31 -4
97 -15 146 -26z m-416 -84 c2 -58 -3 -113 -13 -156 l-16 -66 -52 -18 c-76 -27
-161 -70 -254 -131 l-82 -53 -12 42 c-29 109 18 260 105 331 84 68 256 149
306 143 12 -2 16 -21 18 -92z m534 -403 c108 -39 218 -124 256 -199 40 -78 55
-151 50 -247 -4 -72 -10 -98 -28 -126 -16 -25 -21 -29 -17 -12 3 12 1 22 -5
22 -5 0 -6 5 -2 12 5 8 2 9 -12 4 -34 -13 -38 -12 -42 14 -2 14 -9 28 -15 32
-6 4 -57 4 -113 1 -107 -6 -286 9 -391 32 -112 26 -323 108 -323 126 0 5 21
32 47 61 50 56 140 190 169 250 14 31 24 39 53 44 20 3 41 7 46 10 6 2 69 2
140 0 98 -3 144 -9 187 -24z m-3152 -98 c0 -21 60 -153 96 -211 l33 -52 -35
-20 c-19 -12 -38 -21 -41 -21 -2 0 -18 -10 -35 -21 -36 -26 -40 -22 -64 59
-20 67 -15 200 10 255 16 36 36 42 36 11z m1230 -212 c0 -60 -3 -111 -6 -114
-3 -4 -43 13 -88 37 -46 24 -115 53 -155 66 -39 13 -71 26 -71 30 0 21 206 87
278 88 l42 1 0 -108z m-367 -194 c84 -22 258 -104 265 -125 12 -39 -268 7
-409 66 -106 45 -107 45 -84 71 17 19 26 20 85 15 36 -4 100 -16 143 -27z
m1617 -62 c198 -101 456 -154 704 -143 125 5 166 11 197 28 17 9 18 7 9 -16
-26 -69 -119 -185 -199 -249 -79 -63 -178 -115 -281 -147 -98 -31 -301 -34
-395 -6 -147 43 -276 120 -382 225 -67 67 -143 162 -143 178 0 6 15 15 33 22
39 14 231 128 278 165 l33 26 41 -25 c22 -14 69 -40 105 -58z m-2170 28 c11
-13 8 -26 -21 -79 -19 -36 -38 -65 -44 -65 -17 0 -115 64 -112 74 3 8 145 85
158 86 4 0 12 -7 19 -16z m-312 -233 c26 -22 78 -56 115 -76 58 -32 68 -41 63
-59 -20 -70 -38 -251 -33 -336 10 -176 44 -298 122 -434 24 -43 42 -82 40 -86
-10 -16 -144 -33 -226 -28 -148 9 -258 70 -336 186 -53 78 -73 143 -80 253
-12 189 68 384 232 567 26 28 49 52 52 52 2 0 25 -18 51 -39z m1410 -141 c97
-162 133 -390 88 -560 -68 -260 -263 -421 -511 -424 -49 0 -115 6 -145 13 -74
19 -166 60 -154 69 5 5 41 31 80 60 83 61 227 207 305 312 97 129 194 323 254
508 16 48 32 81 39 79 6 -2 26 -28 44 -57z m-288 15 c0 -13 -68 -167 -103
-234 -98 -186 -237 -351 -392 -466 -112 -83 -109 -83 -146 -33 -44 61 -73 122
-101 208 -20 65 -23 95 -23 225 0 94 5 170 14 203 13 53 14 54 45 48 17 -3 93
-9 168 -12 151 -8 253 3 408 41 99 24 130 29 130 20z"/>
</g>
</svg>
