<?xml version="1.0" standalone="no"?>
<!DOCTYPE svg PUBLIC "-//W3C//DTD SVG 20010904//EN"
 "http://www.w3.org/TR/2001/REC-SVG-20010904/DTD/svg10.dtd">
<svg version="1.0" xmlns="http://www.w3.org/2000/svg"
 width="1280" height="720" viewBox="0 0 1280.000000 720.000000"
 preserveAspectRatio="xMidYMid meet">
<g transform="translate(0.000000,720.000000) scale(0.100000,-0.100000)"
fill="#5f9234" stroke="none">
<path d="M7935 5334 c-111 -28 -170 -52 -243 -101 -88 -58 -179 -157 -233
-250 -17 -29 -32 -53 -33 -53 -1 0 -31 14 -65 30 -135 66 -286 102 -481 116
l-95 6 -48 54 c-97 108 -196 154 -331 154 -202 0 -405 -130 -549 -350 -114
-175 -168 -331 -195 -562 l-16 -148 -26 24 c-14 13 -54 38 -90 56 -36 17 -71
35 -79 38 -7 4 -23 48 -36 97 -49 192 -141 361 -265 486 -88 89 -160 139 -260
180 -302 123 -647 -1 -813 -291 -23 -41 -57 -135 -71 -202 -6 -25 -11 -28 -50
-28 -74 0 -127 -71 -166 -224 -11 -44 -20 -87 -20 -97 0 -22 -91 -103 -150
-134 -100 -51 -186 -69 -325 -69 -146 0 -265 21 -445 80 -129 42 -151 42 -192
5 -26 -23 -33 -37 -33 -68 0 -71 20 -87 161 -133 226 -73 423 -102 604 -88
111 8 196 31 297 79 45 21 84 39 87 39 3 0 6 -8 6 -18 0 -18 38 -123 58 -158
9 -15 -1 -30 -63 -96 -115 -122 -204 -272 -255 -428 -32 -99 -46 -251 -33
-353 22 -162 75 -268 194 -390 65 -65 92 -84 170 -121 52 -24 121 -49 153 -55
124 -23 289 -8 433 40 l62 20 33 -24 c135 -101 295 -151 478 -149 264 3 475
117 611 332 24 38 46 70 49 70 4 0 12 -17 19 -37 52 -147 243 -382 404 -497
144 -102 353 -181 552 -207 168 -22 415 4 582 62 31 10 60 16 63 12 4 -5 17
-39 29 -76 92 -290 312 -551 566 -673 133 -63 203 -77 360 -71 140 6 187 17
305 77 313 157 518 449 601 855 29 142 31 383 4 520 -31 164 -114 385 -185
495 -18 28 -31 52 -29 54 2 1 27 15 54 31 221 126 354 323 371 547 11 154 -38
290 -142 394 -70 70 -167 125 -267 151 -70 18 -235 22 -341 10 l-69 -9 31 54
c134 238 144 484 29 687 -75 132 -193 229 -343 282 -44 15 -90 22 -184 24 -69
2 -134 2 -145 -1z m231 -218 c126 -33 225 -114 277 -224 27 -57 31 -78 31
-152 1 -122 -35 -229 -116 -347 -33 -49 -196 -223 -208 -223 -5 0 -32 44 -60
98 -65 121 -143 231 -238 335 -69 75 -189 183 -228 205 -16 9 -15 15 17 67 42
72 143 175 201 205 92 49 222 63 324 36z m-1671 -50 c19 -8 35 -17 35 -20 0
-2 -30 -14 -67 -27 -137 -44 -238 -111 -333 -216 -131 -148 -165 -361 -88
-550 l26 -63 -29 -32 c-16 -18 -55 -65 -86 -105 -31 -39 -60 -70 -64 -68 -16
10 -31 211 -25 314 18 268 101 473 256 632 106 109 181 149 278 149 34 0 78
-7 97 -14z m-1763 -127 c100 -21 177 -66 263 -153 106 -107 190 -259 219 -393
7 -31 7 -32 -41 -38 -168 -23 -390 -116 -508 -212 -60 -49 -63 -50 -174 -67
l-113 -17 -33 38 c-75 85 -145 274 -145 389 0 293 256 511 532 453z m2318 -95
c84 -19 170 -49 243 -86 51 -25 58 -32 53 -51 -4 -12 -13 -55 -21 -96 -8 -41
-16 -75 -18 -77 -1 -2 -39 9 -82 23 -67 22 -104 27 -228 31 l-149 5 6 30 c3
16 6 79 6 139 l0 110 63 -7 c34 -4 91 -13 127 -21z m-400 -89 c0 -54 -7 -123
-16 -159 -14 -58 -18 -64 -52 -76 -76 -27 -185 -81 -263 -131 -58 -38 -83 -49
-91 -41 -6 6 -13 48 -16 92 -4 77 -3 84 32 155 53 107 157 184 316 236 93 30
90 33 90 -76z m1030 -282 c82 -84 144 -161 183 -228 42 -72 96 -189 91 -197
-3 -4 -22 -15 -42 -24 -62 -27 -203 -84 -207 -84 -2 0 -6 26 -10 58 -14 131
-67 258 -148 355 l-39 48 11 91 c7 50 14 95 17 100 8 13 51 -22 144 -119z
m-500 -123 c36 -12 79 -31 96 -43 28 -18 31 -27 43 -105 11 -81 50 -214 85
-294 9 -20 12 -39 8 -41 -4 -3 -61 -8 -127 -12 -147 -8 -326 7 -458 40 -92 22
-287 100 -287 114 0 3 29 41 64 84 54 66 157 225 169 260 5 17 86 26 217 23
98 -3 139 -8 190 -26z m-3150 -97 c0 -21 67 -169 97 -213 12 -19 23 -39 23
-45 0 -5 -30 -27 -67 -48 -75 -43 -74 -43 -99 41 -20 67 -15 200 10 255 16 37
36 42 36 10z m1230 -211 c0 -60 -2 -111 -5 -114 -3 -3 -43 14 -89 37 -45 23
-115 53 -154 66 -40 13 -72 26 -72 30 0 10 121 60 182 75 29 7 72 13 96 13
l42 1 0 -108z m3712 16 c145 -67 213 -203 178 -355 -30 -127 -137 -259 -265
-325 -108 -55 -104 -55 -179 1 -104 79 -270 156 -423 197 -8 2 -13 21 -13 48
0 24 -9 97 -20 161 -11 64 -20 123 -20 130 0 24 200 111 344 150 78 22 108 25
216 22 110 -3 132 -6 182 -29z m-4079 -210 c84 -22 258 -104 265 -125 11 -34
-237 0 -370 50 -59 23 -126 53 -137 63 -2 2 4 13 14 25 17 18 27 19 85 14 36
-4 100 -16 143 -27z m1629 -68 c126 -59 199 -83 342 -113 95 -19 143 -22 329
-22 119 0 217 -2 217 -5 0 -3 -10 -23 -23 -45 -25 -43 -28 -46 -172 -107 -123
-52 -224 -119 -295 -195 l-55 -58 -125 0 c-148 1 -227 18 -345 78 -82 41 -114
62 -199 132 -52 43 -176 192 -176 211 0 7 10 14 23 18 32 8 240 129 284 165
l36 30 28 -20 c16 -11 75 -42 131 -69z m-2182 34 c11 -13 8 -26 -21 -79 -19
-36 -38 -65 -44 -65 -18 0 -115 64 -112 75 3 10 142 85 157 85 4 0 13 -7 20
-16z m3704 -57 c3 -13 8 -49 12 -80 l7 -58 -87 2 c-48 2 -89 6 -91 10 -5 7
135 149 146 149 4 0 9 -10 13 -23z m-4009 -183 c22 -17 71 -49 108 -69 58 -32
68 -41 63 -59 -14 -47 -36 -225 -36 -286 0 -78 23 -234 45 -310 9 -30 41 -101
70 -157 29 -57 50 -105 47 -107 -24 -15 -145 -28 -219 -24 -152 9 -261 68
-340 186 -54 80 -74 144 -80 254 -11 190 68 384 232 566 27 30 52 49 58 45 7
-4 30 -21 52 -39z m1402 -134 c74 -122 105 -240 105 -400 1 -100 -3 -126 -27
-199 -53 -157 -147 -269 -280 -332 -154 -74 -312 -75 -473 -3 l-55 24 69 51
c126 93 274 250 371 395 75 110 162 296 209 445 15 49 30 79 37 76 7 -2 27
-27 44 -57z m471 7 c43 -64 169 -183 254 -240 167 -112 331 -172 498 -184 l86
-6 0 -87 c0 -81 3 -93 37 -163 65 -131 207 -242 374 -292 l61 -18 6 -56 c3
-31 8 -90 12 -131 l6 -76 -59 -18 c-274 -87 -527 -85 -758 6 -316 124 -529
376 -600 711 -20 91 -20 314 0 409 18 88 45 178 54 178 3 0 16 -15 29 -33z
m-758 7 c0 -14 -76 -187 -108 -244 -109 -198 -220 -328 -387 -454 -112 -84
-109 -84 -146 -34 -44 61 -73 122 -101 208 -20 65 -23 95 -23 225 0 94 5 170
14 203 l13 54 62 -9 c33 -4 133 -7 221 -7 154 1 236 12 385 53 42 11 70 13 70
5z m2694 -114 c43 -33 103 -74 135 -91 31 -18 58 -33 59 -35 6 -4 -19 -116
-45 -199 -33 -106 -126 -301 -149 -313 -28 -14 -149 -40 -225 -48 l-66 -6 -16
68 c-26 108 -30 176 -17 256 14 84 72 226 143 346 61 104 72 106 181 22z
m-484 -108 c0 -5 -10 -38 -21 -73 -41 -122 -69 -235 -90 -354 -11 -66 -22
-121 -24 -123 -7 -7 -80 20 -132 49 -120 68 -169 174 -127 278 14 35 23 42 67
57 76 25 215 97 267 137 46 37 60 43 60 29z m971 -124 c68 -17 113 -21 234
-21 l150 0 42 -52 c115 -140 132 -305 48 -450 -28 -48 -114 -134 -175 -176
-214 -143 -529 -180 -737 -85 l-55 26 40 47 c95 113 103 119 192 147 96 30
303 105 495 178 150 57 175 77 175 143 0 37 -5 47 -35 74 -20 17 -45 31 -56
31 -11 0 -82 -23 -157 -51 -75 -28 -184 -68 -242 -89 -57 -22 -105 -38 -107
-37 -1 2 18 65 42 142 24 77 46 152 50 168 3 15 7 27 9 27 2 0 41 -10 87 -22z
m639 -745 c0 -77 -22 -229 -44 -315 -81 -303 -275 -544 -521 -647 -53 -22 -74
-25 -190 -26 -113 0 -138 3 -190 23 -223 86 -401 289 -504 571 -32 87 -38 121
-22 121 5 0 45 24 90 54 l81 54 63 -34 c34 -19 105 -48 157 -66 94 -32 97 -33
285 -32 l190 0 110 37 c185 63 313 142 420 260 33 36 63 66 68 66 4 1 7 -29 7
-66z"/>
</g>
</svg>
