<?xml version="1.0" standalone="no"?>
<!DOCTYPE svg PUBLIC "-//W3C//DTD SVG 20010904//EN"
 "http://www.w3.org/TR/2001/REC-SVG-20010904/DTD/svg10.dtd">
<svg version="1.0" xmlns="http://www.w3.org/2000/svg"
 width="1280" height="720" viewBox="0 0 1280.000000 720.000000"
 preserveAspectRatio="xMidYMid meet">
<g transform="translate(0.000000,720.000000) scale(0.100000,-0.100000)"
fill="#5f9234" stroke="none">
<path d="M6250 5266 c-297 -104 -531 -445 -585 -850 -8 -61 -15 -127 -15 -148
l0 -38 -47 36 c-48 37 -123 74 -149 74 -7 0 -16 12 -20 28 -52 234 -140 412
-275 556 -173 185 -416 270 -639 222 -264 -56 -451 -248 -514 -528 -5 -24 -11
-28 -41 -28 -49 0 -81 -18 -110 -61 -29 -45 -70 -163 -80 -232 -6 -41 -15 -54
-59 -93 -62 -55 -117 -84 -216 -115 -63 -20 -96 -24 -205 -23 -146 0 -266 21
-445 80 -58 19 -118 34 -132 34 -33 0 -84 -42 -92 -76 -10 -38 11 -92 42 -108
80 -41 315 -108 442 -126 111 -16 294 -13 386 5 76 16 239 78 250 96 11 18 34
9 34 -13 0 -13 15 -57 33 -99 l33 -75 -75 -81 c-168 -179 -272 -407 -287 -627
-15 -217 45 -383 196 -537 184 -188 464 -239 756 -139 l58 20 51 -34 c194
-132 453 -174 673 -111 460 133 667 689 441 1182 -16 35 -29 67 -29 71 0 5 35
17 78 27 370 87 746 327 946 605 130 180 206 396 206 587 0 205 -79 380 -216
473 -104 72 -268 91 -394 46z m255 -205 c48 -21 83 -61 116 -128 22 -43 24
-61 24 -183 0 -115 -3 -145 -24 -205 -81 -243 -264 -451 -532 -610 -50 -30
-108 -60 -127 -66 -42 -14 -46 -10 -67 85 -65 282 -32 560 93 798 70 135 202
269 307 311 55 22 160 21 210 -2z m-1744 -129 c156 -41 291 -167 392 -367 25
-51 72 -193 66 -200 -2 -2 -45 -10 -96 -19 -152 -26 -323 -102 -455 -201 -68
-51 -73 -53 -181 -70 l-111 -17 -28 34 c-112 133 -172 360 -134 507 66 257
297 398 547 333z m-731 -678 c0 -21 60 -153 96 -211 l33 -51 -71 -41 c-80 -47
-79 -47 -104 37 -20 67 -15 200 10 255 16 36 36 42 36 11z m1230 -212 c0 -60
-3 -111 -6 -114 -3 -4 -49 15 -102 42 -53 26 -123 56 -154 66 -32 10 -58 21
-58 25 0 20 209 87 278 88 l42 1 0 -108z m-390 -187 c72 -16 154 -49 239 -97
47 -27 52 -33 37 -43 -43 -32 -390 51 -486 115 -13 9 -11 13 9 31 27 22 75 21
201 -6z m-530 -41 c11 -13 8 -26 -21 -79 -19 -36 -38 -65 -43 -65 -19 0 -117
63 -114 74 3 10 143 85 159 86 4 0 12 -7 19 -16z m-320 -227 c22 -18 66 -49
100 -67 99 -57 92 -44 73 -135 -11 -53 -16 -129 -16 -225 -1 -193 22 -292 102
-453 32 -64 56 -119 52 -121 -23 -15 -144 -28 -218 -24 -150 8 -261 68 -338
184 -61 90 -80 158 -80 289 1 163 45 291 150 433 46 64 123 152 132 152 3 0
22 -15 43 -33z m1437 -182 c207 -400 39 -859 -345 -940 -37 -8 -86 -15 -109
-15 -95 0 -283 57 -283 86 0 8 3 14 8 14 15 0 129 92 196 158 197 194 337 423
426 697 12 39 27 78 32 89 9 17 11 16 30 -10 10 -16 31 -51 45 -79z m-307 49
c0 -3 -16 -44 -36 -92 -102 -248 -264 -463 -455 -604 -118 -87 -113 -86 -154
-31 -44 61 -92 175 -112 267 -17 81 -13 300 8 374 12 43 12 44 48 38 20 -3 93
-9 162 -12 142 -8 262 4 409 40 100 25 130 30 130 20z"/>
</g>
</svg>
