<?xml version="1.0" standalone="no"?>
<!DOCTYPE svg PUBLIC "-//W3C//DTD SVG 20010904//EN"
 "http://www.w3.org/TR/2001/REC-SVG-20010904/DTD/svg10.dtd">
<svg version="1.0" xmlns="http://www.w3.org/2000/svg"
 width="1280" height="720" viewBox="0 0 1280.000000 720.000000"
 preserveAspectRatio="xMidYMid meet">
<g transform="translate(0.000000,720.000000) scale(0.100000,-0.100000)"
fill="#5f9234" stroke="none">
<path d="M4510 5144 c-79 -17 -197 -72 -262 -121 -115 -88 -204 -237 -242
-405 -5 -24 -11 -28 -41 -28 -49 0 -81 -18 -110 -61 -29 -45 -70 -163 -80
-232 -6 -41 -15 -54 -59 -93 -56 -51 -161 -104 -246 -125 -33 -8 -106 -14
-180 -14 -140 1 -253 21 -437 80 -59 19 -120 35 -135 35 -33 0 -84 -41 -92
-76 -10 -38 11 -92 42 -108 31 -16 181 -67 264 -91 166 -46 420 -59 564 -30
76 16 239 78 250 96 10 16 34 9 34 -9 0 -18 38 -123 58 -158 8 -15 -2 -31 -66
-100 -126 -135 -222 -308 -268 -484 -22 -83 -25 -292 -5 -370 76 -296 337
-499 642 -500 87 0 209 21 295 50 l58 20 51 -34 c194 -132 453 -174 673 -111
462 134 667 688 438 1188 -14 32 -26 61 -26 65 0 5 35 16 78 26 42 10 119 34
170 52 586 211 982 671 982 1141 0 183 -81 391 -159 408 -60 13 -131 -46 -131
-109 0 -15 11 -44 24 -65 48 -75 59 -130 53 -259 -5 -124 -24 -198 -82 -312
-111 -219 -329 -414 -615 -548 -129 -61 -370 -137 -370 -117 0 4 14 23 31 43
18 20 46 66 63 102 27 56 31 76 31 145 -1 94 -23 151 -85 211 -42 41 -134 94
-163 94 -10 0 -19 6 -21 13 -2 6 -11 46 -21 87 -9 41 -34 116 -55 167 -160
394 -505 612 -850 537z m251 -212 c156 -41 291 -167 392 -367 25 -51 72 -193
66 -200 -2 -2 -45 -10 -96 -19 -149 -26 -325 -103 -449 -197 -34 -25 -66 -49
-71 -52 -5 -3 -59 -13 -119 -22 l-109 -17 -31 37 c-75 89 -144 279 -144 394 0
117 49 240 131 326 110 117 267 159 430 117z m-731 -678 c0 -21 60 -153 96
-211 l33 -52 -67 -38 c-37 -21 -70 -39 -73 -41 -4 -2 -15 19 -25 45 -26 66
-26 232 -1 286 17 36 37 42 37 11z m1230 -212 c0 -60 -2 -111 -5 -114 -3 -3
-45 14 -93 38 -48 24 -117 54 -154 66 -38 12 -68 25 -68 29 0 20 210 87 278
88 l42 1 0 -108z m-400 -184 c65 -12 151 -46 239 -95 56 -31 62 -37 48 -48
-34 -25 -265 18 -400 75 -104 44 -105 45 -82 70 17 19 26 21 80 15 33 -3 85
-11 115 -17z m-516 -51 c8 -12 7 -22 -2 -34 -6 -10 -22 -37 -34 -60 -12 -24
-26 -43 -31 -43 -20 0 -118 63 -115 74 4 13 149 87 162 83 5 -2 14 -11 20 -20z
m-278 -253 c33 -23 79 -51 102 -63 37 -19 43 -26 38 -44 -21 -79 -38 -252 -33
-337 11 -175 71 -374 147 -480 12 -16 19 -34 16 -39 -11 -17 -142 -34 -227
-29 -147 9 -258 70 -334 184 -61 90 -80 158 -80 289 0 86 5 126 24 185 39 127
108 242 213 356 36 39 43 43 58 32 10 -7 44 -31 76 -54z m1391 -149 c207 -400
39 -859 -345 -940 -37 -8 -86 -15 -109 -15 -95 0 -283 57 -283 86 0 8 3 14 8
14 14 0 128 91 195 156 77 75 164 180 227 273 56 84 160 302 199 419 17 52 34
98 37 104 7 11 33 -24 71 -97z m-312 33 c-4 -13 -23 -59 -42 -103 -103 -237
-261 -442 -447 -579 -115 -85 -110 -84 -151 -29 -44 61 -92 175 -112 267 -17
81 -13 300 8 375 l12 43 41 -6 c23 -4 96 -9 162 -13 136 -7 254 5 409 42 129
30 128 30 120 3z"/>
</g>
</svg>
