<?xml version="1.0" standalone="no"?>
<!DOCTYPE svg PUBLIC "-//W3C//DTD SVG 20010904//EN"
 "http://www.w3.org/TR/2001/REC-SVG-20010904/DTD/svg10.dtd">
<svg version="1.0" xmlns="http://www.w3.org/2000/svg"
 width="1280" height="720" viewBox="0 0 1280.000000 720.000000"
 preserveAspectRatio="xMidYMid meet">
<g transform="translate(0.000000,720.000000) scale(0.100000,-0.100000)"
fill="#5f9234" stroke="none">
<path d="M7935 5334 c-126 -30 -176 -52 -272 -120 -70 -50 -160 -151 -205
-231 -17 -30 -33 -53 -37 -51 -205 98 -344 135 -534 142 l-96 4 -52 56 c-102
111 -197 156 -335 156 -223 0 -430 -146 -587 -414 -88 -151 -138 -317 -159
-523 l-12 -123 -25 24 c-15 14 -55 39 -91 56 -36 17 -71 34 -79 38 -7 4 -23
48 -36 97 -143 563 -630 858 -1060 643 -180 -90 -299 -251 -349 -470 -6 -25
-11 -28 -47 -28 -54 0 -89 -26 -122 -92 -26 -51 -67 -192 -67 -229 0 -22 -91
-103 -150 -134 -101 -52 -186 -70 -325 -70 -71 1 -157 6 -190 13 -117 25 -182
42 -270 72 -111 38 -136 38 -177 1 -26 -23 -33 -37 -33 -68 0 -68 21 -86 142
-126 59 -19 133 -42 163 -50 177 -49 419 -62 565 -32 77 16 240 78 251 96 13
21 33 6 39 -28 4 -21 19 -65 34 -98 l28 -60 -69 -73 c-282 -299 -374 -703
-226 -1000 33 -68 61 -105 123 -169 69 -70 95 -89 176 -127 177 -83 369 -88
586 -15 l63 21 38 -30 c70 -55 196 -110 307 -133 82 -17 245 -14 329 5 191 45
341 150 446 315 43 67 60 84 60 60 0 -21 71 -152 124 -229 61 -90 199 -230
289 -294 89 -64 253 -140 365 -170 374 -100 796 -25 1132 200 l81 54 63 -34
c83 -44 170 -76 207 -76 88 0 135 82 90 156 -14 24 -37 38 -88 58 -89 35 -101
42 -88 59 6 8 45 60 87 116 92 121 146 210 193 321 32 75 84 234 100 303 4 21
10 27 22 23 118 -46 378 -54 515 -18 175 47 281 105 388 212 190 189 253 421
175 644 -59 170 -223 295 -435 332 -92 16 -175 15 -304 -2 l-48 -7 45 90 c71
140 91 218 91 348 0 85 -5 126 -22 180 -58 190 -202 336 -398 406 -45 16 -89
22 -184 25 -69 1 -134 1 -145 -2z m309 -247 c183 -87 269 -267 221 -462 -21
-84 -80 -201 -135 -270 -48 -58 -172 -185 -182 -185 -4 0 -30 44 -58 99 -82
156 -248 364 -369 464 -35 28 -75 61 -88 72 l-24 20 41 64 c23 36 66 89 96
118 96 94 180 124 326 119 86 -3 104 -7 172 -39z m-1749 -21 c19 -8 35 -17 35
-20 0 -2 -30 -14 -67 -27 -92 -30 -157 -63 -225 -115 -221 -171 -293 -410
-195 -653 l23 -58 -82 -102 c-46 -56 -87 -102 -91 -102 -17 0 -34 167 -29 282
9 198 42 323 125 484 61 119 186 249 281 294 74 35 165 42 225 17z m-1745
-132 c156 -35 301 -168 403 -369 25 -51 72 -193 66 -200 -2 -2 -45 -10 -94
-19 -152 -26 -310 -95 -450 -196 -78 -56 -83 -58 -189 -75 l-110 -17 -32 39
c-76 89 -144 276 -144 392 0 173 105 345 255 415 100 48 181 56 295 30z m2233
-79 c109 -16 218 -50 308 -96 57 -28 60 -32 54 -57 -4 -15 -13 -58 -22 -97 -8
-38 -16 -71 -18 -73 -2 -2 -12 1 -23 7 -54 29 -190 51 -311 51 l-123 0 6 31
c3 17 6 80 6 140 0 81 3 109 13 109 6 0 56 -7 110 -15z m-335 -100 c2 -58 -3
-113 -13 -156 l-16 -66 -52 -18 c-76 -27 -161 -70 -254 -131 l-82 -53 -11 36
c-35 103 16 263 108 340 54 46 151 98 232 124 84 28 85 27 88 -76z m994 -242
c109 -106 199 -224 260 -341 67 -128 67 -124 6 -152 -85 -37 -200 -81 -204
-77 -2 2 -8 37 -14 78 -16 128 -62 235 -142 332 l-40 48 12 100 c7 54 16 99
21 99 6 0 51 -39 101 -87z m-462 -162 c36 -12 79 -32 97 -44 28 -19 32 -28 38
-87 8 -74 44 -204 79 -288 13 -31 22 -60 20 -63 -2 -4 -59 -10 -126 -14 -149
-8 -336 8 -463 40 -76 19 -266 92 -282 109 -3 3 24 41 59 85 54 67 159 230
170 262 6 18 94 28 218 25 98 -2 139 -8 190 -25z m-3150 -100 c0 -10 27 -71
60 -137 33 -65 60 -121 60 -124 0 -3 -17 -14 -37 -25 -21 -10 -51 -28 -67 -38
-34 -24 -38 -19 -62 61 -20 67 -15 200 10 255 17 38 36 42 36 8z m1230 -209
c0 -60 -2 -111 -5 -114 -3 -3 -44 14 -91 38 -47 24 -116 53 -155 66 -38 12
-69 25 -69 29 0 20 212 87 278 88 l42 1 0 -108z m3671 28 c102 -35 157 -77
195 -152 79 -154 1 -380 -173 -500 -61 -42 -157 -85 -232 -104 -98 -25 -386
-10 -439 22 -2 1 -5 78 -8 171 -3 117 -11 205 -27 291 l-23 124 85 42 c176 87
313 125 459 125 78 1 117 -4 163 -19z m-4056 -217 c107 -27 285 -111 285 -135
0 -16 -128 -7 -231 16 -94 22 -226 68 -269 95 -12 8 -11 13 5 31 17 19 26 20
85 15 36 -4 92 -14 125 -22z m1610 -55 c242 -121 477 -167 778 -154 97 4 147
2 147 -4 0 -14 -46 -87 -89 -139 -39 -48 -142 -133 -206 -170 -118 -69 -282
-107 -424 -98 -201 12 -390 102 -540 256 -61 63 -131 153 -130 167 0 5 39 28
87 52 48 23 125 69 172 101 84 57 85 58 110 41 14 -10 57 -33 95 -52z m-2145
16 c11 -13 8 -26 -21 -79 -19 -36 -38 -65 -44 -65 -17 0 -115 64 -112 74 3 9
144 86 158 86 4 0 12 -7 19 -16z m3704 -51 c10 -31 26 -196 26 -261 l0 -64
-31 20 c-58 36 -179 142 -179 157 0 13 158 165 172 165 4 0 9 -8 12 -17z
m-4008 -188 c30 -25 82 -59 116 -76 55 -28 60 -32 54 -57 -37 -169 -44 -310
-21 -447 21 -131 40 -188 101 -302 29 -56 50 -104 46 -106 -24 -16 -144 -29
-219 -25 -152 9 -261 68 -340 186 -52 77 -73 143 -80 243 -13 191 67 393 227
572 28 31 54 57 56 57 2 0 29 -20 60 -45z m1401 -134 c82 -137 123 -327 103
-477 -38 -288 -226 -482 -490 -509 -81 -8 -204 13 -284 49 l-59 26 84 64 c97
73 229 208 310 316 97 129 194 323 254 508 16 48 32 81 39 79 6 -2 25 -27 43
-56z m477 -1 c38 -51 158 -169 216 -212 109 -81 236 -143 372 -180 116 -32
354 -32 472 0 99 27 247 97 321 152 31 23 58 40 60 38 2 -2 -8 -46 -22 -98
-23 -82 -26 -116 -27 -245 0 -209 28 -306 137 -472 64 -97 69 -86 -73 -161
-370 -196 -774 -199 -1090 -9 -242 145 -398 364 -456 640 -21 103 -18 312 6
427 24 111 39 160 48 160 4 0 20 -18 36 -40z m-764 14 c0 -3 -16 -44 -36 -92
-101 -246 -265 -464 -454 -604 -118 -87 -114 -86 -151 -36 -44 61 -73 122
-101 208 -20 65 -23 95 -23 225 0 94 5 170 14 203 l13 54 37 -6 c20 -3 93 -9
162 -12 143 -8 263 4 409 41 98 24 130 29 130 19z m2638 -71 c37 -31 101 -78
142 -104 125 -80 114 -63 94 -149 -16 -74 -66 -213 -105 -300 -33 -71 -141
-229 -201 -294 l-54 -59 -35 49 c-146 202 -150 491 -12 759 37 73 90 155 99
155 3 0 36 -26 72 -57z"/>
</g>
</svg>
