<?xml version="1.0" standalone="no"?>
<!DOCTYPE svg PUBLIC "-//W3C//DTD SVG 20010904//EN"
 "http://www.w3.org/TR/2001/REC-SVG-20010904/DTD/svg10.dtd">
<svg version="1.0" xmlns="http://www.w3.org/2000/svg"
 width="1280" height="720" viewBox="0 0 1280.000000 720.000000"
 preserveAspectRatio="xMidYMid meet">
<g transform="translate(0.000000,720.000000) scale(0.100000,-0.100000)"
fill="#5f9234" stroke="none">
<path d="M4511 5145 c-79 -18 -199 -74 -263 -122 -115 -88 -204 -237 -242
-405 -5 -24 -11 -28 -41 -28 -19 0 -45 -5 -59 -11 -49 -23 -105 -138 -127
-263 -10 -61 -15 -70 -63 -112 -66 -60 -169 -108 -276 -130 -151 -30 -353 -5
-604 76 -109 35 -149 35 -183 -3 -41 -44 -36 -120 10 -150 22 -14 163 -62 269
-91 97 -27 257 -47 374 -47 142 0 265 27 378 80 47 23 87 41 90 41 3 0 6 -8 6
-18 0 -18 38 -123 58 -158 8 -15 -1 -30 -59 -92 -255 -273 -355 -621 -263
-913 30 -96 103 -207 184 -282 71 -66 199 -133 291 -153 126 -27 304 -12 445
36 l58 20 58 -39 c132 -88 290 -134 458 -133 429 4 740 336 740 791 0 147 -30
283 -91 419 -16 34 -29 66 -29 71 0 4 39 16 86 25 48 10 101 24 118 33 45 21
80 75 72 109 -10 39 -54 92 -79 96 -12 2 -69 -9 -127 -24 -58 -15 -106 -28
-107 -28 -11 0 2 27 30 63 59 77 82 142 81 232 0 59 -5 92 -21 127 -34 74
-122 146 -218 178 -25 8 -35 17 -35 33 0 34 -39 163 -75 249 -52 122 -121 225
-215 318 -96 96 -165 141 -283 182 -102 36 -246 46 -346 23z m250 -213 c157
-41 290 -166 392 -367 25 -51 72 -193 66 -200 -2 -2 -47 -10 -99 -19 -52 -9
-133 -32 -180 -51 -47 -19 -150 -56 -230 -83 -80 -27 -192 -68 -250 -91 l-104
-41 -22 27 c-40 50 -93 167 -114 247 -24 94 -25 171 -5 249 66 254 297 394
546 329z m-731 -678 c0 -21 60 -153 97 -211 l33 -53 -43 -21 c-23 -12 -54 -30
-69 -40 -14 -11 -28 -19 -31 -19 -16 0 -40 97 -44 180 -4 82 -2 102 17 143 20
44 40 55 40 21z m1230 -212 c0 -60 -3 -111 -6 -114 -3 -4 -49 15 -102 42 -53
26 -123 56 -154 66 -32 10 -58 21 -58 24 0 23 200 88 278 89 l42 1 0 -108z
m-381 -190 c75 -16 272 -108 278 -128 6 -20 -26 -24 -105 -13 -106 14 -223 45
-307 80 -102 43 -103 44 -80 69 17 19 26 21 80 15 33 -3 93 -14 134 -23z
m-529 -56 c0 -18 -63 -125 -74 -126 -19 0 -117 63 -113 73 2 6 36 28 77 49 56
29 77 35 91 27 11 -5 19 -16 19 -23z m-284 -242 c33 -23 79 -51 102 -63 37
-19 43 -26 38 -45 -3 -13 -13 -72 -22 -132 -32 -215 -1 -415 95 -607 32 -64
56 -119 52 -121 -23 -15 -144 -28 -218 -24 -150 8 -261 68 -338 184 -61 90
-80 158 -80 289 0 87 5 126 24 185 40 128 108 242 213 356 36 39 43 43 58 32
10 -7 44 -31 76 -54z m1391 -149 c207 -399 38 -859 -344 -940 -37 -8 -88 -15
-113 -15 -97 0 -280 56 -280 86 0 8 3 14 8 14 14 0 128 91 195 156 76 74 163
179 226 270 55 81 161 305 200 422 17 52 34 98 37 104 7 11 33 -24 71 -97z
m-312 33 c-4 -13 -23 -59 -42 -103 -103 -237 -261 -442 -447 -579 -114 -84
-110 -84 -147 -34 -38 52 -80 142 -105 223 -23 76 -27 331 -5 413 13 51 15 54
40 48 14 -3 85 -9 157 -12 146 -8 260 4 419 41 131 31 138 31 130 3z"/>
</g>
</svg>
