<?xml version="1.0" standalone="no"?>
<!DOCTYPE svg PUBLIC "-//W3C//DTD SVG 20010904//EN"
 "http://www.w3.org/TR/2001/REC-SVG-20010904/DTD/svg10.dtd">
<svg version="1.0" xmlns="http://www.w3.org/2000/svg"
 width="1280" height="720" viewBox="0 0 1280.000000 720.000000"
 preserveAspectRatio="xMidYMid meet">
<g transform="translate(0.000000,720.000000) scale(0.100000,-0.100000)"
fill="#5f9234" stroke="none">
<path d="M7935 5334 c-126 -30 -176 -52 -272 -120 -70 -50 -160 -151 -205
-230 -16 -30 -32 -54 -34 -54 -2 0 -18 8 -36 18 -54 30 -158 68 -249 91 -84
21 -280 42 -322 34 -17 -3 -35 10 -75 56 -100 114 -198 161 -338 161 -223 0
-430 -146 -587 -414 -88 -151 -138 -317 -159 -523 l-12 -123 -25 24 c-29 28
-141 86 -165 86 -9 0 -18 12 -22 28 -51 230 -139 410 -269 550 -222 240 -538
306 -810 170 -168 -85 -299 -252 -338 -433 l-14 -60 -45 -5 c-62 -8 -89 -28
-121 -94 -27 -55 -67 -191 -67 -227 0 -22 -91 -103 -150 -134 -103 -53 -185
-70 -330 -69 -149 1 -285 26 -454 84 -109 37 -136 37 -175 4 -54 -45 -48 -132
11 -162 71 -35 278 -94 411 -117 127 -21 309 -21 412 0 77 16 240 78 251 96
11 18 34 9 34 -13 0 -13 15 -57 33 -99 l33 -75 -75 -81 c-123 -132 -230 -324
-270 -488 -21 -83 -24 -241 -7 -333 45 -252 258 -471 503 -518 137 -26 290
-13 440 37 l63 21 38 -30 c70 -55 196 -110 307 -133 82 -17 245 -14 329 5 191
45 341 150 446 315 43 67 60 84 60 60 0 -21 71 -152 124 -229 61 -90 199 -230
289 -294 267 -190 652 -261 998 -182 522 119 928 494 1100 1017 21 66 39 127
39 137 0 38 12 41 90 20 60 -17 105 -21 230 -21 138 1 165 3 245 27 273 80
460 244 543 479 22 61 26 89 25 182 0 166 -39 264 -150 373 -128 125 -345 183
-563 152 -50 -7 -92 -11 -95 -8 -2 2 13 38 35 79 70 130 93 217 94 349 0 92
-4 129 -21 185 -60 190 -204 336 -399 406 -45 16 -89 22 -184 25 -69 1 -134 1
-145 -2z m308 -247 c92 -43 154 -103 198 -189 31 -59 33 -70 33 -163 0 -136
-41 -247 -139 -375 -42 -54 -167 -182 -185 -188 -5 -2 -26 30 -46 70 -94 188
-269 403 -426 527 -67 52 -68 53 -54 80 26 50 105 148 148 183 93 76 162 98
294 94 93 -2 108 -6 177 -39z m-1748 -21 c19 -8 35 -17 35 -20 0 -2 -30 -14
-67 -27 -92 -30 -157 -63 -225 -115 -168 -130 -248 -290 -234 -476 5 -76 13
-107 59 -229 4 -11 -168 -218 -175 -211 -15 15 -30 201 -24 301 18 278 99 483
256 643 106 108 181 148 278 148 34 0 78 -7 97 -14z m-1745 -132 c156 -35 301
-168 403 -369 25 -51 72 -193 66 -200 -2 -2 -45 -10 -94 -19 -152 -26 -325
-102 -454 -199 -71 -53 -75 -55 -184 -72 l-111 -17 -28 34 c-76 90 -135 240
-145 366 -19 258 180 486 430 491 26 1 79 -6 117 -15z m2233 -79 c109 -16 218
-50 308 -96 53 -26 60 -33 55 -52 -4 -12 -13 -55 -22 -96 -8 -41 -16 -76 -18
-79 -3 -2 -13 1 -24 7 -54 29 -190 51 -311 51 l-123 0 6 31 c3 17 6 80 6 140
0 81 3 109 13 109 6 0 56 -7 110 -15z m-333 -100 c0 -54 -7 -123 -16 -159
l-16 -63 -51 -18 c-67 -23 -205 -95 -278 -145 l-58 -39 -11 35 c-35 104 16
264 108 341 54 46 151 98 232 124 93 30 90 33 90 -76z m961 -212 c133 -122
225 -242 301 -390 45 -87 51 -105 38 -113 -24 -16 -193 -88 -222 -95 -25 -7
-27 -5 -32 42 -17 141 -66 266 -143 360 l-45 55 12 99 c7 54 16 99 21 99 4 0
36 -26 70 -57z m-431 -192 c36 -12 79 -32 96 -44 28 -18 33 -28 39 -80 7 -68
53 -231 83 -301 12 -26 20 -52 17 -56 -3 -4 -62 -11 -132 -15 -235 -13 -455
22 -641 103 -52 22 -96 43 -99 46 -3 3 24 41 59 85 54 67 159 230 170 262 6
18 94 28 218 25 98 -2 139 -8 190 -25z m-3150 -98 c0 -20 82 -194 109 -232
l21 -29 -36 -21 c-19 -12 -38 -21 -41 -21 -2 0 -18 -10 -35 -21 -36 -26 -40
-22 -64 59 -20 67 -15 200 10 255 16 37 36 42 36 10z m1230 -211 c0 -60 -3
-111 -6 -114 -3 -4 -44 14 -91 38 -47 24 -116 54 -154 66 -38 12 -69 25 -69
29 0 8 76 41 145 62 69 22 84 25 133 26 l42 1 0 -108z m3671 28 c103 -35 156
-77 197 -155 22 -42 26 -63 27 -136 0 -81 -2 -90 -42 -170 -60 -121 -130 -186
-266 -249 -111 -52 -175 -63 -332 -57 -121 5 -211 19 -229 38 -3 3 -7 74 -10
159 -5 183 -23 307 -62 441 -3 10 17 32 57 63 l61 48 33 -18 c37 -19 30 -20
210 30 120 33 267 36 356 6z m-4056 -217 c107 -27 285 -111 285 -135 0 -16
-128 -7 -231 16 -94 22 -226 68 -269 95 -12 8 -11 13 5 31 17 19 26 20 85 15
36 -4 92 -14 125 -22z m1610 -55 c243 -121 474 -167 772 -154 104 4 153 3 153
-4 0 -14 -24 -51 -76 -121 -87 -114 -255 -222 -415 -266 -90 -25 -280 -25
-374 1 -140 38 -288 126 -394 235 -60 63 -131 153 -131 167 0 6 15 15 33 22
39 14 231 128 278 165 32 25 33 25 58 8 15 -10 58 -34 96 -53z m-2145 16 c11
-13 8 -26 -21 -79 -19 -36 -38 -65 -44 -65 -18 0 -115 64 -112 75 2 9 142 84
158 85 4 0 12 -7 19 -16z m3698 -36 c18 -80 34 -237 30 -292 l-3 -49 -80 60
c-92 70 -229 207 -223 224 2 7 38 24 79 39 40 15 94 36 119 47 25 12 50 22 56
22 6 1 16 -23 22 -51z m-4010 -197 c26 -22 78 -56 115 -77 63 -34 68 -39 63
-63 -37 -167 -44 -309 -21 -446 21 -131 40 -188 101 -302 29 -56 50 -104 46
-106 -24 -16 -144 -29 -219 -25 -150 8 -261 69 -338 183 -53 79 -77 151 -82
257 -11 190 68 384 232 566 26 28 49 52 52 52 2 0 25 -18 51 -39z m3883 -289
c52 -34 103 -68 113 -75 19 -13 19 -15 1 -88 -112 -458 -421 -804 -852 -953
-109 -38 -271 -66 -374 -66 -267 0 -534 111 -715 296 -138 140 -219 291 -259
486 -20 92 -20 315 0 410 21 100 44 178 53 178 4 0 20 -18 36 -40 38 -51 158
-169 216 -212 109 -81 237 -143 372 -180 118 -32 344 -32 468 0 234 60 467
231 595 437 l44 70 104 -101 c58 -56 146 -128 198 -162z m-2493 181 c94 -133
146 -353 122 -515 -50 -343 -318 -552 -635 -495 -87 16 -204 63 -189 75 5 5
41 31 80 60 83 61 227 207 305 312 97 129 194 323 254 508 15 45 31 82 35 82
5 0 17 -12 28 -27z m-268 -19 c0 -3 -16 -44 -36 -92 -101 -246 -265 -464 -454
-604 -101 -74 -121 -84 -132 -67 -70 111 -93 157 -116 229 -24 76 -27 100 -27
235 0 94 5 170 14 203 l13 54 37 -6 c20 -3 93 -9 162 -12 143 -8 263 4 409 41
98 24 130 29 130 19z"/>
</g>
</svg>
