<?xml version="1.0" standalone="no"?>
<!DOCTYPE svg PUBLIC "-//W3C//DTD SVG 20010904//EN"
 "http://www.w3.org/TR/2001/REC-SVG-20010904/DTD/svg10.dtd">
<svg version="1.0" xmlns="http://www.w3.org/2000/svg"
 width="1280" height="720" viewBox="0 0 1280.000000 720.000000"
 preserveAspectRatio="xMidYMid meet">
<g transform="translate(0.000000,720.000000) scale(0.100000,-0.100000)"
fill="#5f9234" stroke="none">
<path d="M7880 5320 c-41 -11 -92 -30 -115 -41 -120 -63 -238 -177 -307 -296
-31 -55 -37 -60 -54 -43 -17 17 -159 71 -252 95 -50 14 -154 30 -230 36 l-137
12 -48 54 c-97 107 -197 153 -331 153 -180 0 -369 -106 -501 -283 -146 -193
-221 -392 -246 -650 l-12 -126 -31 27 c-18 15 -58 40 -91 55 -33 16 -66 31
-74 35 -7 4 -23 48 -36 97 -108 423 -421 714 -768 715 -132 0 -315 -67 -413
-151 -121 -105 -192 -226 -228 -391 -6 -25 -11 -28 -50 -28 -74 0 -127 -71
-166 -224 -11 -44 -20 -87 -20 -97 0 -22 -91 -103 -150 -134 -102 -52 -185
-70 -330 -69 -149 1 -287 26 -454 84 -112 38 -137 38 -178 1 -26 -23 -33 -37
-33 -68 0 -71 20 -87 161 -133 226 -73 423 -102 604 -88 111 8 196 31 297 79
45 21 84 39 87 39 3 0 6 -8 6 -18 0 -18 38 -123 58 -158 9 -15 -1 -30 -63 -96
-115 -122 -204 -272 -255 -428 -32 -99 -46 -251 -33 -353 22 -163 75 -269 196
-390 124 -125 276 -187 458 -187 87 0 204 20 296 51 l62 20 33 -24 c135 -101
295 -151 478 -149 264 3 475 117 611 332 24 38 46 70 49 70 4 0 12 -17 19 -37
52 -147 243 -382 404 -497 144 -102 353 -181 552 -207 168 -22 415 4 582 62
31 10 60 16 63 12 4 -5 17 -39 30 -78 91 -279 306 -542 541 -660 133 -68 188
-80 354 -80 166 0 200 8 330 73 142 71 261 168 350 287 70 93 85 127 74 173
-9 41 -40 69 -86 78 -52 10 -66 2 -115 -73 -84 -127 -225 -244 -362 -301 -54
-22 -76 -25 -191 -26 -114 -1 -138 2 -190 22 -223 87 -400 288 -506 573 -30
82 -36 119 -20 119 5 0 45 24 90 54 l81 54 63 -34 c34 -19 105 -48 157 -66 93
-32 98 -32 280 -33 183 0 186 0 290 33 171 55 295 126 403 231 231 223 270
514 105 783 -17 27 -29 50 -27 52 2 1 27 15 54 31 221 126 354 323 371 547 11
154 -38 290 -142 394 -70 70 -167 125 -267 151 -70 18 -235 22 -341 10 l-69
-9 31 54 c134 238 144 484 29 687 -75 132 -193 229 -343 282 -90 31 -284 36
-384 9z m286 -204 c124 -33 226 -115 277 -223 27 -58 31 -79 31 -153 1 -122
-35 -229 -116 -347 -33 -49 -196 -223 -208 -223 -5 0 -32 44 -60 98 -65 121
-143 231 -238 335 -69 75 -189 183 -228 205 -16 9 -15 15 17 67 42 72 143 175
201 205 92 49 222 63 324 36z m-1671 -50 c19 -8 35 -17 35 -20 0 -2 -30 -14
-67 -27 -137 -44 -238 -111 -333 -216 -131 -148 -165 -361 -88 -550 l26 -63
-29 -32 c-16 -18 -55 -65 -86 -105 -31 -39 -60 -70 -64 -68 -16 10 -31 211
-25 314 18 269 101 473 256 632 106 109 181 149 278 149 34 0 78 -7 97 -14z
m-1746 -131 c99 -26 162 -64 246 -149 106 -107 190 -258 219 -393 7 -31 7 -32
-41 -38 -168 -23 -390 -116 -508 -212 -60 -49 -63 -50 -174 -67 l-113 -17 -29
33 c-76 88 -137 241 -146 363 -22 312 257 557 546 480z m2301 -91 c84 -19 170
-49 243 -86 51 -25 58 -32 53 -51 -4 -12 -13 -55 -21 -96 -8 -41 -16 -75 -18
-77 -1 -2 -39 9 -82 23 -67 22 -104 27 -228 31 l-149 5 6 30 c3 16 6 79 6 139
l0 110 63 -7 c34 -4 91 -13 127 -21z m-400 -89 c0 -54 -7 -123 -16 -159 -16
-63 -16 -63 -67 -81 -63 -22 -198 -92 -273 -142 -72 -48 -79 -40 -79 80 0 86
2 96 34 155 52 96 162 175 311 223 93 30 90 33 90 -76z m1030 -282 c82 -84
144 -161 183 -228 42 -72 96 -189 91 -197 -3 -4 -22 -15 -42 -24 -62 -27 -203
-84 -207 -84 -2 0 -6 26 -10 58 -14 129 -65 251 -147 356 -21 27 -38 55 -38
63 0 20 20 155 26 171 6 20 44 -10 144 -115z m-500 -123 c36 -12 79 -31 96
-43 28 -18 31 -27 43 -105 11 -81 50 -214 85 -294 9 -20 12 -39 8 -41 -4 -3
-61 -8 -127 -12 -147 -8 -326 7 -458 40 -92 22 -287 100 -287 114 0 3 29 41
64 84 54 66 157 225 169 260 5 17 86 26 217 23 98 -3 139 -8 190 -26z m-3150
-97 c0 -21 67 -169 97 -213 12 -19 23 -39 23 -45 0 -5 -30 -27 -67 -48 -75
-43 -74 -43 -99 41 -20 67 -15 200 10 255 16 37 36 42 36 10z m1230 -211 c0
-60 -2 -111 -5 -114 -3 -3 -43 14 -89 37 -45 23 -115 53 -154 66 -40 13 -72
26 -72 30 0 10 121 60 182 75 29 7 72 13 96 13 l42 1 0 -108z m3712 16 c221
-102 250 -359 63 -565 -53 -58 -159 -130 -226 -152 -36 -12 -38 -11 -102 38
-105 79 -271 156 -424 197 -8 2 -13 21 -13 48 0 24 -9 97 -20 161 -11 64 -20
123 -20 130 0 24 200 111 344 150 78 22 108 25 216 22 110 -3 132 -6 182 -29z
m-4079 -210 c84 -22 258 -104 265 -125 11 -34 -237 0 -370 50 -59 23 -126 53
-137 63 -2 2 4 13 14 25 17 18 27 19 85 14 36 -4 100 -16 143 -27z m1629 -68
c126 -59 199 -83 342 -113 95 -19 143 -22 329 -22 119 0 217 -2 217 -5 0 -3
-10 -23 -23 -45 -25 -43 -29 -46 -170 -106 -127 -54 -203 -104 -285 -187 l-67
-67 -125 0 c-148 1 -227 18 -345 78 -82 41 -114 62 -199 132 -51 42 -177 192
-175 210 0 5 39 29 87 53 48 23 125 69 172 101 l85 58 27 -19 c15 -10 74 -41
130 -68z m-2182 34 c11 -13 8 -26 -21 -79 -19 -36 -38 -65 -44 -65 -18 0 -115
64 -112 75 3 10 142 85 157 85 4 0 13 -7 20 -16z m3709 -84 c6 -28 11 -64 11
-81 l0 -30 -86 2 c-47 2 -87 6 -89 10 -5 7 135 149 147 149 3 0 11 -23 17 -50z
m-4014 -156 c22 -17 71 -49 108 -69 58 -32 68 -41 63 -59 -14 -47 -36 -225
-36 -286 0 -78 23 -234 45 -310 9 -30 41 -101 70 -157 30 -56 51 -104 47 -107
-24 -15 -144 -28 -219 -24 -154 9 -267 71 -344 191 -51 78 -70 141 -76 249
-11 190 68 384 232 566 27 30 52 49 58 45 7 -4 30 -21 52 -39z m1383 -101 c94
-133 145 -351 121 -520 -45 -324 -305 -535 -609 -494 -76 10 -210 55 -210 71
0 4 35 35 78 68 81 63 201 182 269 267 119 148 224 352 289 555 14 44 29 80
34 80 5 0 17 -12 28 -27z m490 -26 c43 -64 169 -183 254 -240 167 -112 331
-172 498 -184 l86 -6 0 -87 c0 -81 3 -93 37 -163 65 -131 200 -237 364 -287
l71 -21 6 -57 c3 -31 8 -91 12 -132 l6 -76 -59 -18 c-274 -87 -527 -85 -758 6
-316 124 -529 376 -600 711 -20 91 -20 314 0 409 18 88 45 178 54 178 3 0 16
-15 29 -33z m-758 7 c0 -3 -16 -44 -36 -92 -102 -249 -263 -462 -459 -607
-112 -83 -109 -83 -146 -33 -44 61 -73 122 -101 208 -20 65 -23 95 -23 225 0
94 5 170 14 203 l13 54 62 -9 c33 -4 133 -7 221 -7 154 1 236 12 385 53 42 11
70 13 70 5z m2695 -115 c44 -34 104 -75 132 -91 29 -17 56 -34 59 -40 7 -12
-21 -132 -53 -223 -37 -107 -119 -272 -139 -283 -28 -14 -149 -40 -225 -48
l-65 -6 -12 40 c-26 85 -35 201 -22 281 13 87 70 225 143 349 61 105 72 106
182 21z m-485 -104 c0 -3 -20 -74 -45 -158 -25 -84 -55 -206 -66 -272 -11 -66
-22 -121 -24 -123 -7 -7 -80 20 -132 49 -97 55 -149 137 -140 222 6 63 31 95
92 116 76 27 205 95 255 134 43 34 60 43 60 32z m966 -124 c98 -24 227 -33
317 -23 l69 8 39 -45 c99 -115 132 -256 90 -384 -44 -130 -154 -240 -320 -318
-199 -93 -456 -103 -628 -25 l-55 26 40 47 c95 113 103 119 192 147 96 30 303
105 495 178 150 57 175 77 175 142 0 33 -6 48 -27 68 -55 52 -47 54 -432 -91
-74 -28 -136 -49 -138 -48 -1 2 18 66 42 142 24 77 47 152 50 168 3 15 7 27 9
27 2 0 39 -9 82 -19z"/>
</g>
</svg>
