<?xml version="1.0" standalone="no"?>
<!DOCTYPE svg PUBLIC "-//W3C//DTD SVG 20010904//EN"
 "http://www.w3.org/TR/2001/REC-SVG-20010904/DTD/svg10.dtd">
<svg version="1.0" xmlns="http://www.w3.org/2000/svg"
 width="1280" height="720" viewBox="0 0 1280.000000 720.000000"
 preserveAspectRatio="xMidYMid meet">
<g transform="translate(0.000000,720.000000) scale(0.100000,-0.100000)"
fill="#5f9234" stroke="none">
<path d="M4520 5144 c-88 -18 -144 -41 -210 -82 -117 -73 -139 -113 -105 -187
33 -68 95 -72 187 -10 154 103 294 111 466 28 112 -55 214 -168 295 -328 25
-51 72 -193 66 -200 -2 -2 -44 -10 -94 -19 -49 -8 -118 -27 -153 -41 -34 -14
-126 -46 -205 -71 -249 -81 -631 -243 -719 -305 -14 -11 -28 -19 -31 -19 -3 0
-15 25 -26 55 -15 40 -21 79 -21 137 0 70 4 90 35 157 45 101 69 194 60 239
-16 83 -119 122 -179 67 -39 -36 -85 -141 -103 -235 -16 -79 -18 -84 -68 -126
-191 -165 -455 -185 -850 -64 -38 12 -85 26 -103 31 -87 26 -160 -46 -131
-129 14 -41 35 -53 169 -95 237 -75 353 -92 553 -84 150 6 215 21 335 79 46
22 85 38 86 36 1 -2 10 -30 20 -63 10 -33 26 -76 36 -95 l18 -35 -63 -66
c-313 -333 -394 -775 -195 -1073 184 -274 492 -363 847 -245 l63 21 38 -30
c77 -61 238 -128 317 -133 45 -2 48 -1 78 26 21 20 27 35 27 66 0 58 -25 94
-74 109 -60 18 -165 61 -171 70 -3 5 10 18 28 29 126 78 305 264 409 426 108
167 183 347 248 592 9 35 20 49 64 78 66 43 153 135 190 197 82 140 68 300
-34 396 -36 34 -116 78 -172 96 -11 3 -18 15 -18 28 0 13 -9 55 -19 93 -132
475 -508 762 -891 679z m740 -1077 c0 -45 -7 -137 -15 -202 -8 -66 -15 -121
-15 -122 0 -9 -237 -97 -305 -114 -98 -24 -398 -38 -423 -21 -11 7 -4 25 32
80 112 174 245 298 411 381 91 46 207 80 273 80 l42 1 0 -83z m-860 -208 c0
-6 -15 -32 -34 -58 -18 -25 -43 -65 -55 -88 -12 -24 -26 -43 -32 -43 -22 0
-120 62 -116 74 3 10 210 123 230 125 4 1 7 -4 7 -10z m-398 -257 c4 -12 114
-85 167 -111 38 -20 42 -25 37 -49 -23 -107 -38 -257 -33 -342 10 -160 75
-369 148 -471 11 -16 18 -33 15 -38 -11 -17 -142 -34 -227 -29 -147 9 -258 70
-334 184 -61 90 -80 158 -80 289 1 161 41 280 143 425 86 120 150 176 164 142z
m1138 -179 c-21 -64 -125 -266 -184 -355 -88 -134 -316 -349 -406 -382 -35
-14 -137 195 -161 329 -14 80 -7 274 11 348 l13 48 56 -8 c31 -4 126 -8 211
-7 159 1 261 17 405 62 33 10 61 15 63 10 2 -4 -2 -25 -8 -45z"/>
</g>
</svg>
