<?xml version="1.0" standalone="no"?>
<!DOCTYPE svg PUBLIC "-//W3C//DTD SVG 20010904//EN"
 "http://www.w3.org/TR/2001/REC-SVG-20010904/DTD/svg10.dtd">
<svg version="1.0" xmlns="http://www.w3.org/2000/svg"
 width="1280" height="720" viewBox="0 0 1280.000000 720.000000"
 preserveAspectRatio="xMidYMid meet">
<g transform="translate(0.000000,720.000000) scale(0.100000,-0.100000)"
fill="#5f9234" stroke="none">
<path d="M4550 5154 c-286 -56 -478 -245 -544 -536 -5 -24 -11 -28 -41 -28
-19 0 -45 -5 -59 -11 -49 -23 -105 -138 -127 -263 -10 -62 -15 -70 -63 -112
-61 -54 -117 -84 -210 -113 -171 -53 -372 -35 -671 59 -110 34 -149 34 -182
-3 -27 -29 -35 -68 -22 -105 13 -39 35 -52 134 -85 230 -74 364 -99 540 -98
141 0 266 27 379 80 47 23 87 41 90 41 3 0 6 -8 6 -18 0 -18 38 -123 58 -158
9 -15 0 -29 -52 -85 -259 -274 -363 -626 -271 -916 70 -222 265 -396 493 -442
115 -23 294 -7 428 39 l58 20 58 -39 c132 -88 290 -134 458 -133 213 2 418 90
536 230 102 120 158 236 189 391 26 128 17 314 -22 446 -40 135 -83 217 -188
361 -7 9 8 30 53 78 39 41 74 90 95 133 28 59 32 78 32 148 -1 59 -6 92 -22
127 -33 73 -122 146 -215 177 -31 10 -34 15 -46 78 -18 95 -83 254 -144 353
-64 104 -199 241 -288 293 -98 57 -207 88 -320 92 -52 2 -106 1 -120 -1z m200
-220 c162 -38 299 -164 403 -369 25 -51 72 -193 66 -200 -2 -2 -44 -10 -94
-19 -49 -9 -126 -29 -170 -46 -44 -17 -129 -47 -190 -67 -60 -19 -177 -62
-260 -94 l-150 -59 -17 22 c-73 97 -138 280 -138 387 0 125 58 260 148 342
116 106 248 140 402 103z m-720 -680 c0 -20 62 -154 100 -215 l30 -49 -43 -21
c-23 -12 -55 -31 -71 -42 -33 -23 -38 -19 -61 57 -22 74 -20 187 6 247 20 46
39 57 39 23z m1230 -205 c0 -111 -9 -139 -45 -139 -67 0 -113 -114 -66 -164
27 -28 20 -36 -64 -67 -153 -57 -223 -70 -406 -76 -122 -4 -178 -2 -183 5 -6
10 54 114 101 174 42 55 182 186 233 219 135 88 287 147 383 148 l47 1 0 -101z
m-926 -235 c9 -8 16 -19 16 -24 0 -15 -65 -120 -74 -120 -19 0 -117 63 -113
73 3 11 133 86 149 87 4 0 14 -7 22 -16z m-268 -260 c33 -23 79 -51 103 -63
38 -20 42 -25 37 -49 -61 -279 -38 -512 73 -735 32 -64 56 -119 52 -121 -23
-15 -144 -28 -218 -24 -150 8 -261 68 -338 184 -61 90 -80 158 -80 289 0 87 5
126 24 185 40 128 108 242 213 356 36 39 43 43 58 32 10 -7 44 -31 76 -54z
m1355 -87 c40 -64 59 -104 85 -181 126 -371 -55 -750 -393 -821 -85 -18 -140
-18 -224 -1 -80 17 -169 54 -169 70 0 6 19 23 43 38 105 67 239 204 359 366
63 85 181 323 224 456 21 64 41 116 44 116 3 0 17 -19 31 -43z m-306 -104
c-108 -261 -291 -496 -491 -632 l-79 -53 -28 34 c-35 41 -89 153 -114 233 -22
76 -25 331 -5 412 l14 53 56 -8 c32 -4 127 -7 212 -6 159 1 279 19 410 61 40
13 56 15 58 6 2 -6 -13 -51 -33 -100z"/>
</g>
</svg>
