<?xml version="1.0" standalone="no"?>
<!DOCTYPE svg PUBLIC "-//W3C//DTD SVG 20010904//EN"
 "http://www.w3.org/TR/2001/REC-SVG-20010904/DTD/svg10.dtd">
<svg version="1.0" xmlns="http://www.w3.org/2000/svg"
 width="1280" height="720" viewBox="0 0 1280.000000 720.000000"
 preserveAspectRatio="xMidYMid meet">
<g transform="translate(0.000000,720.000000) scale(0.100000,-0.100000)"
fill="#5f9234" stroke="none">
<path d="M7884 5320 c-173 -45 -329 -170 -428 -342 -29 -50 -35 -55 -52 -38
-17 17 -159 71 -252 95 -50 14 -154 30 -230 36 l-137 12 -48 54 c-97 107 -197
153 -331 153 -247 0 -485 -189 -636 -505 -62 -131 -99 -282 -116 -473 l-7 -83
-26 25 c-26 25 -146 86 -168 86 -7 0 -15 12 -19 28 -82 369 -279 638 -549 746
-214 85 -470 44 -647 -104 -125 -103 -195 -223 -232 -392 -6 -25 -11 -28 -50
-28 -74 0 -127 -71 -166 -224 -11 -44 -20 -87 -20 -97 0 -22 -91 -103 -150
-134 -100 -51 -186 -69 -325 -69 -146 0 -265 21 -445 80 -129 42 -151 42 -192
5 -26 -23 -33 -37 -33 -68 0 -71 20 -87 161 -133 226 -73 423 -102 604 -88
112 8 197 31 297 79 45 21 84 39 87 39 3 0 6 -8 6 -18 0 -18 38 -123 58 -158
9 -15 -1 -30 -63 -96 -115 -122 -204 -272 -255 -428 -32 -99 -46 -251 -33
-353 22 -163 75 -269 196 -390 124 -125 276 -187 458 -187 87 0 204 20 296 51
l62 20 33 -24 c135 -101 293 -150 478 -149 264 3 475 117 611 332 24 38 46 70
49 70 4 0 12 -17 19 -37 52 -147 243 -382 404 -497 144 -103 349 -179 554
-207 165 -22 414 5 580 62 31 10 60 16 63 12 4 -5 17 -39 29 -76 92 -290 312
-551 566 -673 133 -63 203 -77 360 -71 140 6 187 17 305 77 148 74 267 175
371 313 241 319 320 807 197 1212 -31 104 -102 270 -143 337 -21 33 -35 60
-34 62 2 1 27 15 54 31 221 126 354 323 371 547 16 217 -93 405 -290 499 -136
65 -287 82 -485 52 l-44 -6 30 54 c134 238 145 486 32 685 -90 157 -234 263
-407 299 -93 20 -231 18 -318 -5z m282 -204 c126 -33 225 -114 277 -224 27
-57 31 -78 31 -152 1 -122 -35 -229 -116 -347 -33 -49 -196 -223 -208 -223 -5
0 -32 44 -60 98 -65 121 -143 231 -238 335 -69 75 -189 183 -228 205 -16 9
-15 15 17 67 42 72 143 175 201 205 92 49 222 63 324 36z m-1671 -50 c19 -8
35 -17 35 -20 0 -2 -30 -14 -67 -27 -137 -44 -238 -111 -333 -216 -131 -148
-165 -361 -88 -550 l26 -63 -29 -32 c-16 -18 -55 -65 -86 -105 -31 -39 -60
-70 -64 -68 -16 10 -31 211 -25 314 18 268 101 473 256 632 106 109 181 149
278 149 34 0 78 -7 97 -14z m-1763 -127 c29 -6 82 -25 118 -41 152 -72 322
-306 364 -505 7 -31 7 -32 -41 -38 -168 -23 -390 -116 -508 -212 -60 -49 -63
-50 -174 -67 l-114 -17 -24 28 c-78 95 -140 244 -150 364 -26 305 239 549 529
488z m2318 -95 c84 -19 170 -49 243 -86 51 -25 58 -32 53 -51 -4 -12 -13 -55
-21 -96 -8 -41 -16 -76 -18 -78 -2 -2 -24 4 -48 12 -84 30 -181 45 -296 45
l-115 0 6 31 c3 17 6 81 6 141 l0 110 63 -7 c34 -4 91 -13 127 -21z m-400 -89
c0 -54 -7 -123 -16 -159 -14 -58 -18 -64 -52 -76 -76 -27 -185 -81 -263 -131
-58 -38 -83 -49 -91 -41 -6 6 -13 48 -16 92 -4 77 -3 84 32 155 25 51 51 86
84 113 75 63 237 138 305 141 15 1 17 -10 17 -94z m1030 -282 c82 -84 144
-161 183 -228 42 -72 96 -189 91 -197 -6 -9 -30 -20 -163 -74 -46 -19 -85 -33
-86 -32 -2 2 -8 37 -14 79 -18 129 -60 227 -143 333 -21 27 -38 54 -38 62 0
24 22 169 27 177 7 12 52 -25 143 -120z m-500 -123 c36 -12 79 -31 96 -43 28
-18 31 -27 43 -105 11 -81 50 -214 85 -294 9 -20 12 -39 8 -41 -4 -3 -61 -8
-127 -12 -147 -8 -326 7 -458 40 -92 22 -287 100 -287 114 0 3 29 41 64 84 54
66 157 225 169 260 5 17 86 26 217 23 98 -3 139 -8 190 -26z m-3150 -97 c0
-21 67 -169 97 -213 12 -19 23 -39 23 -45 0 -5 -30 -27 -67 -48 -75 -43 -74
-43 -99 41 -20 67 -15 200 10 255 16 37 36 42 36 10z m1230 -211 c0 -60 -2
-111 -5 -114 -3 -3 -43 14 -89 37 -45 23 -115 53 -154 66 -40 13 -72 26 -72
30 0 10 121 60 182 75 29 7 72 13 96 13 l42 1 0 -108z m3712 16 c145 -67 213
-203 178 -355 -30 -127 -137 -259 -265 -325 -108 -55 -104 -55 -179 1 -104 79
-270 156 -423 197 -8 2 -13 21 -13 48 0 24 -9 97 -20 161 -11 64 -20 123 -20
130 0 24 200 111 344 150 78 22 108 25 216 22 110 -3 132 -6 182 -29z m-4079
-210 c84 -22 258 -104 265 -125 11 -34 -237 0 -370 50 -59 23 -126 53 -137 63
-2 2 4 13 14 25 17 18 27 19 85 14 36 -4 100 -16 143 -27z m1601 -53 c150 -74
215 -96 370 -128 95 -19 143 -22 329 -22 119 0 217 -2 217 -5 0 -3 -10 -23
-23 -45 -25 -43 -28 -46 -172 -107 -123 -52 -224 -119 -295 -195 l-55 -58
-125 0 c-148 1 -227 18 -345 78 -82 41 -114 62 -199 132 -51 42 -176 192 -175
210 0 5 35 27 77 47 42 20 118 64 167 97 50 33 92 60 94 61 2 0 63 -29 135
-65z m-2154 19 c11 -13 8 -26 -21 -79 -19 -36 -38 -65 -44 -65 -18 0 -115 64
-112 75 3 10 141 85 156 85 5 0 14 -7 21 -16z m3704 -57 c3 -13 8 -49 12 -81
l7 -58 -87 4 c-47 3 -89 7 -91 10 -6 5 136 148 146 148 4 0 9 -10 13 -23z
m-4009 -183 c22 -17 70 -49 108 -69 37 -20 67 -38 67 -38 0 -1 -7 -34 -15 -72
-22 -107 -29 -258 -16 -360 18 -136 47 -229 106 -342 29 -57 50 -105 47 -107
-24 -15 -145 -28 -219 -24 -154 9 -267 71 -344 191 -51 78 -70 141 -76 249
-11 190 68 384 232 566 27 30 52 49 58 45 7 -4 30 -21 52 -39z m1402 -134 c74
-122 105 -240 105 -400 1 -100 -3 -126 -27 -199 -68 -203 -213 -336 -409 -378
-88 -18 -191 -10 -286 22 -123 42 -121 39 -43 97 125 92 273 250 370 394 75
110 162 296 209 445 15 49 30 79 37 76 7 -2 27 -27 44 -57z m471 7 c43 -64
169 -183 254 -240 167 -112 331 -172 498 -184 l86 -6 0 -87 c0 -81 3 -93 37
-163 65 -131 207 -242 374 -292 l61 -18 6 -56 c3 -31 8 -89 12 -129 l6 -72
-37 -16 c-112 -46 -341 -80 -479 -70 -113 8 -197 27 -301 68 -316 124 -529
376 -600 711 -22 103 -20 312 5 427 22 100 40 160 50 160 3 0 15 -15 28 -33z
m-758 7 c0 -14 -76 -187 -108 -244 -109 -198 -220 -328 -387 -454 -112 -84
-109 -84 -146 -34 -42 59 -66 107 -97 197 -23 69 -26 91 -26 231 -1 101 4 174
13 208 l13 54 62 -9 c33 -4 133 -7 221 -7 154 1 236 12 385 53 42 11 70 13 70
5z m2679 -104 c33 -27 68 -53 77 -58 14 -8 14 -14 0 -69 -24 -93 -17 -169 19
-217 12 -16 17 -17 30 -6 28 23 39 -3 20 -46 -46 -106 -120 -246 -134 -253
-25 -13 -149 -39 -222 -47 l-66 -6 -16 65 c-55 216 -17 373 160 665 22 37 62
29 132 -28z m-469 -119 c0 -5 -11 -42 -25 -82 -35 -107 -70 -249 -90 -364 -9
-55 -18 -102 -20 -103 -7 -7 -81 21 -132 49 -120 68 -169 174 -127 278 14 35
23 42 67 57 76 25 215 97 267 137 46 37 60 43 60 28z m990 -128 c55 -13 114
-17 220 -17 l146 1 46 -61 c74 -97 93 -146 93 -246 0 -77 -3 -92 -36 -160 -55
-113 -138 -190 -286 -264 -197 -99 -464 -112 -639 -32 l-55 26 70 83 c70 83
72 84 148 107 43 12 173 58 288 101 386 143 394 148 395 222 0 31 -7 46 -34
73 -35 35 -65 42 -108 25 -13 -6 -77 -30 -143 -55 -116 -43 -179 -68 -220 -86
-20 -8 -85 -30 -91 -30 -9 0 -3 24 16 65 18 39 59 176 75 248 4 21 10 27 23
23 9 -3 51 -13 92 -23z m620 -740 c0 -92 -23 -239 -55 -347 -71 -244 -208
-437 -389 -550 -129 -80 -161 -90 -311 -90 -113 -1 -138 2 -190 22 -223 86
-401 289 -504 571 -32 87 -38 121 -22 121 5 0 45 24 90 54 l81 54 63 -34 c34
-19 105 -48 157 -66 93 -32 98 -32 280 -33 176 0 189 1 275 28 194 62 323 138
436 257 41 43 77 78 82 79 4 1 7 -29 7 -66z"/>
</g>
</svg>
