<?xml version="1.0" standalone="no"?>
<!DOCTYPE svg PUBLIC "-//W3C//DTD SVG 20010904//EN"
 "http://www.w3.org/TR/2001/REC-SVG-20010904/DTD/svg10.dtd">
<svg version="1.0" xmlns="http://www.w3.org/2000/svg"
 width="1280" height="720" viewBox="0 0 1280.000000 720.000000"
 preserveAspectRatio="xMidYMid meet">
<g transform="translate(0.000000,720.000000) scale(0.100000,-0.100000)"
fill="#5f9234" stroke="none">
<path d="M6248 5266 c-296 -106 -525 -438 -583 -846 -8 -58 -15 -124 -15 -147
l0 -43 -45 35 c-47 35 -127 75 -151 75 -8 0 -16 12 -20 28 -79 356 -261 615
-514 729 -104 47 -156 58 -275 58 -322 -2 -564 -205 -639 -537 -5 -24 -11 -28
-41 -28 -49 0 -81 -18 -110 -61 -29 -45 -70 -163 -80 -232 -6 -41 -15 -54 -59
-93 -62 -55 -117 -85 -216 -115 -63 -20 -96 -23 -210 -23 -149 1 -284 25 -454
84 -50 16 -102 30 -117 30 -34 0 -85 -41 -93 -76 -10 -38 11 -92 42 -108 31
-16 181 -67 264 -91 166 -46 420 -59 564 -30 76 16 239 78 250 96 11 18 34 9
34 -13 0 -13 15 -57 33 -99 l33 -75 -75 -81 c-168 -179 -272 -407 -287 -627
-15 -217 45 -383 196 -537 184 -188 464 -239 756 -139 l58 20 51 -34 c157
-106 361 -158 538 -136 107 13 173 33 267 80 94 47 154 97 224 185 110 137
163 286 173 477 9 171 -18 313 -88 465 -16 35 -29 67 -29 71 0 8 189 57 194
51 1 -2 13 -22 26 -44 134 -226 386 -414 652 -487 70 -19 107 -23 238 -22 139
0 164 3 249 27 338 100 595 358 682 687 33 122 33 277 1 380 -69 219 -221 365
-457 440 -54 18 -103 24 -217 27 l-146 5 5 107 c14 265 -85 464 -274 554 -61
29 -79 32 -168 34 -84 2 -111 -2 -167 -21z m259 -205 c52 -24 107 -97 129
-170 13 -42 15 -81 12 -170 -5 -98 -10 -130 -38 -206 -41 -114 -72 -169 -157
-275 -106 -132 -260 -254 -439 -346 l-85 -44 -14 33 c-48 116 -65 428 -31 584
35 161 109 323 194 422 62 72 157 149 212 172 61 24 162 24 217 0z m-1746
-129 c156 -41 291 -168 392 -367 22 -45 67 -175 67 -195 0 -5 -21 -12 -47 -15
-168 -23 -368 -106 -503 -208 -41 -32 -79 -57 -85 -57 -5 0 -55 -7 -110 -15
l-100 -15 -31 37 c-75 89 -144 277 -144 392 0 125 58 260 148 342 118 108 256
142 413 101z m2421 -580 c110 -40 218 -123 256 -198 41 -80 55 -152 49 -249
-27 -428 -467 -749 -905 -659 -188 38 -364 151 -498 319 -35 43 -64 84 -64 90
0 5 20 18 45 28 116 48 351 213 456 320 79 80 166 197 219 291 48 88 39 85
250 81 107 -2 147 -7 192 -23z m-3152 -99 c0 -20 82 -193 109 -232 l21 -29
-72 -41 c-80 -47 -79 -47 -104 37 -20 67 -15 200 10 255 16 37 36 42 36 10z
m1230 -211 c0 -60 -2 -111 -5 -114 -3 -3 -44 14 -91 38 -47 24 -116 53 -155
66 -38 12 -69 25 -69 29 0 20 210 87 278 88 l42 1 0 -108z m-385 -189 c116
-27 297 -115 276 -136 -17 -17 -126 -8 -244 22 -111 28 -257 86 -257 102 0 4
10 15 23 24 25 18 87 14 202 -12z m-531 -46 c8 -12 7 -22 -2 -34 -6 -10 -22
-37 -34 -60 -12 -24 -26 -43 -32 -43 -18 0 -116 64 -113 74 4 13 149 87 161
83 5 -2 14 -11 20 -20z m-324 -220 c22 -18 66 -49 100 -67 99 -57 92 -44 73
-135 -10 -52 -16 -130 -17 -225 0 -194 22 -292 103 -453 32 -64 56 -119 52
-121 -23 -15 -144 -28 -218 -24 -152 9 -261 68 -340 187 -61 89 -78 153 -78
286 1 163 45 291 150 433 46 64 123 152 132 152 3 0 22 -15 43 -33z m1437
-182 c207 -399 38 -859 -345 -940 -37 -8 -86 -15 -109 -15 -62 0 -180 27 -243
56 l-55 26 25 16 c150 101 302 257 419 428 54 81 161 306 196 414 15 47 32 93
37 104 9 17 11 16 30 -10 10 -16 31 -51 45 -79z m-307 49 c0 -3 -16 -44 -36
-92 -102 -248 -264 -463 -455 -604 -118 -87 -113 -86 -154 -31 -44 61 -92 175
-112 267 -17 82 -13 289 7 369 13 49 13 49 49 43 20 -3 93 -9 162 -12 142 -8
262 4 409 40 100 25 130 30 130 20z"/>
</g>
</svg>
