<?xml version="1.0" standalone="no"?>
<!DOCTYPE svg PUBLIC "-//W3C//DTD SVG 20010904//EN"
 "http://www.w3.org/TR/2001/REC-SVG-20010904/DTD/svg10.dtd">
<svg version="1.0" xmlns="http://www.w3.org/2000/svg"
 width="1280" height="720" viewBox="0 0 1280.000000 720.000000"
 preserveAspectRatio="xMidYMid meet">
<g transform="translate(0.000000,720.000000) scale(0.100000,-0.100000)"
fill="#5f9234" stroke="none">
<path d="M3893 4572 c-44 -35 -83 -118 -104 -219 -20 -96 -22 -99 -72 -145
-185 -172 -460 -191 -872 -62 -73 24 -120 33 -141 29 -32 -5 -66 -36 -78 -69
-10 -28 12 -92 37 -108 29 -20 260 -93 362 -115 60 -13 126 -18 265 -18 210 0
257 9 398 77 46 22 85 38 86 36 1 -2 8 -23 15 -48 55 -193 198 -355 394 -445
212 -97 550 -123 775 -59 71 20 92 42 92 100 0 37 -5 51 -29 75 -34 33 -36 34
-156 14 -113 -19 -318 -19 -410 -1 -219 43 -367 145 -443 303 -32 69 -37 88
-40 173 -4 94 -3 98 32 169 73 143 80 263 19 310 -32 26 -99 28 -130 3z"/>
</g>
</svg>
