<?xml version="1.0" standalone="no"?>
<!DOCTYPE svg PUBLIC "-//W3C//DTD SVG 20010904//EN"
 "http://www.w3.org/TR/2001/REC-SVG-20010904/DTD/svg10.dtd">
<svg version="1.0" xmlns="http://www.w3.org/2000/svg"
 width="1280" height="720" viewBox="0 0 1280.000000 720.000000"
 preserveAspectRatio="xMidYMid meet">
<g transform="translate(0.000000,720.000000) scale(0.100000,-0.100000)"
fill="#5f9234" stroke="none">
<path d="M7935 5334 c-126 -30 -176 -52 -272 -120 -70 -50 -160 -151 -205
-230 -16 -30 -32 -54 -34 -54 -2 0 -18 8 -36 18 -55 30 -158 68 -248 90 -100
25 -278 45 -313 37 -22 -6 -34 2 -84 55 -110 117 -200 160 -339 160 -101 0
-177 -22 -279 -83 -180 -106 -349 -346 -420 -593 -26 -91 -54 -273 -55 -348
l0 -40 -27 26 c-16 15 -57 41 -93 58 -36 17 -71 34 -79 38 -7 4 -23 48 -36 97
-51 199 -142 363 -275 495 -96 96 -164 140 -283 183 -73 27 -95 30 -202 31
-135 1 -194 -13 -304 -69 -177 -90 -296 -252 -345 -467 -6 -25 -11 -28 -47
-28 -55 0 -89 -26 -123 -95 -26 -54 -66 -190 -66 -226 0 -22 -91 -103 -150
-134 -101 -52 -186 -70 -325 -70 -71 1 -157 6 -190 13 -117 25 -182 42 -270
72 -111 38 -136 38 -177 1 -26 -23 -33 -37 -33 -68 0 -68 21 -86 142 -126 59
-19 133 -42 163 -50 177 -49 419 -62 565 -32 77 16 240 78 251 96 13 21 32 6
38 -28 3 -21 19 -66 35 -99 l29 -62 -50 -48 c-147 -144 -270 -372 -303 -563
-44 -252 15 -458 180 -627 69 -72 94 -89 175 -128 178 -83 369 -88 587 -15
l63 21 38 -30 c70 -55 196 -110 307 -133 33 -7 105 -12 160 -11 265 2 478 117
616 333 42 65 59 82 59 58 0 -21 71 -152 124 -229 61 -90 199 -230 289 -294
89 -63 253 -140 364 -170 375 -100 796 -26 1133 200 l81 54 67 -36 c37 -20
108 -50 157 -67 89 -31 93 -32 275 -31 173 0 191 2 274 27 189 59 312 131 436
256 130 132 190 268 190 434 0 130 -47 273 -96 296 -54 24 -136 -17 -150 -75
-4 -15 2 -56 15 -99 49 -168 11 -295 -125 -425 -81 -76 -207 -146 -329 -180
-153 -44 -366 -33 -490 24 l-55 25 67 83 c88 109 156 214 205 317 40 84 118
307 118 339 0 38 12 41 90 20 98 -26 331 -29 436 -5 267 60 490 242 573 467
84 229 24 475 -149 607 -58 44 -170 97 -240 114 -64 14 -203 17 -312 6 l-78
-8 44 88 c68 135 90 219 90 343 0 129 -20 209 -77 309 -75 132 -192 228 -343
282 -45 16 -89 22 -184 25 -69 1 -134 1 -145 -2z m312 -249 c138 -68 216 -177
229 -320 11 -123 -48 -289 -146 -410 -48 -58 -172 -185 -182 -185 -4 0 -30 44
-58 99 -82 156 -248 364 -369 464 -35 28 -75 61 -88 72 l-24 20 41 63 c75 117
174 198 278 228 30 8 83 12 144 10 90 -3 104 -6 175 -41z m-1752 -19 c19 -8
35 -17 35 -20 0 -2 -30 -14 -67 -27 -136 -44 -239 -111 -331 -214 -135 -152
-170 -374 -88 -559 l23 -52 -86 -106 c-47 -59 -89 -104 -93 -100 -15 15 -30
201 -24 301 18 278 99 481 256 642 106 109 181 149 278 149 34 0 78 -7 97 -14z
m-1745 -132 c156 -35 301 -168 403 -369 25 -51 72 -193 66 -200 -2 -2 -45 -10
-94 -19 -152 -26 -325 -102 -454 -199 -71 -53 -75 -55 -184 -72 l-111 -17 -28
34 c-76 91 -136 242 -145 363 -13 190 88 372 252 449 100 48 181 56 295 30z
m2337 -100 c51 -12 131 -41 179 -63 83 -39 86 -42 79 -68 -4 -16 -13 -59 -22
-98 -8 -38 -16 -71 -17 -72 -2 -2 -18 3 -37 11 -66 28 -188 46 -305 46 l-116
0 6 31 c3 17 6 81 6 141 l0 109 68 -7 c37 -4 108 -17 159 -30z m-439 -79 c2
-58 -3 -113 -13 -156 l-16 -66 -52 -18 c-76 -27 -161 -70 -254 -131 l-82 -53
-11 36 c-19 55 -8 159 22 225 47 101 164 189 318 239 84 28 85 27 88 -76z
m994 -242 c109 -106 199 -224 260 -341 67 -128 67 -124 6 -152 -85 -37 -200
-81 -204 -77 -2 2 -8 37 -14 78 -16 128 -62 235 -142 332 l-40 48 12 100 c7
54 16 99 21 99 6 0 51 -39 101 -87z m-462 -162 c36 -12 79 -32 97 -44 28 -19
32 -28 38 -87 8 -74 44 -204 79 -288 13 -31 22 -60 20 -63 -2 -4 -59 -10 -126
-14 -149 -8 -336 8 -463 40 -76 19 -266 92 -282 109 -3 3 24 41 59 85 54 67
159 230 170 262 6 18 94 28 218 25 98 -2 139 -8 190 -25z m-3150 -98 c0 -20
82 -194 109 -232 l21 -29 -36 -21 c-19 -12 -38 -21 -41 -21 -2 0 -18 -10 -35
-21 -36 -26 -40 -22 -64 59 -20 67 -15 200 10 255 16 37 36 42 36 10z m1230
-211 c0 -60 -2 -111 -5 -114 -3 -3 -44 14 -91 38 -47 24 -116 53 -155 66 -38
12 -69 25 -69 29 0 20 212 87 278 88 l42 1 0 -108z m3671 28 c102 -35 157 -77
194 -151 49 -95 41 -209 -22 -330 -42 -82 -101 -142 -190 -195 -113 -68 -179
-86 -329 -91 -137 -5 -290 15 -306 40 -4 7 -5 35 -2 62 8 69 -13 321 -35 428
l-19 88 87 43 c176 87 313 125 459 125 78 1 117 -4 163 -19z m-4056 -217 c107
-27 285 -111 285 -135 0 -15 -117 -8 -212 11 -93 20 -193 53 -259 86 -45 23
-45 22 -24 46 17 18 26 19 85 14 36 -4 92 -14 125 -22z m1610 -55 c242 -121
477 -167 778 -154 97 4 147 2 147 -4 0 -6 -12 -29 -26 -53 -97 -154 -265 -278
-454 -333 -91 -26 -298 -26 -390 0 -140 41 -286 129 -389 235 -61 63 -131 153
-130 167 0 5 39 28 87 52 48 23 125 69 172 101 84 57 85 58 110 41 14 -10 57
-33 95 -52z m-2145 16 c11 -13 8 -26 -21 -79 -19 -36 -38 -65 -44 -65 -18 0
-115 64 -112 74 3 10 144 86 158 86 4 0 12 -7 19 -16z m3704 -51 c10 -31 26
-196 26 -261 l0 -64 -31 20 c-58 36 -179 142 -179 157 0 13 158 165 172 165 4
0 9 -8 12 -17z m-4008 -188 c30 -25 82 -59 116 -76 55 -28 60 -32 54 -57 -37
-169 -44 -310 -21 -447 21 -131 40 -188 101 -302 29 -56 50 -104 46 -106 -24
-16 -144 -29 -219 -25 -152 9 -261 68 -340 186 -54 80 -74 144 -80 254 -11
190 68 384 232 566 26 28 49 52 51 52 2 0 29 -20 60 -45z m1401 -134 c82 -137
123 -327 103 -478 -46 -344 -316 -557 -635 -500 -44 8 -107 27 -139 41 l-59
26 84 64 c97 73 229 208 310 316 97 129 194 323 254 508 16 48 32 81 39 79 6
-2 25 -27 43 -56z m477 -1 c38 -51 158 -169 216 -212 109 -81 236 -143 372
-180 116 -32 354 -32 471 0 93 26 223 85 303 139 90 60 88 60 80 32 -47 -164
-50 -185 -50 -329 0 -107 5 -162 18 -210 31 -112 81 -215 148 -301 26 -34 27
-37 10 -52 -9 -8 -60 -38 -113 -66 -311 -166 -664 -195 -949 -78 -313 128
-527 383 -596 710 -19 91 -18 314 1 409 18 89 46 178 54 178 3 0 19 -18 35
-40z m-764 14 c0 -3 -16 -44 -36 -92 -101 -246 -265 -465 -454 -604 -118 -87
-114 -86 -151 -36 -44 61 -73 122 -101 208 -20 65 -23 95 -23 225 0 94 5 170
14 203 l13 54 37 -6 c20 -3 93 -9 162 -12 143 -8 263 4 409 41 98 24 130 29
130 19z m2638 -71 c37 -31 101 -78 142 -104 127 -82 116 -64 95 -150 -18 -75
-68 -216 -106 -299 -31 -67 -140 -227 -202 -295 l-54 -59 -32 44 c-169 234
-149 584 51 878 16 23 31 42 34 42 3 0 36 -26 72 -57z"/>
</g>
</svg>
