<?xml version="1.0" standalone="no"?>
<!DOCTYPE svg PUBLIC "-//W3C//DTD SVG 20010904//EN"
 "http://www.w3.org/TR/2001/REC-SVG-20010904/DTD/svg10.dtd">
<svg version="1.0" xmlns="http://www.w3.org/2000/svg"
 width="1280" height="720" viewBox="0 0 1280.000000 720.000000"
 preserveAspectRatio="xMidYMid meet">
<g transform="translate(0.000000,720.000000) scale(0.100000,-0.100000)"
fill="#5f9234" stroke="none">
<path d="M6247 5265 c-318 -110 -559 -493 -593 -943 l-7 -90 -49 38 c-28 20
-74 46 -104 56 -43 15 -56 24 -60 44 -84 383 -292 652 -586 758 -63 23 -89 26
-193 26 -133 0 -194 -13 -299 -66 -164 -82 -297 -248 -336 -418 -7 -30 -14
-61 -16 -67 -2 -8 -19 -13 -39 -13 -52 0 -89 -23 -118 -72 -28 -49 -62 -151
-72 -221 -6 -41 -15 -54 -59 -93 -189 -167 -491 -186 -880 -54 -109 36 -136
37 -174 5 -36 -31 -46 -66 -32 -111 14 -42 37 -54 195 -106 184 -60 328 -81
510 -75 169 6 228 19 352 78 45 21 84 39 86 39 3 0 8 -17 12 -37 4 -20 19 -65
35 -99 l28 -62 -50 -48 c-113 -111 -226 -294 -276 -447 -32 -97 -45 -207 -38
-312 12 -182 67 -305 192 -432 69 -71 94 -89 175 -127 178 -83 364 -88 587
-15 l62 21 39 -31 c108 -86 290 -143 456 -143 273 0 485 112 625 331 43 67 60
84 60 60 0 -19 69 -149 116 -219 80 -118 262 -293 356 -341 36 -18 47 -20 79
-10 53 16 79 52 79 112 l0 48 -77 53 c-128 86 -258 231 -328 367 -26 51 -64
166 -80 244 -20 92 -19 310 0 407 20 97 46 180 57 180 4 0 8 -4 8 -9 0 -5 42
-54 94 -108 160 -168 358 -282 564 -325 124 -26 296 -21 422 11 118 30 289
117 377 191 158 132 276 313 325 500 32 122 32 278 0 380 -54 171 -160 300
-310 379 -129 66 -194 82 -363 88 l-146 5 5 107 c13 285 -100 491 -311 570
-82 30 -207 28 -300 -4z m260 -205 c48 -21 99 -85 125 -158 23 -62 24 -220 2
-306 -16 -63 -16 -63 -67 -81 -126 -44 -252 -119 -392 -234 -90 -73 -140 -124
-223 -228 -31 -40 -60 -69 -64 -65 -15 15 -30 201 -24 301 12 190 44 310 125
466 72 141 220 282 331 316 49 14 143 9 187 -11z m-1757 -126 c157 -35 302
-168 402 -369 28 -56 74 -192 67 -199 -2 -2 -45 -11 -94 -20 -152 -26 -325
-102 -455 -200 -59 -44 -83 -56 -124 -61 -28 -3 -78 -11 -110 -17 l-59 -11
-28 34 c-112 133 -173 361 -136 506 43 165 144 278 296 330 78 27 147 29 241
7z m2435 -584 c118 -45 223 -128 260 -206 131 -276 -36 -664 -355 -824 -135
-68 -207 -85 -355 -85 -149 1 -215 16 -336 75 -97 48 -174 104 -256 189 -58
60 -123 144 -123 161 0 3 15 12 34 18 53 19 232 130 326 202 95 72 183 159
248 242 38 50 136 205 144 229 6 18 94 28 223 25 106 -3 141 -8 190 -26z
m-3155 -95 c0 -21 69 -174 96 -215 13 -19 24 -39 24 -45 0 -6 -17 -19 -37 -30
-21 -10 -51 -28 -67 -38 -34 -24 -38 -19 -62 61 -20 67 -15 200 10 255 16 36
36 42 36 12z m1230 -213 c0 -60 -3 -111 -6 -115 -3 -3 -43 14 -88 37 -44 24
-114 54 -153 67 -40 12 -73 26 -73 30 0 20 212 87 278 88 l42 1 0 -108z m-367
-194 c87 -23 265 -108 257 -123 -10 -19 -162 -9 -261 18 -100 27 -239 84 -239
98 0 4 10 15 22 23 27 19 109 13 221 -16z m-553 -34 c11 -13 8 -26 -21 -79
-19 -36 -38 -65 -44 -65 -17 0 -115 64 -112 74 3 8 145 85 158 86 4 0 12 -7
19 -16z m-312 -233 c26 -22 78 -56 115 -76 58 -32 68 -41 63 -59 -3 -11 -13
-70 -22 -131 -35 -236 8 -471 121 -658 19 -32 33 -62 30 -67 -10 -16 -143 -33
-226 -28 -148 9 -258 70 -336 187 -61 89 -78 153 -78 286 0 160 40 279 143
425 43 61 129 160 139 160 2 0 25 -18 51 -39z m1410 -141 c73 -122 107 -250
106 -400 -1 -98 -5 -127 -28 -195 -38 -110 -79 -179 -149 -246 -112 -109 -270
-161 -427 -141 -83 10 -179 39 -213 65 -16 11 -10 18 56 65 78 56 206 181 280
272 123 154 220 338 292 558 16 47 32 81 39 79 6 -2 26 -28 44 -57z m-288 14
c0 -15 -77 -188 -111 -249 -100 -181 -236 -340 -384 -450 -112 -83 -109 -83
-146 -33 -44 61 -74 122 -100 208 -20 64 -24 96 -24 225 0 95 5 170 14 203
l13 54 37 -6 c20 -3 93 -9 162 -12 143 -8 263 4 409 41 98 24 130 29 130 19z"/>
</g>
</svg>
