<?xml version="1.0" standalone="no"?>
<!DOCTYPE svg PUBLIC "-//W3C//DTD SVG 20010904//EN"
 "http://www.w3.org/TR/2001/REC-SVG-20010904/DTD/svg10.dtd">
<svg version="1.0" xmlns="http://www.w3.org/2000/svg"
 width="1280" height="720" viewBox="0 0 1280.000000 720.000000"
 preserveAspectRatio="xMidYMid meet">
<g transform="translate(0.000000,720.000000) scale(0.100000,-0.100000)"
fill="#5f9234" stroke="none">
<path d="M6255 5266 c-90 -29 -222 -114 -281 -180 -40 -45 -45 -55 -41 -88 6
-42 32 -82 65 -97 48 -23 72 -13 148 58 89 83 146 112 237 119 116 8 183 -32
238 -144 22 -44 24 -62 24 -184 0 -147 -14 -207 -78 -335 -111 -223 -328 -417
-617 -553 -129 -61 -370 -137 -370 -117 0 4 14 23 31 43 18 20 46 66 63 102
27 56 31 76 31 145 -1 94 -23 151 -85 211 -42 41 -134 94 -163 94 -10 0 -19 6
-21 13 -2 6 -11 46 -21 87 -9 41 -34 116 -55 167 -159 392 -499 609 -842 538
-262 -55 -449 -247 -512 -527 -5 -24 -11 -28 -41 -28 -49 0 -81 -18 -110 -61
-29 -45 -70 -163 -80 -232 -6 -41 -15 -54 -59 -93 -62 -55 -117 -84 -216 -115
-63 -20 -96 -24 -205 -23 -146 0 -266 21 -445 80 -58 19 -118 34 -132 34 -33
0 -84 -42 -92 -76 -10 -38 11 -92 42 -108 31 -16 181 -67 264 -90 165 -46 421
-60 564 -30 76 15 239 77 250 95 10 16 34 9 34 -9 0 -18 38 -123 58 -158 8
-15 -2 -31 -66 -100 -126 -135 -222 -308 -268 -484 -22 -83 -25 -292 -5 -370
76 -296 337 -499 642 -500 87 0 209 21 295 50 l58 20 51 -34 c194 -132 453
-174 673 -111 414 120 629 581 490 1050 -12 39 -34 98 -50 133 -15 34 -28 66
-28 70 0 5 35 16 78 26 42 10 119 34 170 52 657 237 1064 780 967 1291 -57
297 -315 459 -590 369z m-1494 -334 c156 -41 291 -167 392 -367 25 -51 72
-193 66 -200 -2 -2 -45 -10 -96 -19 -152 -26 -323 -102 -455 -201 -68 -51 -73
-53 -181 -70 l-112 -17 -31 37 c-75 89 -144 279 -144 394 0 170 103 343 245
411 110 53 201 62 316 32z m-731 -678 c0 -21 60 -153 96 -211 l33 -52 -67 -38
c-37 -21 -70 -39 -73 -41 -4 -2 -15 19 -25 45 -26 66 -26 232 -1 286 17 36 37
42 37 11z m1230 -212 c0 -60 -2 -111 -5 -114 -3 -3 -45 14 -93 38 -48 24 -117
54 -154 66 -38 12 -68 25 -68 29 0 20 210 87 278 88 l42 1 0 -108z m-400 -184
c65 -12 151 -46 239 -95 56 -31 62 -37 48 -48 -34 -25 -265 18 -400 75 -104
44 -105 45 -82 70 17 19 26 21 80 15 33 -3 85 -11 115 -17z m-520 -44 c11 -13
8 -26 -21 -79 -19 -36 -38 -65 -43 -65 -19 0 -117 63 -114 74 3 10 143 85 159
86 4 0 12 -7 19 -16z m-320 -227 c22 -18 66 -49 100 -67 99 -57 92 -44 73
-135 -25 -122 -23 -345 5 -463 21 -91 81 -234 122 -292 12 -16 19 -34 16 -39
-11 -17 -142 -34 -227 -29 -147 9 -258 70 -334 184 -61 90 -80 158 -80 289 1
163 45 291 150 433 46 64 123 152 132 152 3 0 22 -15 43 -33z m1437 -182 c207
-400 39 -859 -345 -940 -37 -8 -86 -15 -109 -15 -95 0 -283 57 -283 86 0 8 3
14 8 14 14 0 128 91 195 156 84 82 169 186 232 283 61 94 155 292 190 401 15
47 32 93 37 104 9 17 11 16 30 -10 10 -16 31 -51 45 -79z m-312 33 c-4 -13
-23 -59 -42 -103 -103 -237 -261 -442 -447 -579 -115 -85 -110 -84 -151 -29
-44 61 -92 175 -112 267 -17 81 -13 300 8 374 12 43 12 44 48 38 20 -3 93 -9
162 -12 141 -8 256 4 414 41 129 30 128 30 120 3z"/>
</g>
</svg>
