<?xml version="1.0" standalone="no"?>
<!DOCTYPE svg PUBLIC "-//W3C//DTD SVG 20010904//EN"
 "http://www.w3.org/TR/2001/REC-SVG-20010904/DTD/svg10.dtd">
<svg version="1.0" xmlns="http://www.w3.org/2000/svg"
 width="1280" height="720" viewBox="0 0 1280.000000 720.000000"
 preserveAspectRatio="xMidYMid meet">
<g transform="translate(0.000000,720.000000) scale(0.100000,-0.100000)"
fill="#5f9234" stroke="none">
<path d="M6249 5266 c-273 -95 -503 -405 -573 -774 -8 -44 -18 -121 -22 -171
l-7 -92 -26 25 c-29 27 -111 71 -154 81 -19 5 -29 15 -33 34 -80 361 -262 615
-529 736 -170 77 -375 71 -550 -17 -164 -82 -294 -245 -335 -419 -7 -29 -14
-60 -16 -66 -2 -8 -19 -13 -39 -13 -52 0 -89 -23 -118 -72 -28 -49 -62 -151
-72 -221 -6 -41 -15 -54 -59 -93 -62 -55 -117 -84 -216 -115 -63 -20 -96 -24
-205 -23 -157 0 -278 22 -460 84 -108 37 -135 37 -173 5 -38 -32 -48 -72 -29
-117 17 -41 54 -59 227 -111 174 -53 306 -70 480 -64 164 6 224 19 347 78 45
21 84 39 87 39 3 0 6 -10 6 -22 0 -13 15 -58 34 -100 l33 -76 -49 -49 c-113
-110 -226 -293 -276 -446 -32 -97 -45 -207 -38 -312 12 -182 67 -305 192 -432
69 -71 94 -89 175 -127 52 -24 121 -49 153 -55 127 -24 283 -9 434 40 l62 21
39 -31 c54 -43 172 -97 266 -122 108 -28 278 -29 386 0 188 49 325 148 429
310 43 67 60 84 60 60 0 -21 72 -153 124 -228 61 -90 189 -221 277 -286 78
-57 213 -126 313 -160 144 -48 210 -58 396 -59 149 -1 191 3 280 23 281 62
510 182 715 374 89 83 90 85 90 131 0 41 -5 52 -33 77 -24 22 -42 29 -73 29
-37 0 -48 -7 -112 -67 -39 -38 -77 -73 -84 -80 -27 -25 -180 -121 -238 -150
-177 -89 -337 -126 -540 -127 -157 -1 -245 15 -374 67 -318 128 -532 386 -600
725 -16 79 -14 304 4 392 19 88 46 180 54 180 3 -1 19 -17 34 -38 58 -77 173
-183 266 -245 194 -129 375 -183 586 -174 154 6 259 33 400 102 250 123 438
351 506 615 32 123 32 278 1 380 -54 171 -160 300 -310 379 -129 66 -194 82
-363 88 l-146 5 5 107 c13 285 -100 491 -311 570 -81 30 -207 28 -298 -3z
m258 -206 c48 -21 99 -85 125 -158 23 -62 24 -220 2 -306 -16 -63 -16 -63 -67
-81 -216 -76 -473 -270 -624 -473 -26 -34 -50 -59 -55 -54 -15 15 -30 208 -23
312 12 181 44 301 124 455 72 141 220 282 331 316 49 14 143 9 187 -11z
m-1757 -126 c157 -35 302 -168 402 -369 28 -56 74 -192 67 -199 -2 -2 -45 -11
-94 -20 -152 -26 -325 -102 -454 -199 -71 -53 -75 -55 -184 -72 l-111 -17 -28
34 c-76 90 -135 240 -145 366 -10 140 44 281 145 373 116 106 244 139 402 103z
m2432 -582 c202 -72 308 -216 308 -418 0 -175 -108 -399 -248 -511 -26 -21
-53 -44 -61 -51 -25 -24 -166 -90 -241 -113 -100 -31 -300 -33 -400 -5 -139
40 -279 125 -387 234 -61 62 -133 153 -133 168 0 6 15 16 34 22 53 19 232 130
326 202 95 72 183 159 248 242 38 50 136 205 144 229 11 34 314 35 410 1z
m-3152 -98 c0 -19 58 -149 92 -205 15 -25 28 -50 28 -55 0 -5 -17 -18 -37 -29
-21 -10 -51 -28 -67 -38 -34 -24 -38 -19 -62 61 -20 67 -15 200 10 255 16 36
36 42 36 11z m1230 -212 c0 -60 -3 -111 -6 -115 -3 -3 -43 14 -87 38 -45 23
-115 53 -154 66 -40 13 -73 26 -73 30 0 20 212 87 278 88 l42 1 0 -108z m-367
-194 c87 -23 265 -108 257 -123 -10 -19 -162 -9 -261 18 -100 27 -239 84 -239
98 0 4 10 15 23 24 27 19 104 13 220 -17z m-553 -34 c11 -13 8 -26 -21 -79
-19 -36 -38 -65 -44 -65 -17 0 -115 64 -112 74 3 8 145 85 158 86 4 0 12 -7
19 -16z m-312 -233 c26 -22 78 -56 115 -76 58 -32 68 -41 63 -59 -21 -77 -38
-251 -33 -336 10 -176 44 -298 122 -434 24 -43 42 -82 40 -86 -10 -16 -144
-33 -226 -28 -148 9 -258 70 -336 187 -61 89 -78 153 -78 286 0 160 40 279
143 425 43 61 129 160 139 160 2 0 25 -18 51 -39z m1410 -141 c71 -118 106
-248 106 -395 1 -127 -22 -218 -81 -324 -127 -229 -410 -327 -666 -231 -97 36
-97 38 -14 98 118 84 265 240 366 388 56 83 161 306 201 427 19 56 37 96 44
94 6 -2 26 -28 44 -57z m-288 14 c0 -15 -77 -188 -111 -249 -100 -181 -236
-340 -384 -450 -112 -83 -109 -83 -146 -33 -44 61 -74 122 -100 208 -20 64
-24 96 -24 225 0 95 5 170 14 203 l13 54 37 -6 c20 -3 96 -9 169 -12 147 -8
250 3 402 41 98 24 130 29 130 19z"/>
</g>
</svg>
