<?xml version="1.0" standalone="no"?>
<!DOCTYPE svg PUBLIC "-//W3C//DTD SVG 20010904//EN"
 "http://www.w3.org/TR/2001/REC-SVG-20010904/DTD/svg10.dtd">
<svg version="1.0" xmlns="http://www.w3.org/2000/svg"
 width="1280" height="720" viewBox="0 0 1280.000000 720.000000"
 preserveAspectRatio="xMidYMid meet">
<g transform="translate(0.000000,720.000000) scale(0.100000,-0.100000)"
fill="#5f9234" stroke="none">
<path d="M6248 5265 c-296 -103 -529 -443 -583 -851 -8 -60 -15 -126 -15 -146
l0 -38 -45 35 c-47 35 -127 75 -151 75 -8 0 -16 12 -20 28 -51 230 -139 410
-269 550 -175 189 -411 273 -640 228 -266 -53 -455 -245 -519 -528 -5 -24 -11
-28 -41 -28 -49 0 -81 -18 -110 -61 -29 -45 -70 -163 -80 -232 -6 -41 -15 -54
-59 -93 -62 -55 -117 -84 -216 -116 -64 -20 -95 -23 -210 -22 -149 1 -285 26
-454 84 -109 37 -136 37 -174 5 -36 -31 -46 -66 -32 -111 13 -40 31 -50 155
-92 201 -68 345 -94 521 -93 142 0 265 27 378 80 47 23 87 41 90 41 3 0 6 -10
6 -22 0 -13 15 -57 33 -99 l33 -75 -75 -81 c-168 -179 -272 -407 -287 -627
-15 -217 45 -383 196 -537 184 -188 464 -239 756 -139 l58 20 51 -34 c107 -73
205 -110 344 -131 161 -25 312 0 461 75 94 47 154 97 224 185 113 141 164 286
173 490 7 173 -17 297 -91 458 -14 32 -26 61 -26 65 0 8 189 57 194 51 1 -2
13 -22 26 -44 134 -226 386 -414 652 -487 70 -19 107 -23 238 -22 139 0 164 3
249 27 275 81 494 262 614 508 119 244 124 486 14 692 -46 85 -81 117 -128
117 -65 0 -137 -51 -139 -97 0 -7 15 -28 34 -47 129 -128 139 -391 24 -596
-79 -140 -188 -245 -327 -314 -135 -67 -195 -81 -346 -80 -219 0 -348 51 -539
209 -50 41 -176 191 -176 210 0 5 20 18 45 28 122 51 353 215 465 330 255 262
373 597 314 885 -38 187 -145 318 -302 371 -86 29 -204 28 -294 -4z m259 -204
c52 -24 107 -97 129 -170 25 -82 15 -262 -20 -360 -93 -266 -323 -503 -628
-651 l-59 -29 -14 33 c-46 109 -64 392 -35 556 27 161 108 344 198 449 62 72
157 149 212 172 61 24 162 24 217 0z m-1746 -129 c156 -41 291 -168 392 -367
22 -45 67 -175 67 -195 0 -5 -21 -12 -47 -15 -167 -23 -368 -106 -502 -207
-68 -52 -79 -57 -155 -67 -44 -7 -95 -14 -111 -17 -26 -5 -35 0 -62 34 -77 96
-143 276 -143 391 0 126 58 260 149 343 115 105 258 140 412 100z m-731 -679
c0 -20 82 -194 110 -232 l20 -29 -67 -39 c-38 -21 -71 -39 -74 -41 -4 -2 -15
19 -25 45 -26 66 -26 232 -1 286 17 37 37 42 37 10z m1230 -211 c0 -60 -2
-111 -5 -114 -3 -3 -44 14 -91 38 -47 24 -116 53 -155 66 -38 12 -69 25 -69
29 0 20 210 87 278 88 l42 1 0 -108z m-385 -189 c116 -27 297 -115 276 -136
-27 -27 -269 16 -402 72 -106 45 -109 47 -80 72 28 23 80 21 206 -8z m-531
-46 c8 -12 7 -22 -2 -34 -6 -10 -22 -37 -34 -60 -12 -24 -26 -43 -32 -43 -18
0 -116 64 -113 74 4 13 149 87 161 83 5 -2 14 -11 20 -20z m-324 -220 c22 -18
66 -49 100 -67 99 -57 92 -44 73 -135 -10 -52 -16 -130 -17 -225 0 -194 22
-292 103 -453 32 -64 56 -119 52 -121 -23 -15 -144 -28 -218 -24 -150 8 -261
68 -338 184 -61 90 -80 158 -80 289 1 163 45 291 150 433 46 64 123 152 132
152 3 0 22 -15 43 -33z m1437 -182 c207 -399 38 -859 -345 -940 -37 -8 -86
-15 -109 -15 -62 0 -180 27 -243 56 l-55 26 25 16 c151 102 303 258 420 431
56 83 160 303 195 411 15 47 32 93 37 104 9 17 11 16 30 -10 10 -16 31 -51 45
-79z m-307 49 c0 -3 -16 -44 -36 -92 -102 -248 -264 -463 -455 -604 -118 -87
-113 -86 -154 -31 -44 61 -92 175 -112 267 -17 82 -13 289 7 369 13 49 13 49
49 43 20 -3 93 -9 162 -12 142 -8 262 4 409 40 100 25 130 30 130 20z"/>
</g>
</svg>
