<?xml version="1.0" standalone="no"?>
<!DOCTYPE svg PUBLIC "-//W3C//DTD SVG 20010904//EN"
 "http://www.w3.org/TR/2001/REC-SVG-20010904/DTD/svg10.dtd">
<svg version="1.0" xmlns="http://www.w3.org/2000/svg"
 width="1280" height="720" viewBox="0 0 1280.000000 720.000000"
 preserveAspectRatio="xMidYMid meet">
<g transform="translate(0.000000,720.000000) scale(0.100000,-0.100000)"
fill="#5f9234" stroke="none">
<path d="M7884 5321 c-88 -24 -150 -55 -231 -115 -64 -47 -169 -169 -204 -237
-19 -38 -33 -48 -43 -30 -10 15 -184 81 -270 101 -44 11 -142 25 -216 31
l-135 12 -48 54 c-97 107 -196 153 -332 153 -193 0 -396 -125 -534 -328 -132
-195 -195 -385 -216 -645 l-7 -88 -27 24 c-14 14 -55 39 -91 57 -36 17 -71 35
-79 38 -7 4 -23 48 -36 97 -117 460 -473 758 -847 708 -99 -14 -173 -40 -255
-91 -165 -101 -261 -240 -307 -444 -6 -25 -11 -28 -50 -28 -74 0 -127 -71
-166 -224 -11 -44 -20 -87 -20 -97 0 -22 -91 -103 -150 -134 -104 -53 -185
-70 -330 -69 -149 1 -287 27 -454 84 -112 38 -137 38 -178 1 -26 -23 -33 -37
-33 -68 0 -72 19 -87 175 -137 364 -118 648 -119 887 -5 45 21 84 39 87 39 3
0 6 -10 6 -22 0 -13 15 -57 33 -99 l33 -75 -72 -77 c-211 -224 -320 -516 -287
-775 21 -166 74 -273 196 -395 65 -66 94 -86 170 -122 51 -23 119 -48 151 -54
127 -24 283 -9 433 40 l62 20 33 -24 c135 -101 295 -151 478 -149 264 3 475
117 611 332 24 38 46 70 49 70 4 0 12 -17 19 -37 18 -52 105 -194 159 -262 60
-75 174 -184 248 -237 34 -24 108 -66 165 -94 413 -197 936 -144 1344 135 l64
44 73 -38 c40 -22 111 -52 158 -67 81 -27 93 -29 270 -28 172 0 191 2 275 27
188 58 332 144 450 269 196 208 230 479 89 721 -25 44 -44 80 -42 81 2 1 26
15 53 31 198 113 323 277 361 473 18 92 17 139 0 224 -22 100 -61 173 -132
244 -70 70 -167 125 -267 151 -70 18 -224 22 -336 10 l-74 -8 30 53 c138 245
146 492 23 698 -75 127 -189 219 -336 271 -87 31 -283 36 -380 10z m282 -205
c121 -32 225 -115 274 -217 65 -138 44 -301 -61 -475 -34 -55 -213 -254 -229
-254 -5 0 -32 45 -62 100 -96 183 -264 385 -409 495 -35 27 -66 50 -68 51 -10
8 71 124 126 179 95 96 179 133 308 134 39 0 93 -5 121 -13z m-1677 -47 c18
-6 30 -16 28 -22 -2 -6 -32 -20 -68 -32 -86 -30 -143 -59 -211 -111 -223 -172
-293 -409 -194 -655 l24 -59 -29 -32 c-16 -18 -55 -65 -86 -105 -31 -39 -60
-70 -64 -68 -15 10 -31 211 -25 309 19 277 100 478 256 637 107 108 182 149
275 149 34 0 76 -5 94 -11z m-1757 -130 c100 -21 177 -66 263 -153 106 -107
190 -259 219 -393 7 -31 7 -32 -41 -38 -168 -23 -390 -116 -508 -212 -60 -49
-63 -50 -174 -67 l-113 -17 -33 38 c-75 86 -145 274 -145 392 0 289 258 507
532 450z m2298 -90 c72 -13 190 -54 263 -91 51 -25 58 -32 53 -51 -4 -12 -13
-55 -22 -96 -8 -41 -16 -76 -18 -78 -1 -2 -20 4 -41 13 -65 27 -182 44 -302
44 l-115 0 6 31 c3 17 6 81 6 141 l0 110 58 -6 c31 -4 82 -11 112 -17z m-382
-94 c2 -58 -3 -113 -13 -156 l-16 -66 -52 -18 c-63 -22 -198 -92 -273 -142
-71 -47 -79 -40 -79 75 0 78 3 94 33 154 49 99 156 178 312 229 84 28 85 27
88 -76z m1037 -286 c50 -52 116 -132 147 -179 63 -94 130 -228 122 -242 -3 -4
-22 -15 -42 -24 -62 -27 -203 -84 -207 -84 -2 0 -6 26 -10 58 -14 131 -67 258
-148 355 l-40 49 13 91 c7 51 14 95 17 100 7 12 53 -26 148 -124z m-505 -118
c36 -13 79 -32 96 -43 28 -19 32 -28 43 -105 12 -87 47 -210 81 -285 10 -23
17 -45 14 -49 -2 -4 -61 -10 -131 -14 -204 -10 -431 19 -574 75 -89 35 -169
72 -169 79 0 3 29 41 64 84 54 66 157 225 169 260 5 17 86 26 217 23 97 -3
140 -8 190 -25z m-3150 -97 c0 -23 66 -169 95 -212 14 -20 25 -41 25 -47 0 -5
-30 -27 -67 -48 -75 -43 -74 -43 -99 41 -20 67 -15 200 10 255 16 36 36 42 36
11z m1230 -212 c0 -60 -2 -111 -5 -114 -3 -3 -43 14 -89 37 -45 23 -115 53
-154 66 -40 13 -72 26 -72 30 0 20 210 87 278 88 l42 1 0 -108z m3674 28 c208
-65 278 -256 175 -476 -38 -79 -140 -174 -242 -224 -61 -30 -92 -41 -101 -34
-7 5 -35 26 -62 47 -68 51 -275 153 -359 175 l-70 19 -11 106 c-7 58 -17 129
-23 157 -18 84 -18 84 67 125 109 52 162 72 266 100 121 32 265 34 360 5z
m-4059 -217 c107 -27 285 -111 285 -135 0 -15 -117 -8 -212 11 -93 20 -193 53
-259 86 -45 23 -45 22 -24 46 17 18 26 19 85 14 36 -4 92 -14 125 -22z m1610
-56 c239 -120 465 -165 768 -154 86 3 157 3 157 -1 0 -4 -10 -25 -23 -47 -24
-42 -27 -44 -159 -100 -132 -56 -204 -102 -287 -185 l-76 -75 -125 0 c-148 1
-227 18 -345 78 -82 41 -114 62 -199 132 -51 42 -177 192 -175 210 0 5 39 29
87 53 48 23 125 69 172 101 84 57 85 58 110 41 14 -10 57 -33 95 -53z m-2140
16 c7 -19 -53 -143 -70 -143 -18 0 -115 64 -112 75 4 13 137 84 158 85 9 0 20
-8 24 -17z m3704 -83 c6 -28 11 -65 11 -82 l0 -31 -85 5 c-47 2 -88 8 -92 12
-7 7 134 146 149 146 3 0 11 -23 17 -50z m-4014 -156 c22 -17 70 -49 108 -69
37 -20 67 -41 67 -45 0 -5 -7 -39 -17 -77 -23 -98 -24 -332 0 -441 23 -109 46
-169 102 -266 24 -43 42 -82 40 -86 -10 -16 -144 -33 -226 -28 -150 9 -264 73
-340 191 -145 225 -86 545 151 810 31 34 56 54 63 50 7 -4 30 -21 52 -39z
m1383 -101 c59 -84 108 -221 123 -344 58 -476 -359 -809 -779 -623 l-55 24 69
51 c129 96 274 251 371 395 74 109 162 297 209 444 14 44 29 80 34 80 5 0 17
-12 28 -27z m490 -26 c43 -64 169 -183 254 -240 167 -112 331 -172 498 -184
l86 -6 0 -87 c0 -81 3 -93 37 -163 27 -54 54 -91 100 -133 128 -118 241 -166
457 -195 l95 -12 34 -44 c40 -52 45 -46 -99 -121 -429 -223 -859 -198 -1209
71 -71 55 -172 173 -227 267 -44 74 -93 209 -113 308 -19 92 -14 310 9 415 22
98 41 157 50 157 3 0 15 -15 28 -33z m-758 7 c0 -3 -16 -44 -36 -92 -103 -250
-263 -462 -459 -607 -112 -83 -109 -83 -146 -33 -38 52 -80 141 -105 223 -24
76 -26 330 -5 413 l13 54 62 -9 c33 -4 133 -7 221 -7 154 1 236 12 385 53 42
11 70 13 70 5z m2681 -105 c43 -33 107 -77 141 -98 61 -37 63 -40 60 -76 -8
-92 -117 -384 -170 -453 -19 -24 -45 -33 -177 -57 -122 -23 -130 -22 -143 23
-6 20 -16 74 -23 120 -18 132 13 300 87 461 76 165 104 175 225 80z m-496
-206 c-13 -51 -26 -129 -30 -175 -6 -76 7 -254 21 -292 9 -23 -25 -21 -120 9
-96 30 -179 84 -221 143 -26 38 -30 53 -30 107 0 81 21 112 92 136 66 22 198
91 259 134 27 19 49 33 50 32 2 -1 -8 -44 -21 -94z m1017 -38 c72 -16 218 -23
308 -15 l55 4 47 -59 c110 -136 126 -307 43 -450 -28 -48 -114 -134 -175 -176
-202 -135 -495 -175 -710 -97 -87 32 -87 33 -11 122 l68 79 199 67 c312 106
516 187 542 216 33 37 31 103 -5 138 -51 51 -47 52 -432 -93 -74 -28 -136 -49
-138 -47 -2 1 17 65 42 142 24 76 47 152 50 168 5 23 10 27 28 22 12 -4 52
-13 89 -21z"/>
</g>
</svg>
