<?xml version="1.0" standalone="no"?>
<!DOCTYPE svg PUBLIC "-//W3C//DTD SVG 20010904//EN"
 "http://www.w3.org/TR/2001/REC-SVG-20010904/DTD/svg10.dtd">
<svg version="1.0" xmlns="http://www.w3.org/2000/svg"
 width="1280" height="720" viewBox="0 0 1280.000000 720.000000"
 preserveAspectRatio="xMidYMid meet">
<g transform="translate(0.000000,720.000000) scale(0.100000,-0.100000)"
fill="#5f9234" stroke="none">
<path d="M4510 5145 c-258 -59 -442 -251 -504 -527 -5 -24 -11 -28 -41 -28
-19 0 -45 -5 -59 -11 -49 -23 -105 -138 -127 -263 -10 -61 -15 -70 -63 -112
-66 -60 -169 -108 -276 -130 -151 -30 -353 -5 -604 76 -109 35 -149 35 -183
-3 -29 -31 -36 -62 -23 -101 14 -44 33 -55 150 -93 281 -92 521 -118 716 -78
76 16 239 78 250 96 10 16 34 9 34 -9 0 -18 38 -123 58 -158 8 -15 -2 -31 -66
-100 -91 -97 -169 -219 -217 -335 -58 -142 -69 -199 -69 -349 0 -123 3 -143
29 -220 93 -272 339 -449 626 -450 87 0 209 21 295 50 l58 20 51 -34 c143 -97
287 -139 470 -138 423 4 734 337 735 788 0 150 -29 284 -91 422 -16 34 -29 66
-29 70 0 5 35 16 78 26 155 37 359 121 497 206 101 62 244 170 300 226 122
124 252 311 261 377 6 45 -30 87 -84 97 -54 9 -90 -12 -124 -73 -86 -152 -252
-318 -438 -435 -133 -83 -362 -177 -507 -207 -41 -8 -41 -2 -2 43 18 20 46 66
63 102 27 56 31 76 31 145 0 63 -5 90 -23 127 -38 77 -123 147 -216 178 -26 8
-36 17 -36 33 0 34 -39 163 -75 249 -52 122 -121 225 -215 318 -96 96 -165
141 -283 182 -102 36 -246 46 -347 23z m251 -213 c156 -41 291 -167 392 -367
25 -51 72 -193 66 -200 -2 -2 -45 -10 -96 -19 -165 -28 -382 -128 -485 -224
-21 -20 -49 -28 -145 -44 l-118 -19 -28 33 c-43 51 -106 183 -128 266 -23 90
-24 168 -4 245 66 254 297 394 546 329z m-731 -678 c0 -21 60 -153 96 -211
l33 -52 -67 -38 c-37 -21 -70 -39 -73 -41 -17 -8 -42 90 -46 178 -4 82 -2 102
17 143 20 44 40 55 40 21z m1230 -212 c0 -60 -2 -111 -5 -114 -3 -3 -45 14
-93 38 -48 24 -117 54 -154 66 -38 12 -68 25 -68 29 0 22 204 87 278 88 l42 1
0 -108z m-400 -184 c65 -12 151 -46 239 -95 56 -31 62 -37 48 -48 -34 -25
-265 18 -400 75 -104 44 -105 45 -82 70 17 19 26 21 80 15 33 -3 85 -11 115
-17z m-520 -44 c11 -13 8 -26 -21 -79 -19 -36 -38 -65 -43 -65 -19 0 -117 63
-113 74 3 10 143 86 158 86 4 0 12 -7 19 -16z m-274 -260 c33 -23 79 -51 102
-63 37 -19 43 -26 38 -45 -3 -13 -13 -72 -22 -132 -19 -129 -14 -263 16 -397
19 -86 79 -229 120 -287 12 -16 19 -34 16 -39 -11 -17 -142 -34 -227 -29 -147
9 -258 70 -334 184 -61 90 -80 158 -80 289 0 86 5 126 24 185 39 127 108 242
213 356 36 39 43 43 58 32 10 -7 44 -31 76 -54z m1391 -149 c207 -399 39 -859
-344 -940 -37 -8 -88 -15 -113 -15 -97 0 -280 56 -280 86 0 8 3 14 8 14 14 0
128 91 195 156 84 82 169 186 232 283 62 95 154 291 194 409 17 52 34 98 37
104 7 11 33 -24 71 -97z m-312 33 c-4 -13 -23 -59 -42 -103 -103 -237 -261
-442 -447 -579 -115 -85 -110 -84 -151 -29 -44 61 -92 175 -112 267 -17 81
-13 300 8 374 l12 44 61 -9 c34 -4 135 -7 226 -6 143 1 182 6 295 31 163 38
158 37 150 10z"/>
</g>
</svg>
