<?xml version="1.0" standalone="no"?>
<!DOCTYPE svg PUBLIC "-//W3C//DTD SVG 20010904//EN"
 "http://www.w3.org/TR/2001/REC-SVG-20010904/DTD/svg10.dtd">
<svg version="1.0" xmlns="http://www.w3.org/2000/svg"
 width="1280" height="720" viewBox="0 0 1280.000000 720.000000"
 preserveAspectRatio="xMidYMid meet">
<g transform="translate(0.000000,720.000000) scale(0.100000,-0.100000)"
fill="#5f9234" stroke="none">
<path d="M7884 5321 c-87 -24 -150 -55 -229 -113 -64 -47 -172 -172 -205 -239
-21 -40 -29 -46 -46 -29 -17 17 -159 71 -252 95 -50 14 -154 30 -230 36 l-137
12 -48 54 c-97 107 -196 153 -333 153 -246 0 -484 -189 -634 -505 -62 -131
-99 -282 -116 -473 l-7 -83 -26 25 c-26 25 -146 86 -168 86 -7 0 -15 12 -19
28 -82 369 -279 638 -549 746 -214 85 -470 44 -647 -104 -125 -103 -195 -223
-232 -392 -6 -25 -11 -28 -50 -28 -74 0 -127 -71 -166 -224 -11 -44 -20 -87
-20 -97 0 -22 -91 -103 -150 -134 -100 -51 -186 -69 -325 -69 -146 0 -265 21
-445 80 -129 42 -151 42 -192 5 -26 -23 -33 -37 -33 -68 0 -71 20 -87 161
-133 226 -73 423 -102 604 -88 112 8 197 31 297 79 45 21 84 39 87 39 3 0 6
-8 6 -18 0 -18 38 -123 58 -158 9 -15 -1 -30 -63 -96 -115 -122 -204 -272
-255 -428 -32 -99 -46 -251 -33 -353 22 -163 75 -269 196 -390 124 -125 276
-187 458 -187 87 0 204 20 296 51 l62 20 33 -24 c135 -101 293 -150 478 -149
264 3 475 117 611 332 24 38 46 69 49 69 3 0 18 -29 35 -66 72 -162 234 -357
387 -466 145 -104 350 -180 555 -208 165 -22 414 5 580 62 31 10 60 16 63 12
4 -5 17 -39 29 -76 92 -290 312 -551 566 -673 133 -64 203 -77 360 -71 99 4
146 11 195 28 181 63 354 193 481 362 185 245 282 614 249 942 -6 61 -12 120
-13 133 -2 20 6 26 58 43 335 114 615 348 745 621 78 164 114 348 100 513 -9
114 -24 170 -70 264 -41 84 -159 220 -209 241 -39 16 -87 0 -126 -40 -47 -49
-40 -75 47 -161 122 -121 154 -214 145 -419 -5 -125 -27 -210 -79 -315 -73
-145 -207 -287 -361 -383 -96 -60 -304 -149 -317 -136 -5 5 -24 50 -44 99 -20
50 -52 116 -72 148 -20 32 -34 59 -33 61 2 1 38 22 79 46 86 50 208 169 257
251 138 231 117 506 -52 675 -147 146 -357 198 -634 157 l-44 -6 30 54 c135
239 145 485 30 688 -76 133 -204 236 -349 283 -94 30 -280 34 -374 9z m299
-210 c128 -42 212 -114 264 -227 22 -49 27 -74 27 -144 1 -122 -35 -229 -116
-347 -33 -49 -196 -223 -208 -223 -5 0 -32 44 -60 98 -65 121 -143 231 -238
335 -69 75 -189 183 -228 205 -16 9 -15 15 17 67 42 72 143 175 201 205 98 52
239 65 341 31z m-1688 -45 c19 -8 35 -17 35 -20 0 -2 -30 -14 -67 -27 -92 -30
-157 -63 -225 -115 -223 -172 -293 -409 -194 -655 l24 -59 -29 -32 c-16 -18
-55 -65 -86 -105 -31 -39 -60 -70 -64 -68 -16 10 -31 211 -25 314 18 268 101
473 256 632 106 109 181 149 278 149 34 0 78 -7 97 -14z m-1763 -127 c29 -6
82 -25 118 -41 152 -72 322 -306 364 -505 7 -31 7 -32 -41 -38 -168 -23 -390
-116 -508 -212 -60 -49 -63 -50 -174 -67 l-114 -17 -24 28 c-78 95 -140 244
-150 364 -26 305 238 549 529 488z m2249 -84 c107 -16 224 -52 312 -97 51 -25
58 -32 53 -51 -4 -12 -13 -55 -21 -96 -8 -41 -16 -76 -18 -78 -2 -2 -24 4 -48
12 -84 30 -181 45 -296 45 l-115 0 6 31 c3 17 6 80 6 140 0 81 3 109 13 109 6
0 55 -7 108 -15z m-331 -100 c0 -54 -7 -123 -16 -159 -14 -58 -18 -64 -52 -76
-76 -27 -185 -81 -263 -131 -58 -38 -83 -49 -91 -41 -6 6 -13 48 -16 92 -4 77
-3 84 32 155 53 107 157 184 316 236 93 30 90 33 90 -76z m1030 -282 c82 -84
144 -161 183 -228 42 -72 96 -189 91 -197 -6 -9 -30 -20 -163 -74 -46 -19 -85
-33 -86 -32 -2 2 -8 37 -14 79 -18 131 -63 234 -144 332 l-39 48 11 91 c7 50
14 95 17 100 8 13 51 -22 144 -119z m-500 -123 c36 -12 79 -31 96 -43 28 -18
31 -27 43 -105 11 -81 50 -214 85 -294 9 -20 12 -39 8 -41 -4 -3 -61 -8 -127
-12 -147 -8 -326 7 -458 40 -92 22 -287 100 -287 114 0 3 29 41 64 84 54 66
157 225 169 260 5 17 86 26 217 23 98 -3 139 -8 190 -26z m-3150 -97 c0 -21
67 -169 97 -213 12 -19 23 -39 23 -45 0 -5 -30 -27 -67 -48 -75 -43 -74 -43
-99 41 -20 67 -15 200 10 255 16 37 36 42 36 10z m1230 -211 c0 -60 -2 -111
-5 -114 -3 -3 -43 14 -89 37 -45 23 -115 53 -154 66 -40 13 -72 26 -72 30 0
10 121 60 182 75 29 7 72 13 96 13 l42 1 0 -108z m3722 10 c213 -104 238 -356
53 -559 -53 -58 -159 -130 -226 -152 -36 -12 -38 -11 -102 38 -105 79 -271
156 -424 197 -8 2 -13 21 -13 48 0 24 -9 97 -20 161 -11 64 -20 123 -20 130 0
24 200 111 344 150 78 21 109 25 216 22 118 -2 129 -4 192 -35z m-4089 -204
c84 -22 258 -104 265 -125 11 -34 -237 0 -370 50 -59 23 -126 53 -137 63 -2 2
4 13 14 25 17 18 27 19 85 14 36 -4 100 -16 143 -27z m1601 -53 c150 -74 215
-96 370 -128 95 -19 143 -22 329 -22 119 0 217 -1 217 -2 0 -1 -10 -23 -22
-47 -20 -41 -28 -47 -102 -77 -175 -69 -284 -137 -371 -230 l-50 -54 -125 0
c-148 1 -227 18 -345 78 -82 41 -114 62 -199 132 -51 42 -176 192 -175 210 0
5 35 27 77 47 42 20 118 64 167 97 50 33 92 60 94 61 2 0 63 -29 135 -65z
m-2154 20 c10 -12 6 -27 -21 -80 -19 -36 -38 -65 -44 -65 -18 0 -115 64 -112
75 3 10 142 85 157 85 4 0 13 -7 20 -15z m3709 -85 c6 -28 11 -64 11 -80 0
-29 -1 -30 -52 -29 -29 0 -70 3 -92 7 l-38 7 73 72 c41 40 77 73 81 73 3 0 11
-23 17 -50z m-4014 -156 c22 -17 70 -49 108 -69 37 -20 67 -38 67 -38 0 -1 -7
-34 -15 -72 -22 -107 -29 -258 -16 -360 18 -136 47 -229 106 -342 29 -57 50
-105 47 -107 -24 -15 -145 -28 -219 -24 -154 9 -267 71 -344 191 -51 78 -70
141 -76 249 -11 190 68 384 232 566 27 30 52 49 58 45 7 -4 30 -21 52 -39z
m1402 -134 c74 -122 105 -240 105 -400 1 -100 -3 -126 -27 -199 -51 -150 -145
-265 -268 -327 -159 -81 -310 -80 -509 1 -10 4 -18 11 -18 16 0 4 33 33 73 63
86 65 232 213 304 311 99 132 197 326 254 503 19 56 35 92 42 89 7 -2 27 -27
44 -57z m471 7 c43 -64 169 -183 254 -240 167 -112 331 -172 498 -184 l86 -6
0 -87 c0 -81 3 -93 37 -163 65 -131 207 -242 374 -292 l61 -18 6 -56 c3 -31 8
-90 12 -131 l6 -76 -59 -18 c-382 -121 -728 -69 -1019 155 -88 68 -181 178
-243 290 -120 216 -146 542 -65 807 9 28 19 52 23 52 3 0 16 -15 29 -33z
m-758 7 c0 -14 -76 -187 -108 -244 -109 -198 -220 -328 -387 -454 -112 -84
-109 -84 -146 -34 -44 61 -73 122 -101 208 -20 65 -23 95 -23 225 0 94 5 170
14 203 l13 54 62 -9 c33 -4 133 -7 221 -7 154 1 236 12 385 53 42 11 70 13 70
5z m2679 -104 c33 -27 68 -53 77 -58 14 -8 14 -14 0 -69 -9 -34 -16 -75 -16
-93 0 -42 28 -149 46 -177 23 -36 17 -62 -35 -158 -43 -80 -52 -91 -87 -103
-50 -18 -179 -41 -225 -42 -37 0 -37 0 -52 63 -54 217 -16 374 160 665 22 37
62 29 132 -28z m-469 -119 c0 -5 -11 -42 -25 -82 -35 -107 -70 -249 -90 -364
-9 -55 -18 -102 -20 -103 -7 -7 -81 21 -132 49 -120 68 -169 174 -127 278 14
35 23 42 67 57 76 25 215 97 267 137 46 37 60 43 60 28z m989 -128 c54 -13
117 -17 221 -16 l145 1 47 -62 c53 -70 84 -133 94 -193 l6 -41 -66 -7 c-74 -8
-86 -4 -68 25 7 11 12 36 12 56 0 44 -53 104 -93 104 -13 0 -90 -25 -171 -55
l-147 -56 -60 33 c-34 17 -63 38 -66 45 -3 7 2 46 12 86 26 110 25 109 42 103
9 -4 50 -14 92 -23z m51 -492 c83 -23 284 -45 346 -38 24 2 46 1 49 -3 3 -4
-24 -36 -59 -71 -214 -214 -586 -291 -841 -175 l-56 26 68 81 68 81 170 58
c94 32 173 58 178 59 4 1 38 -8 77 -18z m570 -248 c0 -150 -49 -368 -114 -509
-107 -231 -301 -413 -498 -466 -102 -27 -257 -21 -343 14 -219 90 -393 289
-495 570 -31 84 -37 118 -21 118 5 0 45 24 90 54 l81 54 63 -34 c34 -19 105
-48 157 -66 93 -32 98 -32 280 -33 176 0 189 1 275 28 194 62 323 138 436 257
41 43 77 78 82 79 4 1 7 -29 7 -66z"/>
</g>
</svg>
